<?xml version="1.0" encoding="UTF-8"?>
<svg width="180px" height="180px" viewBox="0 0 180 180" version="1.1" xmlns="http://www.w3.org/2000/svg" xmlns:xlink="http://www.w3.org/1999/xlink">
    <title>aptos</title>
    <g id="Page-1" stroke="none" stroke-width="1" fill="none" fill-rule="evenodd">
        <g id="aptos" fill-rule="nonzero">
            <circle id="Oval" fill="#FFFFFF" cx="90" cy="90" r="90"></circle>
            <path d="M130.982142,65.158285 L117.723214,65.158285 C116.25,65.158285 114.776786,64.4886421 113.705358,63.4172136 L108.348214,57.3904279 C106.741072,55.6493564 104.196428,55.5154279 102.321428,56.9886421 L101.919642,57.3904279 L97.3660714,62.6136421 C95.8928572,64.3547136 93.6160714,65.2922136 91.3392858,65.2922136 L18.8839285,65.2922136 C16.875,71.1850706 15.5357143,77.4797136 15,83.7743564 L83.5714286,83.7743564 C84.7767858,83.7743564 85.9821428,83.2386421 86.7857142,82.4350706 L93.2142858,75.7386421 C94.0178572,74.9350706 95.0892858,74.3993564 96.2946428,74.3993564 L96.5625,74.3993564 C97.7678572,74.3993564 98.9732141,74.9350706 99.7767863,75.8725706 L105.133928,81.8993564 C106.205358,83.1047136 107.678572,83.7743564 109.151786,83.7743564 L165,83.7743564 C164.464286,77.4797136 163.125,71.1850706 161.116072,65.2922136 L130.982142,65.2922136 L130.982142,65.158285 Z M87.0535714,102.122571 L81.6964285,96.095785 C80.0892858,94.3547136 77.5446428,94.220785 75.6696428,95.6939993 L75.2678572,96.095785 L70.5803572,101.318999 C69.1071428,103.060071 66.9642858,103.997571 64.6875,103.997571 L16.0714285,103.997571 C17.2767857,110.426142 19.4196428,116.720784 22.2321428,122.747571 L56.3839285,122.747571 C57.5892858,122.747571 58.6607142,122.211857 59.5982142,121.408284 L66.0267858,114.711857 C66.8303572,113.908284 67.9017858,113.372571 69.1071428,113.372571 L69.375,113.372571 C70.5803572,113.372571 71.7857142,113.908284 72.5892858,114.845784 L77.9464285,120.872571 C79.0178572,122.077929 80.4910714,122.747571 81.9642858,122.747571 L157.767858,122.747571 C160.580358,116.854713 162.723214,110.560071 163.928572,103.997571 L91.0714285,103.997571 C89.4642858,103.997571 87.9910714,103.327929 87.0535714,102.122571 Z M113.303572,43.7297136 L119.732142,37.033285 C120.535715,36.2297136 121.607142,35.6939993 122.8125,35.6939993 L123.080358,35.6939993 C124.285715,35.6939993 125.491072,36.2297136 126.294642,37.033285 L131.651786,43.0600706 C132.723215,44.2654279 134.196428,44.8011421 135.669642,44.8011421 L150.133928,44.8011421 C124.955358,11.5868564 77.6785714,5.02435642 44.3303572,30.0689993 C38.8392858,34.220785 33.8839286,39.1761421 29.5982142,44.8011421 L110.089286,44.8011421 C111.428572,45.0689993 112.5,44.533285 113.303572,43.7297136 Z M61.4732142,141.229713 C59.8660714,141.229713 58.3928572,140.560071 57.4553572,139.488642 L52.0982142,133.461857 C50.4910714,131.720784 47.8125,131.586857 46.0714286,133.193999 L45.8035714,133.461857 L41.1160714,138.685071 C39.6428572,140.426142 37.5,141.363642 35.2232142,141.363642 L34.9553572,141.363642 C63.2142858,171.631499 111.026786,173.104713 141.428572,144.577929 C142.633928,143.506499 143.705357,142.301142 144.910714,141.095784 L61.4732142,141.095784 L61.4732142,141.229713 Z" id="Shape" fill="#000000"></path>
        </g>
    </g>
</svg>