<?xml version="1.0" encoding="UTF-8"?>
<svg width="30px" height="30px" viewBox="0 0 30 30" version="1.1" xmlns="http://www.w3.org/2000/svg" xmlns:xlink="http://www.w3.org/1999/xlink">
    <!-- Generator: Sketch 63 (92445) - https://sketch.com -->
    <title>arbo copy</title>
    <desc>Created with Sketch.</desc>
    <g id="Page-1" stroke="none" stroke-width="1" fill="none" fill-rule="evenodd">
        <g id="arbo-copy" fill-rule="nonzero">
            <circle fill-opacity="0.1" fill="#28A0F0" cx="15" cy="15" r="15"></circle>
            <g id="1" transform="translate(7.000000, 6.000000)">
                <path d="M10.029589,8.2310137 L11.3375342,6.01161644 L14.8630137,11.5025753 L14.8646575,12.5563836 L14.8531507,5.3049863 C14.8448219,5.12767123 14.7506849,4.96547945 14.6005479,4.86980822 L8.25336986,1.2189589 C8.1049863,1.1459726 7.91660274,1.14684932 7.76843836,1.22126027 C7.74838356,1.23134247 7.72964384,1.24219178 7.71167123,1.25413699 L7.68953425,1.26805479 L1.52854795,4.83824658 L1.50465753,4.84920548 C1.47386301,4.86323288 1.44284932,4.88131507 1.41358904,4.90213699 C1.29676712,4.98586301 1.21917808,5.10980822 1.19408219,5.24865753 C1.19035616,5.26969863 1.18750685,5.29117808 1.18630137,5.31287671 L1.19594521,11.2220274 L4.47978082,6.13238356 C4.89315068,5.45753425 5.7939726,5.24 6.63024658,5.25194521 L7.61161644,5.27780822 L1.82893151,14.5515616 L2.51057534,14.944 L8.36252055,5.28723288 L10.9491507,5.27780822 L5.11232877,15.1783014 L7.54465753,16.5774247 L7.83528767,16.7444384 C7.95824658,16.794411 8.10312329,16.7969315 8.22706849,16.7521096 L14.6634521,13.022137 L13.4328767,13.7352329 L10.029589,8.2310137 Z M10.5285479,15.418411 L8.07189041,11.5625205 L9.57161644,9.01764384 L12.7980274,14.1031233 L10.5285479,15.418411 Z" id="Shape" fill="#2D374B"></path>
                <polygon id="Path" fill="#28A0F0" points="8.07178082 11.5626301 10.5285479 15.418411 12.7979178 14.1032329 9.57150685 9.01775342"></polygon>
                <path d="M14.8646575,12.5564932 L14.8630137,11.5026849 L11.3375342,6.01172603 L10.029589,8.23112329 L13.4329863,13.7353425 L14.6635616,13.0222466 C14.7842192,12.924274 14.8573151,12.7803836 14.8649863,12.6252055 L14.8646575,12.5564932 Z" id="Path" fill="#28A0F0"></path>
                <path d="M0.0911780822,13.5502466 L1.82893151,14.5515616 L7.61161644,5.27780822 L6.63024658,5.25194521 C5.79408219,5.24010959 4.89326027,5.45753425 4.47978082,6.13238356 L1.19594521,11.2220274 L0.0911780822,12.9194521 L0.0911780822,13.5502466 L0.0911780822,13.5502466 Z" id="Path" fill="#FFFFFF"></path>
                <polygon id="Path" fill="#FFFFFF" points="10.9491507 5.27780822 8.36252055 5.28723288 2.51057534 14.944 4.55605479 16.1216438 5.11221918 15.1783014"></polygon>
                <path d="M15.9546301,5.26443836 C15.9330411,4.72350685 15.6401096,4.22838356 15.1813699,3.94005479 L8.7510137,0.242082192 C8.29720548,0.0135890411 7.73030137,0.013260274 7.27561644,0.241972603 C7.22191781,0.269041096 1.02224658,3.86465753 1.02224658,3.86465753 C0.936438356,3.90575342 0.853808219,3.95473973 0.776109589,4.01041096 C0.366575342,4.304 0.116931507,4.76010959 0.0911780822,5.26115068 L0.0911780822,12.9195616 L1.19594521,11.222137 L1.18630137,5.31287671 C1.18761644,5.29128767 1.19035616,5.26991781 1.19408219,5.2489863 C1.21906849,5.10991781 1.29676712,4.9859726 1.41358904,4.90213699 C1.44284932,4.88131507 7.74827397,1.23134247 7.76832877,1.22126023 C7.91660274,1.14684932 8.10487671,1.1459726 8.25326027,1.2189589 L14.6004384,4.86980822 C14.7505753,4.96547945 14.8447123,5.12767123 14.8530411,5.3049863 L14.8530411,12.6249863 C14.8453699,12.7801644 14.784,12.9240548 14.6633425,13.0220274 L13.4327671,13.7351233 L12.7978082,14.1031233 L10.5284384,15.4183014 L8.2269589,16.752 C8.1030137,16.7968219 7.9580274,16.7943014 7.83517808,16.7443288 L5.11221918,15.1781918 L4.55594521,16.1215342 L7.00306849,17.530411 C7.08394521,17.5764384 7.15605479,17.6172055 7.21523288,17.6505205 C7.30684932,17.7019178 7.36931507,17.7362192 7.39134247,17.7469589 C7.56526027,17.8314521 7.81545205,17.8805479 8.0409863,17.8805479 C8.24767123,17.8805479 8.44931507,17.8426301 8.64010959,17.7678904 L15.3249315,13.8966575 C15.7086027,13.5993425 15.9343562,13.1510137 15.9546301,12.6654247 L15.9546301,5.26443836 Z" id="Path" fill="#96BEDC"></path>
            </g>
        </g>
    </g>
</svg>