<?xml version="1.0" encoding="UTF-8"?>
<svg width="180px" height="180px" viewBox="0 0 180 180" version="1.1" xmlns="http://www.w3.org/2000/svg" xmlns:xlink="http://www.w3.org/1999/xlink">
    <title>arbitrum</title>
    <g id="Page-1" stroke="none" stroke-width="1" fill="none" fill-rule="evenodd">
        <g id="arbitrum">
            <circle id="Oval" fill="#2E3749" fill-rule="nonzero" cx="90" cy="90" r="90"></circle>
            <path d="M83.9991,25.57395 C87.7125,23.47536 92.2881,23.47536 96.0015,25.57395 L144.0012,52.701 C147.7131,54.7989 150,58.6752 150,62.8704 L150,117.1296 C150,121.3248 147.7131,125.2011 144.0012,127.299 L96.0015,154.4259 C92.2881,156.5247 87.7125,156.5247 83.9991,154.4259 L35.9994,127.299 C32.2875,125.2011 30.0006,121.3248 30.0006,117.1296 L30.0006,62.8704 C30.0006,58.6752 32.2875,54.7989 35.9994,52.701 L83.9991,25.57395 Z" id="Path" fill="#96BEDC" fill-rule="nonzero"></path>
            <path d="M88.1994,32.6103 C89.4372,31.9104 90.963,31.9104 92.2008,32.6103 L139.7007,59.4627 C140.9376,60.162 141.6996,61.4541 141.6996,62.8521 L141.6996,116.5605 C141.6996,117.9588 140.9376,119.2509 139.7007,119.9502 L92.2008,146.8026 C90.963,147.5025 89.4372,147.5025 88.1994,146.8026 L40.6995,119.9502 C39.4626,119.2509 38.7003,117.9588 38.7003,116.5605 L38.7003,62.8521 C38.7003,61.4541 39.4626,60.162 40.6995,59.4627 L88.1994,32.6103 Z" id="Path" fill="#2D374B" fill-rule="nonzero"></path>
            <path d="M43.1724,131.3532 L34.608,126.513 C31.7607,124.9038 30,121.8864 30,118.6158 L62.1756,70.4337 C65.6847,65.1789 71.6661,62.0118 78.0804,62.0118 L87.3495,62.0118 L43.1724,131.3532 Z" id="Path" fill="#FFFFFF" fill-rule="nonzero"></path>
            <polygon id="Path" fill="#FFFFFF" fill-rule="nonzero" points="63.6195 142.9089 48.216 134.2035 93.0996 62.0118 112.5495 62.0118"></polygon>
            <path d="M126.1611,127.6041 L109.089,137.2554 L90.4995,108.7893 L101.8995,90.0978 L126.1611,127.6041 Z M141.6996,108.2949 L141.6996,116.5608 C141.6996,117.9588 140.9376,119.2509 139.7007,119.9502 L131.0265,124.8537 L105.1995,84.2751 L115.0992,68.0304 L141.6996,108.2949 Z" id="Shape" fill="#28A0F0"></path>
        </g>
    </g>
</svg>