<?xml version="1.0" encoding="UTF-8"?>
<svg width="180px" height="180px" viewBox="0 0 180 180" version="1.1" xmlns="http://www.w3.org/2000/svg" xmlns:xlink="http://www.w3.org/1999/xlink">
    <title>aurora</title>
    <g id="Page-1" stroke="none" stroke-width="1" fill="none" fill-rule="evenodd">
        <g id="aurora" fill-rule="nonzero">
            <path d="M90,0 L90,0 C139.6875,0 180,40.3125 180,90 L180,90 C180,139.6875 139.6875,180 90,180 L90,180 C40.3125,180 0,139.6875 0,90 L0,90 C0,40.3125 40.3125,0 90,0 Z" id="Path" fill="#70D44B"></path>
            <path d="M90,36.75 C94.75,36.75 99.0625,39.4375 101.1875,43.6875 L136.3125,114 C139.375,120.1875 136.875,127.6875 130.6875,130.75 C128.9375,131.625 127.0625,132.0625 125.125,132.0625 L54.875,132.0625 C48,132.0625 42.375,126.4375 42.375,119.5625 C42.375,117.625 42.8125,115.6875 43.6875,114 L78.8125,43.6875 C80.9375,39.375 85.25,36.6875 90,36.75 M90,28.125 C82,28.125 74.6875,32.625 71.125,39.8125 L36,110.125 C30.8125,120.5625 35,133.1875 45.4375,138.4375 C48.375,139.875 51.625,140.6875 54.875,140.6875 L125.1875,140.6875 C136.8125,140.6875 146.3125,131.25 146.3125,119.625 C146.3125,116.375 145.5625,113.125 144.0625,110.1875 L108.875,39.8125 C105.3125,32.625 98,28.125 90,28.125 Z" id="Shape" fill="#FFFFFF"></path>
        </g>
    </g>
</svg>