<?xml version="1.0" encoding="UTF-8"?>
<svg width="180px" height="180px" viewBox="0 0 180 180" version="1.1" xmlns="http://www.w3.org/2000/svg" xmlns:xlink="http://www.w3.org/1999/xlink">
    <title>avalanche</title>
    <g id="Page-1" stroke="none" stroke-width="1" fill="none" fill-rule="evenodd">
        <g id="avalanche">
            <rect id="Rectangle" fill="#FFFFFF" fill-rule="nonzero" x="34.334221" y="30.7989348" width="111.211718" height="101.14514"></rect>
            <path d="M180,90 C180,139.706125 139.706125,180 90,180 C40.2943542,180 0,139.706125 0,90 C0,40.2943542 40.2943542,0 90,0 C139.706125,0 180,40.2943542 180,90 Z M64.4965646,125.815446 L47.0300932,125.815446 C43.3598668,125.815446 41.5469241,125.815446 40.441518,125.108389 C39.2475499,124.334221 38.5179627,123.051931 38.4295206,121.636618 C38.3631292,120.332756 39.2697204,118.74032 41.0826631,115.556525 L84.2095606,39.5394807 C86.0446738,36.3114647 86.9731957,34.6974567 88.1449933,34.1005326 C89.405233,33.4593875 90.9087483,33.4593875 92.168988,34.1005326 C93.3407856,34.6974567 94.2694274,36.3114647 96.1044208,39.5394807 L104.970439,55.0161252 L105.015619,55.0950999 C106.997656,58.5581225 108.002756,60.314261 108.441611,62.1574035 C108.927923,64.1694008 108.927923,66.2918908 108.441611,68.3038881 C107.999401,70.1610519 107.004487,71.9298935 104.99249,75.4452863 L82.3389747,115.490253 L82.2803728,115.592836 C80.285273,119.084381 79.2741811,120.854061 77.8728895,122.189081 C76.3473236,123.648735 74.5122104,124.709321 72.500213,125.307324 C70.6650999,125.815446 68.6090013,125.815446 64.4965646,125.815446 Z M108.605193,125.815446 L133.632623,125.815446 C137.3249,125.815446 139.182423,125.815446 140.288549,125.086818 C141.482157,124.31265 142.233555,123.00759 142.300666,121.593475 C142.364181,120.331558 141.477364,118.801198 139.73968,115.802437 C139.67976,115.700333 139.61984,115.596431 139.558722,115.490732 L127.022237,94.0446072 L126.879627,93.8031292 C125.117976,90.8241411 124.228762,89.319787 123.086684,88.7383222 C121.827164,88.0970573 120.34474,88.0970573 119.0851,88.7383222 C117.935353,89.3352463 117.006831,90.9050333 115.171718,94.0666578 L102.679814,115.512903 L102.637031,115.586724 C100.808389,118.743316 99.8944874,120.320772 99.9603995,121.615047 C100.048842,123.03036 100.778429,124.334221 101.972277,125.108389 C103.055752,125.815446 104.912916,125.815446 108.605193,125.815446 Z" id="Shape" fill="#E84142"></path>
        </g>
    </g>
</svg>