<?xml version="1.0" encoding="UTF-8"?>
<svg width="1503px" height="1502px" viewBox="0 0 1503 1502" version="1.1" xmlns="http://www.w3.org/2000/svg" xmlns:xlink="http://www.w3.org/1999/xlink">
    <!-- Generator: Sketch 63 (92445) - https://sketch.com -->
    <title>avalanche</title>
    <desc>Created with Sketch.</desc>
    <g id="avalanche">
        <path d="M1502.5,751 C1502.5,1165.77 1166.27,1502 751.5,1502 C336.734,1502 0.5,1165.77 0.5,751 C0.5,336.234 336.734,0 751.5,0 C1166.27,0 1502.5,336.234 1502.5,751 Z" id="Path" fill="#E84142" opacity="0.1"></path>
        <path d="M538.688,1049.86 L392.94,1049.86 C362.314,1049.86 347.186,1049.86 337.962,1043.96 C327.999,1037.5 321.911,1026.8 321.173,1014.99 C320.619,1004.11 328.184,990.822 343.312,964.255 L703.182,329.935 C718.495,302.999 726.243,289.531 736.021,284.55 C746.537,279.2 759.083,279.2 769.599,284.55 C779.377,289.531 787.126,302.999 802.438,329.935 L876.42,459.079 L876.797,459.738 C893.336,488.635 901.723,503.289 905.385,518.669 C909.443,535.458 909.443,553.169 905.385,569.958 C901.695,585.455 893.393,600.215 876.604,629.549 L687.573,963.702 L687.084,964.558 C670.436,993.693 661.999,1008.46 650.306,1019.6 C637.576,1031.78 622.263,1040.63 605.474,1045.62 C590.161,1049.86 573.004,1049.86 538.688,1049.86 Z M906.75,1049.86 L1115.59,1049.86 C1146.4,1049.86 1161.9,1049.86 1171.13,1043.78 C1181.09,1037.32 1187.36,1026.43 1187.92,1014.63 C1188.45,1004.1 1181.05,991.33 1166.55,966.307 C1166.05,965.455 1165.55,964.588 1165.04,963.706 L1060.43,784.75 L1059.24,782.735 C1044.54,757.877 1037.12,745.324 1027.59,740.472 C1017.08,735.121 1004.71,735.121 994.199,740.472 C984.605,745.453 976.857,758.552 961.544,784.934 L857.306,963.891 L856.949,964.507 C841.69,990.847 834.064,1004.01 834.614,1014.81 C835.352,1026.62 841.44,1037.5 851.402,1043.96 C860.443,1049.86 875.94,1049.86 906.75,1049.86 Z" id="Shape" fill="#E84142"></path>
    </g>
</svg>