<?xml version="1.0" encoding="UTF-8"?>
<svg width="180px" height="180px" viewBox="0 0 180 180" version="1.1" xmlns="http://www.w3.org/2000/svg" xmlns:xlink="http://www.w3.org/1999/xlink">
    <title>bnb</title>
    <g id="Page-1" stroke="none" stroke-width="1" fill="none" fill-rule="evenodd">
        <g id="bnb">
            <path d="M90,0 C139.709135,0 180,40.2908654 180,90 C180,139.709135 139.709135,180 90,180 C40.2908654,180 0,139.709135 0,90 C0,40.2908654 40.2908654,0 90,0 L90,0 Z" id="Path" fill="#F0B90B"></path>
            <path d="M49.4639423,90 L49.5288462,113.798077 L69.75,125.697115 L69.75,139.629808 L37.6947115,120.829327 L37.6947115,83.0408654 L49.4639423,90 L49.4639423,90 Z M49.4639423,66.2019231 L49.4639423,80.0697115 L37.6875,73.1033654 L37.6875,59.2355769 L49.4639423,52.2692308 L61.2980769,59.2355769 L49.4639423,66.2019231 L49.4639423,66.2019231 Z M78.1947115,59.2355769 L89.9711538,52.2692308 L101.805288,59.2355769 L89.9711538,66.2019231 L78.1947115,59.2355769 L78.1947115,59.2355769 Z" id="Shape" fill="#FFFFFF" fill-rule="nonzero"></path>
            <path d="M57.9735577,108.865385 L57.9735577,94.9326923 L69.75,101.899038 L69.75,115.766827 L57.9735577,108.865385 L57.9735577,108.865385 Z M78.1947115,130.6875 L89.9711538,137.653846 L101.805288,130.6875 L101.805288,144.555288 L89.9711538,151.521635 L78.1947115,144.555288 L78.1947115,130.6875 L78.1947115,130.6875 Z M118.694712,59.2355769 L130.471154,52.2692308 L142.305288,59.2355769 L142.305288,73.1033654 L130.471154,80.0697115 L130.471154,66.2019231 L118.694712,59.2355769 L118.694712,59.2355769 L118.694712,59.2355769 Z M130.471154,113.798077 L130.536058,90 L142.3125,83.0336538 L142.3125,120.822115 L110.257212,139.622596 L110.257212,125.689904 L130.471154,113.798077 L130.471154,113.798077 L130.471154,113.798077 Z" id="Shape" fill="#FFFFFF" fill-rule="nonzero"></path>
            <polygon id="Path" fill="#FFFFFF" fill-rule="nonzero" points="122.026442 108.865385 110.25 115.766827 110.25 101.899038 122.026442 94.9326923"></polygon>
            <path d="M122.026442,71.1346154 L122.091346,85.0673077 L101.8125,96.9663462 L101.8125,120.822115 L90.0360577,127.723558 L78.2596154,120.822115 L78.2596154,96.9663462 L57.9807692,85.0673077 L57.9807692,71.1346154 L69.8076923,64.1682692 L89.9639423,76.125 L110.242788,64.1682692 L122.076923,71.1346154 L122.026442,71.1346154 L122.026442,71.1346154 Z M57.9735577,47.34375 L89.9711538,28.4783654 L122.026442,47.34375 L110.25,54.3100962 L89.9711538,42.3533654 L69.75,54.3100962 L57.9735577,47.34375 L57.9735577,47.34375 Z" id="Shape" fill="#FFFFFF" fill-rule="nonzero"></path>
        </g>
    </g>
</svg>