<?xml version="1.0" encoding="UTF-8"?>
<svg width="180px" height="180px" viewBox="0 0 180 180" version="1.1" xmlns="http://www.w3.org/2000/svg" xmlns:xlink="http://www.w3.org/1999/xlink">
    <title>boba</title>
    <defs>
        <linearGradient x1="6.33333333%" y1="92.5496964%" x2="93.3333333%" y2="5.54815257%" id="linearGradient-1">
            <stop stop-color="#46D8D2" offset="0%"></stop>
            <stop stop-color="#CFF336" offset="100%"></stop>
        </linearGradient>
    </defs>
    <g id="Page-1" stroke="none" stroke-width="1" fill="none" fill-rule="evenodd">
        <g id="boba" fill-rule="nonzero">
            <circle id="Oval" fill="url(#linearGradient-1)" cx="90" cy="90" r="90"></circle>
            <path d="M69.6755135,113.680828 C67.407339,113.680828 65.4631894,112.060704 65.067159,109.792529 L52.0701592,33.4666579 C51.8541426,32.2425638 52.1421647,31.0184696 52.8622201,29.9743893 C53.5822755,28.930309 54.6623586,28.2822591 55.8864528,28.0662425 C58.4066466,27.6342093 60.8188322,29.3623422 61.2508654,31.8825361 L74.2478652,108.208407 C74.4638818,109.432502 74.1758597,110.656596 73.4558043,111.700676 C72.7357489,112.708754 71.6556658,113.392806 70.4315716,113.608823 C70.215555,113.680828 69.9275329,113.680828 69.6755135,113.680828 Z" id="Path" fill="#FFFFFF"></path>
            <path d="M91.4211862,78.4701198 C84.0046157,78.4701198 77.092084,80.7022915 71.3316409,84.518585 L72.9157627,93.7712968 C77.8841449,89.4509645 84.3646434,86.8227623 91.457189,86.8227623 C107.046388,86.8227623 119.719363,99.4957371 119.719363,115.084936 C119.719363,130.674135 107.046388,143.34711 91.457189,143.34711 C75.8679898,143.34711 63.195015,130.674135 63.195015,115.084936 C63.195015,112.996776 63.4110316,110.980621 63.8430648,109.036471 L61.322871,94.3113383 C57.254558,100.215793 54.8423725,107.380344 54.8423725,115.084936 C54.8423725,135.246487 71.2596353,151.66375 91.4211862,151.66375 C111.582737,151.66375 128,135.246487 128,115.084936 C128,94.9233854 111.61874,78.4701198 91.4211862,78.4701198 Z" id="Path" fill="#FFFFFF"></path>
            <circle id="Oval" fill="#FFFFFF" cx="89.4410339" cy="131.430194" r="4.96838219"></circle>
            <circle id="Oval" fill="#FFFFFF" cx="104.99423" cy="125.633748" r="4.96838219"></circle>
            <circle id="Oval" fill="#FFFFFF" cx="92.7532887" cy="114.940925" r="4.96838219"></circle>
            <circle id="Oval" fill="#FFFFFF" cx="77.3081006" cy="120.017316" r="4.96838219"></circle>
            <circle id="Oval" fill="#FFFFFF" cx="108.198477" cy="109.828532" r="4.96838219"></circle>
            <circle id="Oval" fill="#FFFFFF" cx="96.1015463" cy="98.4516568" r="4.96838219"></circle>
            <circle id="Oval" fill="#FFFFFF" cx="80.4763443" cy="104.248103" r="4.96838219"></circle>
        </g>
    </g>
</svg>