<?xml version="1.0" encoding="UTF-8"?>
<svg width="30px" height="30px" viewBox="0 0 30 30" version="1.1" xmlns="http://www.w3.org/2000/svg" xmlns:xlink="http://www.w3.org/1999/xlink">
    <title>Boba Token</title>
    <g id="Page-1" stroke="none" stroke-width="1" fill="none" fill-rule="evenodd">
        <g id="Boba-Token" fill-rule="nonzero">
            <circle fill-opacity="0.1" fill="#CCFF00" cx="15" cy="15" r="15"></circle>
            <g id="Group" transform="translate(9.000000, 5.000000)">
                <path d="M3.16234942,15 C2.75348279,15 2.40821764,14.7146852 2.3394242,14.3203168 L0.0121293822,0.952367928 C-0.0255123076,0.736796755 0.0251092752,0.521225582 0.154908206,0.343696381 C0.284707136,0.16616718 0.476809553,0.0482370677 0.696169745,0.0114631618 C1.150466,-0.0633527159 1.58269644,0.235910795 1.6605758,0.679733797 L3.98787062,14.0476826 C4.02551231,14.2632538 3.97489072,14.478825 3.84509179,14.6563542 C3.71529286,14.8338834 3.52319045,14.9518135 3.30383026,14.9885874 C3.25840063,14.9961958 3.21037503,15 3.16234942,15 Z" id="Path" fill="#CCFF00"></path>
                <path d="M7,9 C5.78241932,9 4.65036626,9.36464417 3.70362304,9.99059685 L3.96139378,11.5061863 C4.77509404,10.79709 5.83824985,10.3659309 7,10.3659309 C9.5551376,10.3659309 11.6339339,12.4445214 11.6339339,14.9994061 C11.6339339,17.5542908 9.5551376,19.6328813 7,19.6328813 C4.4448624,19.6328813 2.36606613,17.5542908 2.36606613,14.9994061 C2.36606613,14.6585173 2.4040784,14.3271306 2.47416353,14.0076215 L2.06315581,11.5952687 C1.39318947,12.563298 1,13.7368108 1,15.0005939 C1,18.3085222 3.69174421,21 7,21 C10.3082558,21 13,18.3085222 13,15.0005939 C13,11.6926655 10.3094437,9 7,9 Z" id="Path" fill="#CCFF00"></path>
                <ellipse id="Oval" fill="#1CD8D2" cx="5.93352243" cy="18.1875843" rx="1" ry="1"></ellipse>
                <ellipse id="Oval" fill="#1CD8D2" cx="8.60024818" cy="17.2417341" rx="1" ry="1"></ellipse>
                <ellipse id="Oval" fill="#1CD8D2" cx="6.5043432" cy="15.5" rx="1" ry="1"></ellipse>
                <ellipse id="Oval" fill="#1CD8D2" cx="3.85374934" cy="16.3301282" rx="1" ry="1"></ellipse>
                <ellipse id="Oval" fill="#1CD8D2" cx="9.14625066" cy="14.6675101" rx="1" ry="1"></ellipse>
                <ellipse id="Oval" fill="#1CD8D2" cx="7.07392306" cy="12.8124157" rx="1" ry="1"></ellipse>
                <ellipse id="Oval" fill="#1CD8D2" cx="4.3985109" cy="13.757085" rx="1" ry="1"></ellipse>
            </g>
        </g>
    </g>
</svg>