<?xml version="1.0" encoding="UTF-8"?>
<svg width="180px" height="180px" viewBox="0 0 180 180" version="1.1" xmlns="http://www.w3.org/2000/svg" xmlns:xlink="http://www.w3.org/1999/xlink">
    <title>cosmos</title>
    <g id="Page-1" stroke="none" stroke-width="1" fill="none" fill-rule="evenodd">
        <g id="cosmos" fill-rule="nonzero">
            <path d="M90,0 C139.705597,0 180,40.2944026 180,90 C180,139.705597 139.705597,180 90,180 C40.2944026,180 0,139.705597 0,90 C0,40.2944026 40.2944026,0 90,0 Z" id="Path" fill="#000000"></path>
            <g id="Group-2" transform="translate(35.000000, 27.000000)">
                <path d="M54.6492697,21.4685689 C77.5564599,21.4685689 96.1268518,40.0384657 96.1268518,62.946106 C96.1268518,85.8532963 77.5564599,104.423238 54.6492697,104.423238 C31.7420794,104.423238 13.1719126,85.8532963 13.1719126,62.946106 C13.1719126,40.0384657 31.7420794,21.4685689 54.6492697,21.4685689 Z" id="Path" fill="#171717"></path>
                <path d="M55.9161386,3.34927952 C55.3452822,2.82371342 55.0503999,2.81376394 55.0008778,2.81376394 C54.9513553,2.81376394 54.656473,2.82371342 54.0856166,3.34927952 C53.4994534,3.88880189 52.7984883,4.81968503 52.0434991,6.25596524 C50.5362221,9.12276302 49.0937743,13.4559596 47.8507656,19.0472913 C46.4524378,25.3348607 45.3476411,33.020128 44.6507285,41.6231776 C48.0168903,43.2520093 51.4784954,45.0226546 54.9999772,46.9238587 C58.5219091,45.0222046 61.9839648,43.2511088 65.3510272,41.622277 C64.6541141,33.0196328 63.5493179,25.3346806 62.1509896,19.0472913 C60.9079814,13.4559596 59.4655331,9.12276302 57.958256,6.25596524 C57.2032669,4.81968503 56.5027523,3.88880189 55.9161386,3.34927952 Z M52.0538538,48.5378338 C49.467892,47.1638167 46.9201976,45.8640826 44.4256271,44.6426838 C44.2365422,47.4123283 44.0893261,50.2670604 43.9871301,53.1924745 C45.3062229,52.4023698 46.645124,51.615416 48.0015836,50.8325147 C49.3580426,50.0496129 50.7095501,49.2847191 52.0538538,48.5378338 Z M41.9351086,40.3301967 C43.955166,16.7392394 49.0433516,0 55.0008778,0 C60.958404,0 66.0465897,16.7388342 68.0666471,40.3292966 C89.5192337,30.2828984 106.568392,26.3174271 109.546931,31.4735032 C112.525468,36.6295344 100.564496,49.4026724 81.1319659,62.946106 C100.564496,76.4899903 112.525468,89.263128 109.546931,94.4192943 C106.568392,99.5750101 89.5192337,95.6096291 68.0666471,85.5633661 C66.0465897,109.153513 60.958404,125.892482 55.0008778,125.892482 C49.0433516,125.892482 43.955166,109.153513 41.9351086,85.5624655 C20.4818463,95.6096291 3.4319673,99.5754606 0.453114181,94.4192943 C-2.52560387,89.263128 9.43554922,76.4899903 28.8679885,62.946106 C9.43554922,49.4026724 -2.52560387,36.6295344 0.453114181,31.4735032 C3.4319673,26.317292 20.4818463,30.2831235 41.9351086,40.3301967 Z M31.3472524,61.2416402 C24.2402246,56.3366873 18.1322859,51.5375312 13.3823372,47.1831754 C9.15858477,43.3114361 6.12476194,39.8962017 4.3940045,37.158522 C3.52686996,35.7868458 3.07072504,34.7150043 2.89640672,33.9381804 C2.72663547,33.1817506 2.86538782,32.9227943 2.88947364,32.8810605 L2.88951864,32.8810155 C2.91378453,32.8390116 3.0694645,32.5888793 3.8108125,32.3572952 C4.57178936,32.1195434 5.72925932,31.978405 7.35174314,32.0430541 C10.5901378,32.172082 15.0667688,33.0903145 20.5338447,34.809997 C26.6817164,36.7438858 33.8940462,39.6301322 41.6974017,43.3285435 C41.4259296,47.055768 41.2296415,50.9365114 41.1166407,54.934307 C37.7081596,57.0317992 34.4423926,59.1423473 31.3472524,61.2416402 Z M31.3472524,64.6510219 C24.2402246,69.5559754 18.1322859,74.3551314 13.3823372,78.7094872 C9.15858477,82.5812266 6.12476194,85.9960104 4.3940045,88.7341403 C3.52686996,90.1059066 3.07072504,91.177388 2.89640672,91.9544367 C2.72663547,92.7107765 2.86538782,92.9696428 2.88947364,93.011512 C2.91369452,93.0533807 3.06919437,93.3036929 3.8108125,93.5350971 C4.57178936,93.7732539 5.72925932,93.9141673 7.35174314,93.849338 C10.5901378,93.7205805 15.0667688,92.8021678 20.5338447,91.0823953 C26.6817164,89.1487766 33.8940462,86.2620799 41.6974017,82.5641186 C41.4259296,78.836444 41.2296415,74.9557011 41.1166407,70.9583551 C37.7081596,68.8608629 34.4423926,66.7503148 31.3472524,64.6510219 Z M41.0423573,67.6016473 C38.5581415,66.0502503 36.1572131,64.4948018 33.8512769,62.946106 C36.1572131,61.3978604 38.5581415,59.8424118 41.0423573,58.2910148 C41.017146,59.8280052 41.0045406,61.3807529 41.0045406,62.946106 C41.0045406,64.5119092 41.017146,66.0642069 41.0423573,67.6016473 Z M43.8907867,69.3560853 C43.8426153,67.2500397 43.8183045,65.1115789 43.8183045,62.946106 C43.8183045,60.7806332 43.8426153,58.642623 43.8907867,56.5365768 C45.6911454,55.4421353 47.5315725,54.3521954 49.4080153,53.2694592 C51.2849085,52.186723 53.1505466,51.1382017 54.9999772,50.1265975 C56.8494079,51.1382017 58.7150459,52.186723 60.5919392,53.2694592 C62.4688325,54.3526459 64.3101593,55.4430354 66.1114185,56.5374774 C66.1591399,58.643073 66.1834511,60.7810837 66.1834511,62.946106 C66.1834511,65.1115789 66.1591399,67.2495891 66.1114185,69.3551852 C64.3101593,70.4496267 62.4688325,71.5400167 60.5919392,72.6227529 C58.7150459,73.7059396 56.8494079,74.7540104 54.9999772,75.7660651 C53.1505466,74.7540104 51.2849085,73.7059396 49.4080153,72.6227529 C47.5315725,71.5404668 45.6911454,70.4500768 43.8907867,69.3560853 Z M43.9871301,72.7001876 C44.0893261,75.6251517 44.2365422,78.4803343 44.4256271,81.2499784 C46.9201976,80.0285795 49.467892,78.7288459 52.0538538,77.3548288 C50.7095501,76.6079431 49.3580426,75.8430498 48.0015836,75.0601479 C46.645124,74.2772461 45.3062229,73.4902928 43.9871301,72.7001876 Z M54.9999772,78.9683534 C51.4784954,80.8700075 48.0168903,82.6406533 44.6507285,84.2694846 C45.3476411,92.8723993 46.4524378,100.557801 47.8507656,106.845326 C49.0937743,112.436838 50.5362221,116.770034 52.0434991,119.636472 C52.7984883,121.073067 53.4994534,122.003635 54.0856166,122.543428 C54.656473,123.068814 54.9513553,123.078718 55.0008778,123.078718 C55.0503999,123.078718 55.3452822,123.068814 55.9161386,122.543428 C56.5027523,122.003635 57.2032669,121.073067 57.958256,119.636472 C59.4655331,116.770034 60.9079814,112.436838 62.1509896,106.845326 C63.5493179,100.557801 64.6541141,92.8728493 65.3510272,84.2703852 C61.9839648,82.6411033 58.5219091,80.870458 54.9999772,78.9683534 Z M68.3043539,82.5650192 C76.1072589,86.26253 83.3185981,89.1487766 89.4661097,91.0823953 C94.9333656,92.8021678 99.4097267,93.7205805 102.648482,93.849338 C104.27056,93.9141673 105.42803,93.7732539 106.189322,93.5350971 C106.930805,93.3036929 107.086575,93.0533807 107.110436,93.011512 C107.134747,92.9700933 107.273409,92.7112271 107.103683,91.9544367 C106.929455,91.177388 106.47295,90.1059066 105.60586,88.7341403 C103.875283,85.9960104 100.84137,82.5812266 96.6175722,78.7094872 C91.8679387,74.3551314 85.7600451,69.5559754 78.6527021,64.6510219 C75.5580119,66.7498647 72.2931455,68.8604129 68.8851145,70.9570045 C68.7721137,74.9552506 68.5758256,78.8368946 68.3043539,82.5650192 Z M78.6527021,61.2416402 C85.759595,56.3366873 91.8679387,51.5375312 96.6175722,47.1831754 C100.84137,43.3114361 103.875283,39.8962017 105.60586,37.158522 C106.47295,35.7868458 106.929455,34.7150043 107.103683,33.9381804 C107.273409,33.1815255 107.134747,32.9226142 107.110436,32.8810155 C107.086575,32.8391917 106.930805,32.5889693 106.189322,32.3572952 C105.42803,32.1195434 104.27056,31.978405 102.648482,32.0430541 C99.4097267,32.172082 94.9333656,33.0903145 89.4661097,34.809997 C83.3185981,36.7434356 76.1072589,39.6296821 68.3043539,43.3276434 C68.5758256,47.055768 68.7721137,50.9369615 68.8851145,54.9356577 C72.2931455,57.0322497 75.5584625,59.1427974 78.6527021,61.2416402 Z M68.9598484,58.2923654 C71.4431636,59.8433124 73.8431919,61.3978604 76.1486776,62.946106 C73.8431919,64.4943517 71.4431636,66.0493502 68.9598484,67.6002967 C68.9846092,66.0637563 68.9972151,64.5114592 68.9972151,62.946106 C68.9972151,61.3807529 68.9846092,59.8289058 68.9598484,58.2923654 Z M66.0150751,53.1933751 C65.9128796,50.2675109 65.7652129,47.4123283 65.5761281,44.6417837 C63.0811076,45.863182 60.5329626,47.1633662 57.9461007,48.5378338 C59.2904044,49.2847191 60.6419118,50.0496129 61.9983709,50.8325147 C63.3557306,51.615416 64.6950822,52.4028199 66.0150751,53.1933751 Z M65.5761281,81.2504284 C63.0811076,80.0290301 60.5329626,78.7292959 57.9461007,77.3548288 C59.2904044,76.6079431 60.6419118,75.8430498 61.9983709,75.0601479 C63.3557306,74.276796 64.6950822,73.4893922 66.0150751,72.6992875 C65.9128796,75.6251517 65.7652129,78.4803343 65.5761281,81.2504284 Z" id="Shape" fill="#E1E1E1"></path>
                <path d="M14.7685098,45.3179875 C17.213153,45.3179875 19.1949432,47.3011282 19.1949432,49.7466267 C19.1949432,52.1925757 17.213153,54.1752659 14.7685098,54.1752659 C12.3239117,54.1752659 10.3421215,52.1925757 10.3421215,49.7466267 C10.3421215,47.3011282 12.3239117,45.3179875 14.7685098,45.3179875 Z" id="Path" fill="#FFFFFF"></path>
                <path d="M85.1180566,30.1530151 C87.5635551,30.1530151 89.5462458,32.1357507 89.5462458,34.5815644 C89.5462458,37.0275132 87.5635551,39.0102037 85.1180566,39.0102037 C82.6721081,39.0102037 80.6894174,37.0275132 80.6894174,34.5815644 C80.6894174,32.1357507 82.6721081,30.1530151 85.1180566,30.1530151 Z" id="Path" fill="#FFFFFF"></path>
                <path d="M46.0814709,99.6623494 C48.5269694,99.6623494 50.5096601,101.64414 50.5096601,104.088738 C50.5096601,106.533336 48.5269694,108.515126 46.0814709,108.515126 C43.6355224,108.515126 41.6528317,106.533336 41.6528317,104.088738 C41.6528317,101.64414 43.6355224,99.6623494 46.0814709,99.6623494 Z" id="Path" fill="#FFFFFF"></path>
                <path d="M54.7546171,55.4155733 C58.8955773,55.4155733 62.2522851,58.7722811 62.2522851,62.9132413 C62.2522851,67.0542016 58.8955773,70.4109093 54.7546171,70.4109093 C50.6136568,70.4109093 47.256949,67.0542016 47.256949,62.9132413 C47.256949,58.7722811 50.6136568,55.4155733 54.7546171,55.4155733 Z" id="Path" fill="#FFFFFF"></path>
            </g>
        </g>
    </g>
</svg>