<?xml version="1.0" encoding="UTF-8"?>
<svg width="30px" height="30px" viewBox="0 0 30 30" version="1.1" xmlns="http://www.w3.org/2000/svg" xmlns:xlink="http://www.w3.org/1999/xlink">
    <title>cosmos-logo-horizontal-complex-dark</title>
    <g id="Page-1" stroke="none" stroke-width="1" fill="none" fill-rule="evenodd">
        <g id="cosmos-logo-horizontal-complex-dark">
            <path d="M15,0 C23.2842662,0 30,6.71573376 30,15 C30,23.2842662 23.2842662,30 15,30 C6.71573376,30 0,23.2842662 0,15 C0,6.71573376 6.71573376,0 15,0 Z" id="Path" fill="#171717" opacity="0.267043341"></path>
            <path d="M14.971154,6.34610869 C19.7505149,6.34610869 23.6250453,10.2205358 23.6250453,14.9999906 C23.6250453,19.7793515 19.7505149,23.653788 14.971154,23.653788 C10.1917931,23.653788 6.31730966,19.7793515 6.31730966,14.9999906 C6.31730966,10.2205358 10.1917931,6.34610869 14.971154,6.34610869 Z" id="Path" fill="#000000"></path>
            <path d="M15.2354738,2.56569641 C15.1163702,2.45604219 15.0548459,2.45396633 15.0445136,2.45396633 C15.0341812,2.45396633 14.9726569,2.45604219 14.8535533,2.56569641 C14.7312561,2.67826247 14.5850066,2.87248212 14.4274855,3.17214792 C14.1130069,3.7702772 13.8120543,4.67435622 13.5527127,5.84093282 C13.2609653,7.1527726 13.0304603,8.75622836 12.8850563,10.5511704 C13.587373,10.8910102 14.309603,11.260438 15.0443257,11.6571056 C15.7791423,11.2603441 16.5014663,10.8908223 17.2039709,10.5509825 C17.0585668,8.75612504 16.8280619,7.15273503 16.5363144,5.84093282 C16.2769729,4.67435622 15.9760202,3.7702772 15.6615416,3.17214792 C15.5040205,2.87248212 15.357865,2.67826247 15.2354738,2.56569641 Z M14.4296459,11.9938457 C13.8901103,11.7071705 13.3585588,11.4359937 12.8380911,11.1811608 C12.7986404,11.75902 12.7679252,12.3546319 12.746603,12.9649909 C13.0218188,12.8001433 13.3011674,12.6359531 13.5841794,12.4726084 C13.8671913,12.3092636 14.1491701,12.149676 14.4296459,11.9938457 Z M12.3184688,10.2814026 C12.739934,5.35938041 13.8015341,1.86690204 15.0445136,1.86690204 C16.2874931,1.86690204 17.3490932,5.35929587 17.7705584,10.2812148 C22.2464305,8.18513221 25.8035705,7.35777546 26.4250133,8.43354025 C27.046456,9.50929565 24.5509162,12.1742858 20.4965092,14.9999906 C24.5509162,17.8257894 27.046456,20.4907795 26.4250133,21.5665631 C25.8035705,22.6422527 22.2464305,21.8149148 17.7705584,19.7188604 C17.3490932,24.6407135 16.2874931,28.1331355 15.0445136,28.1331355 C13.8015341,28.1331355 12.739934,24.6407135 12.3184688,19.7186725 C7.84245574,21.8149148 4.28516546,22.6423467 3.66365693,21.5665631 C3.04217658,20.4907795 5.53775403,17.8257894 9.59214217,14.9999906 C5.53775403,12.1742858 3.04217658,9.50929565 3.66365693,8.43354025 C4.28516546,7.35774728 7.84245574,8.18517918 12.3184688,10.2814026 Z M10.1094163,14.6443705 C8.62660456,13.6210001 7.35224296,12.6197032 6.36121268,11.7112095 C5.47996811,10.903409 4.84699069,10.1908538 4.4858851,9.61966374 C4.30496597,9.33347694 4.2097958,9.10984771 4.17342599,8.947771 C4.13800488,8.78994933 4.1669542,8.73592063 4.17197947,8.7272133 L4.17198886,8.7272039 C4.1770517,8.71844021 4.2095328,8.66625254 4.3642078,8.6179348 C4.52297817,8.56833021 4.76447294,8.53888307 5.1029883,8.55237146 C5.77864764,8.57929188 6.71265285,8.77087209 7.85330469,9.129667 C9.13599791,9.53315395 10.6407799,10.135341 12.2688736,10.9069783 C12.2122336,11.6846272 12.17128,12.4943063 12.1477035,13.3284072 C11.4365573,13.7660284 10.755187,14.2063736 10.1094163,14.6443705 Z M10.1094163,15.3557046 C8.62660456,16.3790751 7.35224296,17.380372 6.36121268,18.2888657 C5.47996811,19.0966662 4.84699069,19.8091274 4.4858851,20.3804114 C4.30496597,20.666617 4.2097958,20.8901711 4.17342599,21.0522947 C4.13800488,21.2100976 4.1669542,21.2641075 4.17197947,21.2728431 C4.17703292,21.2815786 4.20947644,21.3338038 4.3642078,21.382084 C4.52297817,21.4317731 4.76447294,21.4611733 5.1029883,21.4476473 C5.77864764,21.4207833 6.71265285,21.2291655 7.85330469,20.8703518 C9.13599791,20.4669212 10.6407799,19.8646402 12.2688736,19.0930968 C12.2122336,18.315354 12.17128,17.505675 12.1477035,16.6716679 C11.4365573,16.2340467 10.755187,15.7937015 10.1094163,15.3557046 Z M12.132205,15.9713237 C11.6138977,15.6476399 11.1129675,15.3231108 10.6318565,14.9999906 C11.1129675,14.6769643 11.6138977,14.3524352 12.132205,14.0287514 C12.1269449,14.3494294 12.1243149,14.673395 12.1243149,14.9999906 C12.1243149,15.3266801 12.1269449,15.6505518 12.132205,15.9713237 Z M12.7265019,16.33737 C12.7164514,15.8979642 12.7113792,15.4517953 12.7113792,14.9999906 C12.7113792,14.5481859 12.7164514,14.102111 12.7265019,13.6627051 C13.1021291,13.4343606 13.4861162,13.2069553 13.8776176,12.981053 C14.269213,12.7551507 14.6584601,12.536387 15.0443257,12.3253257 C15.4301913,12.536387 15.8194384,12.7551507 16.2110338,12.981053 C16.6026292,13.2070493 16.986804,13.4345484 17.3626191,13.662893 C17.3725757,14.1022049 17.377648,14.5482799 17.377648,14.9999906 C17.377648,15.4517953 17.3725757,15.8978702 17.3626191,16.3371822 C16.986804,16.5655267 16.6026292,16.7930259 16.2110338,17.0189282 C15.8194384,17.2449245 15.4301913,17.4635942 15.0443257,17.6747495 C14.6584601,17.4635942 14.269213,17.2449245 13.8776176,17.0189282 C13.4861162,16.7931198 13.1021291,16.5656206 12.7265019,16.33737 Z M12.746603,17.0350842 C12.7679252,17.6453493 12.7986404,18.2410552 12.8380911,18.8189143 C13.3585588,18.5640814 13.8901103,18.2929047 14.4296459,18.0062295 C14.1491701,17.8503991 13.8671913,17.6908116 13.5841794,17.5274668 C13.3011674,17.364122 13.0218188,17.1999319 12.746603,17.0350842 Z M15.0443257,18.3428756 C14.309603,18.7396371 13.587373,19.109065 12.8850563,19.4489047 C13.0304603,21.2438186 13.2609653,22.8473025 13.5527127,24.1591329 C13.8120543,25.3257471 14.1130069,26.2298261 14.4274855,26.8278803 C14.5850066,27.1276118 14.7312561,27.3217657 14.8535533,27.4343881 C14.9726569,27.5440048 15.0341812,27.5460712 15.0445136,27.5460712 C15.0548459,27.5460712 15.1163702,27.5440048 15.2354738,27.4343881 C15.357865,27.3217657 15.5040205,27.1276118 15.6615416,26.8278803 C15.9760202,26.2298261 16.2769729,25.3257471 16.5363144,24.1591329 C16.8280619,22.8473025 17.0585668,21.2439125 17.2039709,19.4490926 C16.5014663,19.1091589 15.7791423,18.7397311 15.0443257,18.3428756 Z M17.8201536,19.0932847 C19.4481533,19.8647341 20.9527286,20.4669212 22.2353467,20.8703518 C23.3760361,21.2291655 24.309985,21.4207833 24.9857195,21.4476473 C25.3241503,21.4611733 25.5656451,21.4317731 25.7244812,21.382084 C25.8791844,21.3338038 25.9116842,21.2815786 25.9166625,21.2728431 C25.9217348,21.2642015 25.9506653,21.2101916 25.9152536,21.0522947 C25.8789026,20.8901711 25.7836573,20.666617 25.6027475,20.3804114 C25.2416795,19.8091274 24.6086833,19.0966662 23.7274293,18.2888657 C22.7364648,17.380372 21.4621126,16.3790751 19.9792351,15.3557046 C19.3335583,15.7936076 18.6523759,16.2339528 17.9413236,16.6713861 C17.9177471,17.505581 17.8767935,18.315448 17.8201536,19.0932847 Z M19.9792351,14.6443705 C21.4620187,13.6210001 22.7364648,12.6197032 23.7274293,11.7112095 C24.6086833,10.903409 25.2416795,10.1908538 25.6027475,9.61966374 C25.7836573,9.33347694 25.8789026,9.10984771 25.9152536,8.947771 C25.9506653,8.78990237 25.9217348,8.73588306 25.9166625,8.7272039 C25.9116842,8.71847778 25.8791844,8.66627132 25.7244812,8.6179348 C25.5656451,8.56833021 25.3241503,8.53888307 24.9857195,8.55237146 C24.309985,8.57929188 23.3760361,8.77087209 22.2353467,9.129667 C20.9527286,9.53306002 19.4481533,10.1352471 17.8201536,10.9067905 C17.8767935,11.6846272 17.9177471,12.4944002 17.9413236,13.328689 C18.6523759,13.7661224 19.3336523,14.2064675 19.9792351,14.6443705 Z M17.9569161,14.0290332 C18.4750355,14.3526231 18.9757779,14.6769643 19.4567949,14.9999906 C18.9757779,15.3230169 18.4750355,15.6474521 17.9569161,15.9710419 C17.9620822,15.6504578 17.9647123,15.3265862 17.9647123,14.9999906 C17.9647123,14.673395 17.9620822,14.3496173 17.9569161,14.0290332 Z M17.342518,12.9651788 C17.3211959,12.3547259 17.2903867,11.75902 17.250936,11.180973 C16.7303744,11.4358058 16.1987289,11.7070765 15.6590055,11.9938457 C15.9394813,12.149676 16.2214601,12.3092636 16.504472,12.4726084 C16.7876718,12.6359531 17.0671144,12.8002372 17.342518,12.9651788 Z M17.250936,18.8190082 C16.7303744,18.5641754 16.1987289,18.2929986 15.6590055,18.0062295 C15.9394813,17.8503991 16.2214601,17.6908116 16.504472,17.5274668 C16.7876718,17.3640281 17.0671144,17.199744 17.342518,17.0348964 C17.3211959,17.6453493 17.2903867,18.2410552 17.250936,18.8190082 Z" id="Shape" fill="#FFFFFF" opacity="0.67"></path>
            <path d="M6.65042403,11.3220563 C7.16047489,11.3220563 7.57395601,11.7358192 7.57395601,12.2460485 C7.57395601,12.7563718 7.16047489,13.1700407 6.65042403,13.1700407 C6.14038257,13.1700407 5.72690145,12.7563718 5.72690145,12.2460485 C5.72690145,11.7358192 6.14038257,11.3220563 6.65042403,11.3220563 Z" id="Path" fill="#FFFFFF"></path>
            <path d="M21.328168,8.15803333 C21.8383973,8.15803333 22.2520663,8.5717117 22.2520663,9.08200678 C22.2520663,9.59233003 21.8383973,10.005999 21.328168,10.005999 C20.8178448,10.005999 20.4041758,9.59233003 20.4041758,9.08200678 C20.4041758,8.5717117 20.8178448,8.15803333 21.328168,8.15803333 Z" id="Path" fill="#FFFFFF"></path>
            <path d="M13.1835667,22.6604752 C13.693796,22.6604752 14.107465,23.0739563 14.107465,23.5839978 C14.107465,24.0940392 13.693796,24.5075204 13.1835667,24.5075204 C12.6732435,24.5075204 12.2595745,24.0940392 12.2595745,23.5839978 C12.2595745,23.0739563 12.6732435,22.6604752 13.1835667,22.6604752 Z" id="Path" fill="#FFFFFF"></path>
            <path d="M14.9931337,13.4288187 C15.8571045,13.4288187 16.5574487,14.1291629 16.5574487,14.9931337 C16.5574487,15.8571045 15.8571045,16.5574487 14.9931337,16.5574487 C14.1291629,16.5574487 13.4288187,15.8571045 13.4288187,14.9931337 C13.4288187,14.1291629 14.1291629,13.4288187 14.9931337,13.4288187 Z" id="Path" fill="#FFFFFF"></path>
        </g>
    </g>
</svg>