<?xml version="1.0" encoding="UTF-8"?>
<svg width="30px" height="30px" viewBox="0 0 30 30" version="1.1" xmlns="http://www.w3.org/2000/svg" xmlns:xlink="http://www.w3.org/1999/xlink">
    <title>6</title>
    <g stroke="none" stroke-width="1" fill="none" fill-rule="evenodd">
        <g id="6">
            <circle fill-opacity="0.1" fill="#FFFFFF" cx="15" cy="15" r="15"></circle>
            <g id="logo-polkadot" transform="translate(8.000000, 6.000000)" fill-rule="nonzero">
                <path d="M6.78372781,0 C3.04299345,0.0140781675 0.0140016945,3.05962345 0,6.82080107 C0,7.57416552 0.120624341,8.32261708 0.357486328,9.03734746 C0.534049556,9.52298306 1.05677252,9.78577289 1.54910727,9.63641405 C2.02688128,9.45386174 2.28056298,8.92872156 2.12789458,8.43828087 C1.9264031,7.88246195 1.83671492,7.2919394 1.86403566,6.70098776 C1.9424925,4.04197792 4.10842861,1.92703776 6.75414917,1.92600964 C9.39986976,1.92498151 11.5674311,4.03823769 11.6479321,6.69718572 C11.7284331,9.35613377 9.69272651,11.5980407 7.05184252,11.7588214 C7.05184252,11.7588214 6.10280156,11.8187281 5.62615319,11.8786347 C5.45137057,11.9034362 5.27804898,11.9377185 5.10694692,11.9813319 C5.08153218,12.0004971 5.04596904,11.9979559 5.02350536,11.9753694 C5.00104169,11.952783 4.99851429,11.9170255 5.01757536,11.8914719 L5.16652796,11.082732 L6.06024369,7.01335819 C6.16718719,6.50880379 5.84708309,6.012613 5.34527111,5.90508501 C4.84345913,5.79755702 4.34996529,6.11941051 4.24302174,6.62396491 C4.24302174,6.62396491 2.11512721,16.5599123 2.11512721,16.6497722 C2.05590744,16.8920598 2.09854799,17.1481755 2.23301674,17.3578626 C2.3674855,17.5675497 2.58191063,17.7122955 2.82584398,17.7580454 C3.06734235,17.8162204 3.32200301,17.772231 3.53034449,17.6363521 C3.73868594,17.5004731 3.88246298,17.284604 3.92809335,17.0391655 C3.95788387,16.9193522 4.2259986,15.6014057 4.2259986,15.6014057 C4.42827885,14.6078084 5.22485204,13.8461598 6.22196367,13.6929507 C6.42624155,13.6629974 7.29016673,13.6030907 7.29016673,13.6030907 C10.8749482,13.2699561 13.5756269,10.1777141 13.4409596,6.56051287 C13.3062923,2.94331162 10.3832473,0.0627338119 6.78372781,0 Z" fill="#FFFFFF"></path>
                <path d="M11.0626145,15.6381182 C10.7797105,15.5753799 10.4856149,15.6385857 10.2454362,15.8137427 C10.0052575,15.9888998 9.83880902,16.2615587 9.78294006,16.5713567 C9.7221251,16.881191 9.77847432,17.2047603 9.93916498,17.4684337 C10.0998556,17.732107 10.3512194,17.9134565 10.6360564,17.9712145 C10.9191234,18.0416507 11.2162137,17.9815365 11.4575195,17.804997 C11.6988253,17.6284576 11.8630727,17.3510568 11.9116684,17.0379759 C12.0110351,16.3992892 11.6391834,15.7862073 11.0626145,15.6381182 L11.0626145,15.6381182 Z" fill="#E7137D"></path>
            </g>
        </g>
    </g>
</svg>