<svg width="30" height="30" xmlns="http://www.w3.org/2000/svg">
    <g>
     <title>Layer 1</title>
     <g  fill="none" fill-rule="evenodd">
      <g id="2" fill="#1969FF">
       <circle  fill-opacity="0.1" cx="15" cy="15" r="15"/>
       <g stroke="null"  fill-rule="nonzero">
        <path stroke="null" d="m14.22586,6.18957c0.43438,-0.22945 1.09531,-0.22945 1.52968,0l0,0l4.43238,2.34138c0.26161,0.13819 0.40528,0.3441 0.43103,0.55669l0.00422,0l0,11.76892c-0.00576,0.23191 -0.15078,0.46224 -0.43525,0.6125l0,0l-4.43238,2.34138c-0.43438,0.22945 -1.09531,0.22945 -1.52968,0l0,0l-4.43238,-2.34138c-0.28326,-0.14963 -0.41921,-0.38158 -0.42594,-0.6125c-0.00068,-0.02367 -0.00075,-0.0432 -0.00002,-0.05929l0.00002,-11.63037c-0.00067,-0.01635 -0.00067,-0.03264 -0.00002,-0.04888l0.00002,-0.03036l0.00199,0c0.01969,-0.21492 0.15684,-0.41558 0.42396,-0.55669l0,0l4.43238,-2.34138l-0.00001,-0.00001zm5.69964,9.46384l-4.16995,2.20277c-0.43438,0.22945 -1.09531,0.22945 -1.52968,0l0,0l-4.16068,-2.19786l0,5.17507l4.16068,2.18621c0.24587,0.13137 0.50152,0.25938 0.75049,0.26497l0.01436,0.00019c0.24846,0.00083 0.48968,-0.12535 0.73429,-0.2448l0,0l4.2005,-2.22541l0,-5.16113l-0.00001,0l0,-0.00001l0,0.00001zm-11.27888,4.94728c0,0.45092 0.0524,0.74729 0.15644,0.95608c0.08623,0.17306 0.21562,0.30531 0.45187,0.46624l0.01349,0.00914c0.05185,0.03496 0.10896,0.07159 0.17848,0.11463l0.08199,0.05022l0.25176,0.15196l-0.36109,0.59704l-0.28178,-0.17021l-0.04736,-0.02907c-0.08148,-0.05029 -0.149,-0.09351 -0.21199,-0.13599c-0.67331,-0.454 -0.92442,-0.94897 -0.92938,-1.97865l-0.00007,-0.03137l0.69766,0l0.00002,-0.00001l-0.00002,0zm5.99525,-8.10169c-0.03231,0.01109 -0.06259,0.02392 -0.09019,0.0385l0,0l-4.43238,2.34138c-0.00465,0.00245 -0.00908,0.00489 -0.01331,0.00729l0,0l-0.00376,0.00217l0.00697,0.00399l0.0101,0.00549l4.43238,2.34138c0.0276,0.01458 0.05788,0.02742 0.09019,0.0385l0,-4.7787zm0.69765,0l0,4.7787c0.03231,-0.01109 0.06259,-0.02392 0.09019,-0.0385l0,0l4.43238,-2.34138c0.00465,-0.00245 0.00908,-0.00489 0.01331,-0.00729l0,0l0.00375,-0.00217l-0.00697,-0.00399l-0.0101,-0.00549l-4.43238,-2.34138c-0.0276,-0.01458 -0.05788,-0.02742 -0.09019,-0.0385l0.00001,0zm4.58597,-2.57653l-3.97616,2.1004l3.97616,2.1004l0,-4.20079l0,-0.00001zm-9.86031,0.00491l0,4.19098l3.96688,-2.09549l-3.96688,-2.09549l0,0.00001l0,-0.00001zm5.36454,-3.12083c-0.2305,-0.12176 -0.64752,-0.12176 -0.87803,0l0,0l-4.43238,2.34138c-0.00465,0.00245 -0.00908,0.00489 -0.01331,0.00729l0,0l-0.00376,0.00217l0.00697,0.00399l0.0101,0.00549l4.43238,2.34138c0.2305,0.12176 0.64752,0.12176 0.87803,0l0,0l4.43238,-2.34138c0.00465,-0.00245 0.00908,-0.00489 0.01331,-0.00729l0,0l0.00375,-0.00217l-0.00697,-0.00399l-0.0101,-0.00549l-4.43238,-2.34138l0.00001,0zm5.15074,0.25675l0.28178,0.17021l0.04736,0.02907c0.08148,0.05029 0.149,0.09351 0.21199,0.13598c0.67331,0.454 0.92442,0.94897 0.92938,1.97865l0.00007,0.03137l-0.69766,0c0,-0.45092 -0.0524,-0.74729 -0.15644,-0.95608c-0.08623,-0.17306 -0.21562,-0.30531 -0.45187,-0.46624l-0.01349,-0.00914c-0.05185,-0.03496 -0.10896,-0.07159 -0.17848,-0.11463l-0.08199,-0.05022l-0.25176,-0.15196l0.36109,-0.59704l0,0.00001l-0.00002,0.00001l0.00002,0z" id="Combined-Shape" fill="#1969FF" fill-rule="nonzero"/>
       </g>
      </g>
     </g>
    </g>
   </svg>