<?xml version="1.0" encoding="UTF-8"?>
<svg width="180px" height="180px" viewBox="0 0 180 180" version="1.1" xmlns="http://www.w3.org/2000/svg" xmlns:xlink="http://www.w3.org/1999/xlink">
    <title>fantom</title>
    <g id="Page-1" stroke="none" stroke-width="1" fill="none" fill-rule="evenodd">
        <g id="fantom" fill-rule="nonzero">
            <circle id="Oval" fill="#1969FF" cx="90" cy="90" r="90"></circle>
            <path d="M84.5424548,28.6207741 C87.5746079,27.022242 92.188302,27.022242 95.2204551,28.6207741 L126.160893,44.9324012 C127.987072,45.8950669 128.989993,47.3296623 129.169654,48.8106239 L129.199219,48.8106239 L129.199219,130.800613 C129.158933,132.416134 128.146591,134.020793 126.160893,135.067598 L95.2204551,151.379251 C92.188302,152.97775 87.5746079,152.97775 84.5424548,151.379251 L53.6020984,135.067598 C51.6247499,134.02517 50.6757927,132.409325 50.6287981,130.800613 C50.6239736,130.635576 50.6235512,130.499557 50.6286519,130.387533 L50.6287981,49.3626407 C50.6241847,49.2486708 50.624136,49.1351871 50.6286844,49.0221898 L50.6287981,48.8106239 L50.6426219,48.8106239 C50.7800484,47.3132883 51.7374524,45.9153318 53.6020984,44.9324012 L84.5424548,28.6207741 Z M124.277344,94.3945313 L95.2110032,109.768354 C92.1832492,111.369922 87.576249,111.369922 84.548495,109.768354 L55.546875,94.4288007 L55.546875,130.547327 L84.548495,145.805511 C86.2623731,146.722502 88.044378,147.615944 89.7796675,147.654923 L89.8797491,147.656277 C91.6116321,147.661907 93.2930689,146.781296 94.9980255,145.947623 L124.277344,130.415772 L124.277344,94.3945313 Z M45.7776283,129.023438 C45.7776283,132.166513 46.1396851,134.232374 46.8585571,135.687691 C47.4543905,136.894021 48.348398,137.81584 49.9807974,138.93766 L50.0739769,139.001245 C50.432223,139.245041 50.8268565,139.500354 51.3072408,139.800274 L51.8737294,140.150316 L53.6132812,141.209524 L51.1182932,145.371094 L49.1712866,144.184716 L48.8440253,143.981957 C48.2810741,143.631267 47.8144696,143.330212 47.3792521,143.034023 C42.7268763,139.869536 40.991786,136.419404 40.9575493,129.242092 L40.9570312,129.023438 L45.7776283,129.023438 Z M87.5390625,72.5976563 C87.3139363,72.6750733 87.1029211,72.7648509 86.9105582,72.866664 L56.0173586,89.2307616 C55.9849359,89.2478389 55.9540216,89.264916 55.9245996,89.2816682 L55.8984375,89.2967936 L55.94695,89.324768 L56.0173586,89.3629884 L86.9105582,105.727086 C87.1029211,105.828899 87.3139363,105.918677 87.5390625,105.996094 L87.5390625,72.5976563 Z M92.4609375,72.5976563 L92.4609375,105.996094 C92.6862249,105.918677 92.897239,105.828899 93.089601,105.727086 L123.982512,89.3629884 C124.014951,89.3459111 124.04593,89.328834 124.075287,89.3120818 L124.101562,89.2967936 L124.053067,89.268982 L123.982512,89.2307616 L93.089601,72.866664 C92.897239,72.7648509 92.6862249,72.6750733 92.4609375,72.5976563 Z M124.277344,54.6679688 L96.5039062,69.2578125 L124.277344,83.8476563 L124.277344,54.6679688 Z M55.546875,54.6679688 L55.546875,83.8476563 L83.3203125,69.2578125 L55.546875,54.6679688 Z M93.0625467,32.9813286 C91.4546145,32.1312238 88.5454017,32.1312238 86.9374696,32.9813286 L56.0174618,49.3283867 C55.985011,49.3456087 55.9540698,49.3625058 55.9246222,49.379403 L55.8984375,49.394513 L55.946992,49.4222957 L56.0174618,49.4606392 L86.9374696,65.8076484 C88.5454017,66.6578672 91.4546145,66.6578672 93.0625467,65.8076484 L123.982408,49.4606392 C124.014875,49.4434172 124.045882,49.4265201 124.075264,49.4097854 L124.101562,49.394513 L124.053024,49.3667302 L123.982408,49.3283867 L93.0625467,32.9813286 Z M128.881726,34.6289063 L130.828755,35.8153019 L131.155967,36.0180116 C131.718899,36.368605 132.185517,36.6698227 132.620781,36.9658661 C137.273133,40.1304204 139.008238,43.5805882 139.042486,50.757908 L139.042969,50.9765625 L134.222428,50.9765625 C134.222428,47.8333222 133.860325,45.7676204 133.141425,44.3121402 C132.545691,43.1059229 131.651688,42.1840702 130.019329,41.0623625 L129.926069,40.9986476 C129.567825,40.7549809 129.173242,40.4996676 128.692796,40.1996827 L128.126326,39.8496245 L126.386719,38.7904801 L128.881726,34.6289063 Z" id="Shape" fill="#FFFFFF"></path>
        </g>
    </g>
</svg>