<?xml version="1.0" encoding="UTF-8"?>
<svg width="180px" height="180px" viewBox="0 0 180 180" version="1.1" xmlns="http://www.w3.org/2000/svg" xmlns:xlink="http://www.w3.org/1999/xlink">
    <title>flow</title>
    <defs>
        <linearGradient x1="50%" y1="0%" x2="50%" y2="100%" id="linearGradient-1">
            <stop stop-color="#00E0C5" offset="0%"></stop>
            <stop stop-color="#00D17A" offset="100%"></stop>
        </linearGradient>
    </defs>
    <g id="Page-1" stroke="none" stroke-width="1" fill="none" fill-rule="evenodd">
        <g id="flow" fill-rule="nonzero">
            <circle id="Oval" fill="url(#linearGradient-1)" cx="90" cy="90" r="90"></circle>
            <path d="M111.522375,62.6088372 C107.200125,62.6088372 103.696313,66.11265 103.696313,70.4349 L103.696313,76.6962 L129.130875,76.6962 L129.130875,100.565775 L103.305037,100.565775 L103.305037,110.739713 C103.305037,129.5415 88.0632,144.783 69.261525,144.783 C50.45985,144.783 35.2180125,129.5415 35.2180125,110.739713 C35.2180125,91.9380372 50.45985,76.6962 69.261525,76.6962 L80.2180125,76.6962 L80.2180125,100.565775 L103.304813,100.565775 L103.304813,76.8913878 L80.2180125,76.8913878 L80.2180125,70.4349 C80.2180125,53.1460125 94.2334878,39.1305375 111.522375,39.1305375 L141.066,39.1305375 L141.066,62.6088372 L111.522375,62.6088372 Z M69.261525,100.1745 C63.4264872,100.1745 58.6963125,104.904675 58.6963125,110.739713 C58.6963125,116.57475 63.4264872,121.305375 69.261525,121.305375 C75.0965622,121.305375 79.8267378,116.57475 79.8267378,110.739713 L79.8267378,100.1745 L69.261525,100.1745 Z" id="Shape" fill="#FFFFFF"></path>
        </g>
    </g>
</svg>