<?xml version="1.0" encoding="UTF-8"?>
<svg width="180px" height="180px" viewBox="0 0 180 180" version="1.1" xmlns="http://www.w3.org/2000/svg" xmlns:xlink="http://www.w3.org/1999/xlink">
    <title>gnosis</title>
    <g id="Page-1" stroke="none" stroke-width="1" fill="none" fill-rule="evenodd">
        <g id="gnosis" fill-rule="nonzero">
            <rect id="Rectangle" fill="#04795B" x="0" y="0" width="180" height="180" rx="90"></rect>
            <path d="M65.5473,98.1519 C69.0918,98.1519 72.3639,96.9708 74.9997,94.9266 L53.3679,73.3026 C51.3228,75.8919 50.1411755,79.1628 50.1411755,82.7517 C50.0958,91.2468 57.0036,98.1519 65.5473,98.1519 Z" id="Path" fill="#EFEFEF"></path>
            <path d="M129.897,82.7061 C129.897,79.1628 128.7156,75.8919 126.6705,73.257 L105.0387,94.881 C107.6289,96.9252 110.901,98.1065246 114.4911,98.1065246 C122.9895,98.1519 129.897,91.2468 129.897,82.7061 Z" id="Path" fill="#EFEFEF"></path>
            <path d="M140.8038,59.22 L131.2149,68.8053 C134.3961,72.6213 136.3047,77.4369 136.3047,82.7973 C136.3047,94.8357 126.534,104.6028 114.4911,104.6028 C109.1742,104.6028 104.3115,102.6948 100.494,99.5148 L89.9964,110.0088 L79.4985,99.5148 C75.6813,102.6948 70.8639,104.6028 65.5014,104.6028 C53.4585,104.6028 43.6881,94.8357 43.6881,82.7973 C43.6881,77.4822 45.5967,72.6213 48.7779,68.8053 L43.8696,63.8991 L39.189,59.22 C33.7356,68.2149 30.6,78.7089 30.6,89.9751 C30.6,122.7741 57.1851,149.3043 89.9508,149.3043 C122.7168,149.3043 149.3019,122.7288 149.3019,89.9751 C149.3928,78.6633 146.2572,68.1693 140.8038,59.22 Z" id="Path" fill="#EFEFEF"></path>
            <path d="M132.9417,48.9984 C122.1714,37.6869 106.9017,30.6 89.9964,30.6 C73.0908,30.6 57.8667,37.6869 47.0508,48.9984 C45.5967,50.5431 44.1879,52.1784 42.87,53.8593 L89.9508,100.923 L137.0319,53.814 C135.8502,52.1784 134.4414,50.4975 132.9417,48.9984 Z M89.9964,38.3229 C103.9026,38.3229 116.8089,43.6833 126.4887,53.4504 L89.9964,89.9292 L53.5041,53.4504 C63.2292,43.6833 76.0902,38.3229 89.9964,38.3229 Z" id="Shape" fill="#EFEFEF"></path>
        </g>
    </g>
</svg>