<?xml version="1.0" encoding="UTF-8"?>
<svg width="180px" height="180px" viewBox="0 0 180 180" version="1.1" xmlns="http://www.w3.org/2000/svg" xmlns:xlink="http://www.w3.org/1999/xlink">
    <title>harmony</title>
    <defs>
        <linearGradient x1="6.33333333%" y1="92.5496964%" x2="93.3333333%" y2="5.54815257%" id="linearGradient-1">
            <stop stop-color="#00AEE9" offset="0%"></stop>
            <stop stop-color="#69FABD" offset="100%"></stop>
        </linearGradient>
    </defs>
    <g id="Page-1" stroke="none" stroke-width="1" fill="none" fill-rule="evenodd">
        <g id="harmony" fill-rule="nonzero">
            <circle id="Oval" fill="url(#linearGradient-1)" cx="90" cy="90" r="90"></circle>
            <path d="M118.427778,40.0000066 C106.535062,39.9907808 96.8806399,49.6128892 96.85,61.5055688 L96.85,85.3500133 C94.6277778,85.5000066 92.3555556,85.5944577 90,85.5944577 C87.6444444,85.5944577 85.3833333,85.6889022 83.15,85.8222355 L83.15,61.5055688 C82.9609535,49.7249978 73.3570878,40.2740118 61.575,40.2740118 C49.7929122,40.2740118 40.1890465,49.7249978 40,61.5055688 L40,118.494458 C40.1890465,130.275029 49.7929122,139.726015 61.575,139.726015 C73.3570878,139.726015 82.9609535,130.275029 83.15,118.494458 L83.15,94.6500133 C85.3722222,94.5000066 87.6444444,94.4055688 90,94.4055688 C92.3555556,94.4055688 94.6166667,94.3111244 96.85,94.177791 L96.85,118.494458 C97.0390465,130.275029 106.642912,139.726015 118.425,139.726015 C130.207088,139.726015 139.810953,130.275029 140,118.494458 L140,61.5055688 C139.969364,49.6150593 130.318325,39.9938462 118.427778,40.0000066 L118.427778,40.0000066 Z M61.5722222,48.8111231 C68.5907512,48.8080368 74.2871751,54.4870633 74.3055556,61.5055688 L74.3055556,86.7555688 C67.9932331,87.6702595 61.8290252,89.4130492 55.9722222,91.9389022 C53.4346324,93.0526183 51.0458307,94.4784343 48.8611111,96.1833466 L48.8611111,61.5055688 C48.8794636,54.4957323 54.5623677,48.8202796 61.5722222,48.8111231 Z M74.3055556,118.494458 C74.3055556,125.526884 68.604648,131.227791 61.5722222,131.227791 C54.5397964,131.227791 48.8388889,125.526884 48.8388889,118.494458 L48.8388889,112.777791 C48.8388889,107.727791 52.8388889,102.944458 59.5444444,99.9666799 C64.2693029,97.9282537 69.2268651,96.4784886 74.3055556,95.6500133 L74.3055556,118.494458 L74.3055556,118.494458 Z M118.427778,131.188903 C111.409249,131.19199 105.712825,125.512963 105.694444,118.494458 L105.694444,93.2444577 C112.006767,92.3297671 118.170975,90.5869774 124.027778,88.0611244 C126.565368,86.9474082 128.954169,85.5215922 131.138889,83.8166799 L131.138889,118.494458 C131.120536,125.504294 125.437632,131.179747 118.427778,131.188903 L118.427778,131.188903 Z M120.455556,80.0000133 C115.730697,82.0384395 110.773135,83.4882046 105.694444,84.3166799 L105.694444,61.5055688 C105.694444,54.473143 111.395352,48.7722355 118.427778,48.7722355 C125.460204,48.7722355 131.161111,54.473143 131.161111,61.5055688 L131.161111,67.2222355 C131.161111,72.2500133 127.161111,77.0333466 120.455556,80.0000133 Z" id="Shape" fill="#FFFFFF"></path>
        </g>
    </g>
</svg>