<svg width="30" height="30" xmlns="http://www.w3.org/2000/svg">
    <g>
     <title>Layer 1</title>
     <g fill-rule="evenodd" fill="none" >
      <g fill="#00ACE4" id="2">
       <circle r="15" cy="15" cx="15" fill-opacity="0.1" />
       <g stroke="null" fill-rule="nonzero" >
        <path stroke="null" fill-rule="evenodd" clip-rule="evenodd" d="m16.98999,11.20055c0,-2.83811 -1.35871,-5.27859 -2.39245,-6.0728c-0.00429,-0.00274 -0.07935,-0.04584 -0.07294,0.06818c0,0.00108 -0.00105,0.00163 -0.00105,0.00326c-0.08579,5.47934 -2.8375,6.96415 -4.35006,8.96496c-3.49108,4.6164 -0.24449,9.67791 3.06161,10.61341c1.84983,0.52312 -0.42735,-0.92623 -0.72063,-3.98802c-0.35442,-3.70053 4.47552,-6.52557 4.47552,-9.589l-0.00001,0.00001l0.00001,0.00001z" fill="#1253FC" id="svg_3"/>
        <path stroke="null" fill-rule="evenodd" clip-rule="evenodd" d="m18.80357,13.06592c-0.02252,-0.01474 -0.05471,-0.02453 -0.07667,0.01038c-0.0606,0.69004 -0.79998,2.16501 -1.7367,3.51999c-3.17794,4.59512 -1.36725,6.81084 -0.34905,8.00055c0.59142,0.69057 0,0 1.47772,-0.70585c0.11636,-0.05565 2.88358,-1.53499 3.18331,-4.90552c0.29008,-3.26414 -1.76671,-5.3217 -2.49861,-5.91956l-0.00001,0l0.00001,0z" fill="#00ACE4" id="svg_4"/>
       </g>
      </g>
     </g>
    </g>
   </svg>