<?xml version="1.0" encoding="UTF-8"?>
<svg width="180px" height="180px" viewBox="0 0 180 180" version="1.1" xmlns="http://www.w3.org/2000/svg" xmlns:xlink="http://www.w3.org/1999/xlink">
    <title>heco</title>
    <defs>
        <linearGradient x1="6.33333333%" y1="92.5496964%" x2="93.3333333%" y2="5.54815257%" id="linearGradient-1">
            <stop stop-color="#1253FC" offset="0%"></stop>
            <stop stop-color="#00ACE4" offset="100%"></stop>
        </linearGradient>
    </defs>
    <g id="Page-1" stroke="none" stroke-width="1" fill="none" fill-rule="evenodd">
        <g id="heco">
            <circle id="Oval" fill="url(#linearGradient-1)" fill-rule="nonzero" cx="90" cy="90" r="90"></circle>
            <path d="M101.93994,67.2033 C101.93994,50.17464 93.78768,35.53176 87.58524,30.7665 C87.5595,30.75006 87.10914,30.49146 87.1476,31.17558 C87.1476,31.18206 87.1413,31.18536 87.1413,31.19514 C86.62656,64.07118 70.1163,72.98004 61.04094,84.9849 C40.09446,112.6833 59.574,143.05236 79.4106,148.66536 C90.50958,151.80408 76.8465,143.10798 75.08682,124.73724 C72.9603,102.53406 101.93994,85.58382 101.93994,67.20324 L101.93994,67.2033 L101.93994,67.20336 L101.93994,67.2033 Z" id="svg_3" fill="#FFFFFF"></path>
            <path d="M112.82142,78.39552 C112.6863,78.30708 112.49316,78.24834 112.3614,78.4578 C111.9978,82.59804 107.56152,91.44786 101.9412,99.57774 C82.87356,127.14846 93.7377,140.44278 99.8469,147.58104 C103.39542,151.72446 99.8469,147.58104 108.71322,143.34594 C109.41138,143.01204 126.0147,134.136 127.81308,113.91282 C129.55356,94.32798 117.21282,81.98262 112.82142,78.39546 L112.82136,78.39546 L112.82142,78.39546 L112.82142,78.39552 Z" id="svg_4" fill="#FFFFFF"></path>
        </g>
    </g>
</svg>