<svg width="180.000000" height="180.000000" viewBox="0 0 180 180" fill="none" xmlns="http://www.w3.org/2000/svg" xmlns:xlink="http://www.w3.org/1999/xlink">
	<desc>
			Created with Pixso.
	</desc>
	<circle id="c" cx="90.000000" cy="90.000000" r="90.000000" fill="#FFFFFF"/>
	<g opacity="0.200000">
		<path id="path" d="M49.9258 126.062L56.0801 144.5L98.3301 89.25L56.0801 34L49.625 52.0312L77.6895 89.2422L49.9258 126.062Z" fill-rule="nonzero" fill="#FF564F"/>
	</g>
	<path id="path" d="M139.986 144.492L119.936 144.492L77.6758 89.2422L119.936 34L139.986 34L98.3203 89.2422L139.986 144.492Z" fill-rule="nonzero" fill="#F08179"/>
	<path id="path" d="M40 34L56.0703 34L56.0703 144.492L40 144.492L40 34Z" fill-rule="nonzero" fill="#FF564F"/>
	<path id="path" d="M140 144.492L119.949 144.492L77.6895 89.2422L119.949 34L140 34L98.334 89.2422L140 144.492Z" fill-rule="nonzero" fill="#FF564F"/>
	<path id="path" d="M140 144.492L119.949 144.492L77.6895 89.2422L119.949 34L140 34L98.334 89.2422L140 144.492Z" fill-rule="nonzero" fill="#FF564F"/>
	<path id="path" d="M140 144.492L119.949 144.492L77.6895 89.2422L119.949 34L140 34L98.334 89.2422L140 144.492Z" fill-rule="nonzero" fill="#FF564F"/>
	<path id="path" d="M140 144.492L119.949 144.492L77.6895 89.2422L119.949 34L140 34L98.334 89.2422L140 144.492Z" fill-rule="nonzero" fill="#FF564F"/>
	<defs/>
</svg>
