<svg width="180.000000" height="180.000000" viewBox="0 0 180 180" fill="none" xmlns="http://www.w3.org/2000/svg" xmlns:xlink="http://www.w3.org/1999/xlink">
	<desc>
			Created with Pixso.
	</desc>
	<defs>
		<linearGradient id="paint_linear_2_18_0" x1="-1.614123" y1="91.663124" x2="181.614365" y2="88.335732" gradientUnits="userSpaceOnUse">
			<stop stop-color="#29CCB9"/>
			<stop offset="0.490000" stop-color="#0091FF"/>
			<stop offset="1.000000" stop-color="#FF66B7"/>
		</linearGradient>
	</defs>
	<circle id="Oval" cx="90.000000" cy="90.000000" r="90.000000" fill="url(#paint_linear_2_18_0)"/>
	<path id="path" d="M55.7564 136.279C41.7913 125.807 32.7304 109.071 32.7304 90.223C32.7304 58.4955 58.3826 32.7539 89.9999 32.7539C116.104 32.7539 144.608 48.4082 151.496 72.3872C143.791 45.5985 119.183 26 89.9999 26C54.6609 26 26 54.7607 26 90.223C26 125.685 54.6609 154.446 89.9999 154.446C125.339 154.446 154 125.685 154 90.223L154 86.8374L150.487 86.8374C150.382 86.8374 150.226 86.8374 150.017 86.8374C149.6 86.8374 149.009 86.82 148.243 86.785C146.73 86.7328 144.643 86.6279 142.296 86.4186C137.495 85.9996 132.017 85.1794 128.296 83.6784C122.295 81.2701 118.904 78.094 115.043 74.3591C111.165 70.6243 106.591 66.2092 99.0259 62.6491C91.5824 59.1412 83.3565 59.6997 77.3217 60.9561C74.2609 61.5844 71.6174 62.4222 69.7565 63.1027C68.8172 63.4343 68.0696 63.7484 67.5478 63.958C64.5044 65.2494 61.5477 66.7677 58.5739 68.1812C58.5739 68.1812 64.4348 69.7867 67.3216 70.6944C67.426 70.7292 67.5825 70.7817 67.8087 70.8515C68.2435 70.9909 68.8694 71.2178 69.6173 71.532C71.1477 72.1603 73.1477 73.0854 75.1303 74.3768C78.2607 76.3838 80.8521 78.9315 81.9131 82.0381C75.2869 82.9107 69.0607 85.8425 64.4 88.5827C61.5825 90.2404 59.2346 91.9159 57.5825 93.1551C56.7652 93.7831 56.1043 94.3068 55.652 94.6732C55.2697 94.9873 49.2869 100.275 49.2869 100.275C49.2869 100.275 57.0088 101.095 60.8174 101.863C63.3564 102.369 66.7653 103.207 70.3479 104.446C73.9305 105.703 77.5478 107.343 80.5564 109.455C83.5652 111.567 85.7737 113.993 86.8521 116.785C90.0173 124.917 86.9043 132.823 80.6608 137.273C74.4868 141.671 65.1303 142.736 55.7564 136.279ZM77.6 146.331C80.1216 145.511 82.4694 144.307 84.5912 142.806C93.0783 136.75 97.5477 125.65 93.1479 114.341C91.4088 109.891 88.1042 106.506 84.4347 103.923C80.7477 101.34 76.5216 99.4551 72.5911 98.0764C70.0174 97.169 67.513 96.4709 65.339 95.9472C66.1217 95.4412 66.939 94.9175 67.826 94.3941C73.0086 91.34 79.5478 88.5302 85.8085 88.5302C95.252 88.5302 102.278 91.4446 108.991 94.5511C109.6 94.8302 110.209 95.127 110.835 95.4064C116.835 98.2335 123.13 101.2 130.452 101.2C137.774 101.2 143.078 99.1934 146.887 97.0992C143.495 125.581 119.339 147.675 90.0346 147.675C85.7737 147.675 81.5826 147.204 77.6 146.331ZM139.582 92.963C137.061 93.8182 134 94.4465 130.435 94.4465C124.696 94.4465 119.757 92.1428 113.496 89.2107C112.939 88.949 112.382 88.6873 111.809 88.4256C105.53 85.5109 98.2782 82.4221 88.8347 81.8636C87.5653 75.5984 82.8347 71.3051 78.7651 68.6874C78.3129 68.3907 77.8609 68.1116 77.4087 67.8496C77.8087 67.7624 78.2259 67.6577 78.6607 67.5705C84.1216 66.4362 90.626 66.1568 96.139 68.7747C102.678 71.8635 106.383 75.4239 110.226 79.1237C114.174 82.9284 118.504 87.0467 125.791 89.9787C129.843 91.6017 135.095 92.4743 139.582 92.963Z" fill-rule="evenodd" fill="#FFFFFF"/>
</svg>
