<svg width="180.630051" height="180.500031" viewBox="0 0 180.63 180.5" fill="none" xmlns="http://www.w3.org/2000/svg" xmlns:xlink="http://www.w3.org/1999/xlink">
	<desc>
			Created with Pixso.
	</desc>
	<g id="g">
		<g id="circle">
			<circle cx="90.000000" cy="90.500031" r="90.000000" fill="#FFFFFF"/>
		</g>
		<g id="path">
			<path d="M180.61 88.4509C179.591 38.1515 137.633 -1.70485 87.1795 0.0562286C37.8998 1.75554 -1.02972 42.9713 0.020752 92.282C0.824066 128.709 23.0695 159.605 54.4294 173.231C58.8784 167.577 62.586 157.412 64.4398 151.758C66.2936 147.123 68.2401 142.612 70.2792 138.225C79.4554 141.407 91.7522 138.379 98.4876 131.057L98.7657 130.779C90.609 127.195 79.3318 129.049 71.9167 134.795C74.4503 129.574 77.1073 124.507 79.9189 119.625C88.9406 123.24 101.361 120.769 108.405 113.786L108.683 113.508C100.836 109.615 89.7131 110.851 82.0508 116.01C84.8315 111.376 87.7357 106.896 90.7635 102.632C100.094 105.537 112.391 101.953 118.848 94.2903L119.096 93.9813C111.495 91.0462 101.454 92.7764 94.3475 97.7507C94.5947 97.4108 94.8419 97.071 95.0891 96.7311C96.912 94.3521 98.7657 92.0658 100.65 89.8103C111.68 86.6898 121.505 75.4435 123.081 63.8264L123.143 63.363C111.742 65.6493 101.145 76.8647 99.0438 88.7289C97.2209 90.8917 95.4598 93.0853 93.6987 95.3717C96.5412 87.6476 96.0468 78.2551 91.8759 71.7668L91.8758 71.6741L91.6286 71.9831C85.3567 79.9235 84.3371 92.8382 89.2187 101.396C86.3453 105.444 83.5956 109.677 80.9385 114.033C82.6069 105.259 79.7953 95.0627 73.616 89.316L73.5851 89.2851L73.4306 89.6559C69.3523 98.8012 71.546 111.438 78.2505 118.575C75.5934 123.178 73.0908 127.936 70.6808 132.88C72.133 123.765 68.8889 113.199 62.3388 107.483L62.3079 107.452L62.1534 107.823C58.4459 117.432 61.2884 130.439 68.5181 137.391C66.9424 140.759 65.4285 144.219 63.9763 147.71C63.6365 147.339 63.173 147.061 62.6478 146.907C60.7631 146.351 58.1678 145.362 55.2944 143.663C53.4098 142.52 51.4015 141.593 49.3005 140.913C41.1439 138.256 42.3488 134.301 38.0851 126.453C37.8071 125.928 34.4394 122.437 33.7288 121.788C33.5434 121.634 31.4115 120.398 30.2993 118.081C29.3105 115.98 28.7235 114.002 28.5381 112.087C28.2601 109.522 27.2096 107.854 24.707 106.989C12.781 102.88 18.126 87.3386 18.5586 85.2686C18.8985 83.5074 17.3846 79.6454 16.7975 77.5445C16.7357 77.2973 16.6739 76.9883 16.6121 76.5867C15.747 72.4156 17.6935 68.8935 19.1147 67.4413C20.5669 65.9892 25.5412 63.672 26.5917 62.3125C27.6112 60.984 28.4455 59.4391 29.4959 58.1415C30.8863 56.4113 35.1809 52.9818 40.9276 49.8922C44.4189 48.0384 45.0368 43.1567 46.3654 41.6428C48.6517 39.0784 52.0812 39.0784 54.6456 36.7612C55.9433 35.5871 57.7971 35.0001 59.002 33.7951C64.9341 27.7085 72.9054 25.2368 80.784 23.7847C86.0981 22.796 91.9994 24.3099 97.5298 25.2677C98.3331 25.3913 99.1055 25.6076 99.8779 25.8239C112.329 26.2564 127.314 28.8517 132.721 34.1041C136.089 37.41 137.757 40.994 138.56 43.4657C139.456 46.2464 140.692 48.8726 142.237 51.3443L145.574 56.7512C147.675 60.1807 148.385 64.2899 147.458 68.2137C146.933 70.4383 146.686 72.7864 147.335 74.084C148.385 76.1232 151.568 79.4291 153.483 81.3138C154.41 82.2407 155.43 83.044 156.542 83.7237C159.106 85.3304 163.957 88.4509 163.957 88.7289C163.957 89.0997 164.359 90.6445 162.196 92.4983C160.033 94.3521 156.017 97.3181 156.017 97.3181C156.017 97.3181 156.233 98.6776 156.789 99.759C157.345 100.84 158.767 102.447 158.334 103.93C157.901 105.413 154.935 106.556 155.77 108.163C156.635 109.8 158.736 110.295 158.118 111.778C157.5 113.261 154.565 115.763 154.843 116.876C155.152 117.957 157.531 128.029 152 129.79C147.829 131.119 136.398 131.86 131.022 132.138C128.704 132.262 126.603 133.56 125.491 135.599C124.657 137.113 123.823 139.245 123.421 142.025C122.371 149.162 115.326 165.537 115.326 165.537C115.326 165.537 115.11 165.939 114.801 166.65C114.183 168.133 113.318 170.45 113.441 171.377C113.534 171.995 114.337 173.169 115.573 174.621C116.531 175.764 118.107 176.228 119.559 175.733C155.739 163.436 181.445 128.74 180.61 88.4509Z" fill-rule="nonzero" fill="#00DACC"/>
		</g>
	</g>
	<defs/>
</svg>
