<?xml version="1.0" encoding="UTF-8"?>
<svg width="180px" height="180px" viewBox="0 0 180 180" version="1.1" xmlns="http://www.w3.org/2000/svg" xmlns:xlink="http://www.w3.org/1999/xlink">
    <title>moonriver</title>
    <g id="Page-1" stroke="none" stroke-width="1" fill="none" fill-rule="evenodd">
        <g id="moonriver" fill-rule="nonzero">
            <circle id="Oval" fill="#53CBC8" cx="90" cy="90" r="90"></circle>
            <g id="symbol" transform="translate(42.000000, 36.019566)">
                <path d="M14.8633288,13.3485226 C6.30413604,21.9079536 1.49613773,33.5169869 1.49613773,45.6216818 C1.49721113,48.5051576 1.76807741,51.3822083 2.30519506,54.215217 L8.20102572,50.1769159 C18.5663584,43.0681343 35.3812877,43.0681343 45.7440802,50.1769159 L51.9307651,54.4139886 L55.2838441,56.7185953 C64.6267416,63.1199278 79.7619564,63.1199278 89.0959632,56.7185953 L91.8470118,54.8350286 C94.598907,41.4024343 91.1698278,27.4441914 82.5069504,16.8158297 C73.844073,6.18746804 60.864204,0.0138040184 47.1526274,7.93524182e-16 C35.0314211,-0.0195665891 23.4225216,4.78909167 14.8633288,13.3485226 Z" id="Path_207" fill="#F2B705"></path>
                <path d="M72.7839954,73.0369132 C65.9076432,73.0369132 59.332306,71.171128 54.381434,67.778041 L44.8492907,61.2452518 C40.285801,58.108091 34.1575409,56.3807472 27.609511,56.3807472 C21.061481,56.3807472 14.9313158,58.09539 10.3678261,61.2452518 L4.20463814,65.4651784 C3.41553596,66.0132004 2.39329799,66.096415 1.52594996,65.6832346 C0.658601922,65.2700536 0.0791241636,64.4238268 0.00747746952,63.4657672 C-0.0641692248,62.5077082 0.382999897,61.5847048 1.17924635,61.0471156 L7.33925904,56.8271894 C12.7886475,53.0886333 19.9825262,51.0336022 27.6069707,51.0336022 C35.2314153,51.0336022 42.4240239,53.0886333 47.8734124,56.8271894 L57.4055557,63.3599782 C66.8428326,69.1355794 78.7207134,69.1355794 88.1579898,63.3599782 L91.777791,60.8832718 C92.5664826,60.3255724 93.5944734,60.236065 94.4676846,60.6490612 C95.3408952,61.0620574 95.9238576,61.9134862 95.993094,62.8769536 C96.0623304,63.840421 95.607099,64.7664562 94.8019128,65.3000644 L91.1821116,67.7767708 C86.2090128,71.181289 79.660983,73.0369132 72.7839954,73.0369132 Z" id="Path_208" fill="#FFFFFF"></path>
                <path d="M27.4101044,92.2040788 L27.4101044,66.4164874 C27.3899706,65.874037 27.4129045,65.330845 27.4786901,64.7920222 C27.644575,63.3229408 28.8878587,62.2130908 30.3662754,62.2143408 C31.7989491,62.2531654 32.9729735,63.3637144 33.0912872,64.7920222 C33.2007421,65.6872588 33.2321897,66.5903146 33.185275,67.4909968 L33.185275,118.905511 C33.0309572,120.810669 31.8370578,122.068709 30.229104,122.034416 C28.6211501,122.000123 27.4602736,120.693819 27.4532879,118.760084 L27.4532879,101.623182 L27.4101044,92.2040788 Z" id="Path_209" fill="#FFFFFF"></path>
                <path d="M21.9873881,79.2255034 L21.9873881,92.040235 C21.9873881,94.2330724 20.8176207,95.684803 19.1601328,95.632729 C17.5026448,95.5806544 16.2465103,94.1035216 16.2388897,92.0129278 L16.2388897,66.3942604 C16.2388897,64.1499838 17.5458284,62.6360176 19.247135,62.72302 C20.9484416,62.8100224 21.9638911,64.16713 21.9721468,66.4095016 C21.9956438,70.6821376 21.9873881,74.9535028 21.9873881,79.2255034 Z" id="Path_210" fill="#FFFFFF"></path>
                <path d="M38.6365687,79.2083572 L38.6365687,70.2007672 C38.6365687,68.1120784 39.7447359,66.7632262 41.3952383,66.7632262 C43.0457406,66.7632262 44.3164814,68.1552622 44.3355329,70.1226556 C44.3977681,76.2543028 44.3977681,82.382986 44.3355329,88.5087058 C44.3355329,90.5967598 43.1054356,91.850989 41.4142898,91.835408 C39.7231441,91.8192364 38.6397439,90.5351596 38.6200573,88.3969366 L38.6200573,79.1994664 L38.6365687,79.2083572 Z" id="Path_211" fill="#FFFFFF"></path>
                <path d="M5.06386465,81.081763 L5.06386465,72.072268 C5.06386465,69.9848494 6.17266692,68.6353618 7.82253426,68.6353618 C9.47240154,68.6353618 10.7437774,70.0273978 10.763464,71.9947918 C10.819772,78.1264384 10.819772,84.2551222 10.763464,90.380842 C10.763464,92.4688954 9.5244759,93.7231252 7.84222086,93.7069326 C6.15996588,93.6901024 5.06640486,92.4066604 5.04798833,90.2684374 L5.04798833,81.073507 L5.06386465,81.081763 Z" id="Path_212" fill="#FFFFFF"></path>
                <path d="M52.6286882,73.4147698 L52.6369438,73.4147698 C54.19895,73.4154712 55.4648342,74.6819242 55.4648342,76.24393 L55.4648342,81.1427278 C55.4644836,82.7043832 54.1985993,83.970268 52.6369438,83.9706184 L52.6286882,83.9706184 C51.0666818,83.9706184 49.800229,82.7047342 49.7995277,81.1427278 L49.7995277,76.24393 C49.7998783,74.6815732 51.0663312,73.4151202 52.6286882,73.4147698 L52.6286882,73.4147698 Z" id="Path_213" fill="#FFFFFF"></path>
                <path d="M63.8373708,77.704552 L63.8456268,77.704552 C65.4076326,77.7052528 66.6735168,78.9717058 66.6735168,80.5337122 L66.6735168,108.010544 C66.6735168,108.760489 66.3755592,109.479708 65.8452084,110.00994 C65.3148582,110.540171 64.5955716,110.837799 63.8456268,110.837799 L63.8373708,110.837799 C63.0874848,110.837799 62.368263,110.540151 61.8380136,110.009901 C61.3077636,109.479652 61.009947,108.76043 61.0101156,108.010544 L61.0101156,80.5337122 C61.0097646,78.971809 62.2754676,77.7052534 63.8373708,77.704552 Z" id="Path_214" fill="#FFFFFF"></path>
                <path d="M74.9673072,78.7695352 L74.9755632,78.7695352 C76.537569,78.7695352 77.804022,80.0354194 77.8047234,81.5974258 L77.8047234,104.950224 C77.8043868,105.700227 77.5061262,106.419378 76.9755552,106.949473 C76.4449848,107.479567 75.7255662,107.777181 74.9755632,107.776845 L74.9673072,107.776845 C74.2174794,107.777181 73.4982564,107.479506 72.9679884,106.949357 C72.4377204,106.419209 72.1398834,105.700052 72.1400514,104.950224 L72.1400514,81.5980606 C72.1397148,80.848006 72.4374372,80.1285562 72.9676866,79.5980686 C73.4979366,79.0675804 74.2172526,78.7695352 74.9673072,78.7695352 L74.9673072,78.7695352 Z" id="Path_215" fill="#FFFFFF"></path>
                <path d="M86.2528314,76.105489 L86.2610874,76.105489 C87.822888,76.105489 89.0889774,77.3715784 89.0889774,78.933379 L89.0889774,89.0059522 C89.088627,90.5676076 87.8227428,91.8334924 86.2610874,91.8338428 L86.2528314,91.8338428 C85.5028866,91.8338428 84.7836672,91.5358846 84.2534358,91.0055344 C83.7232038,90.4751836 83.4254076,89.755897 83.4255756,89.0059522 L83.4255756,78.9340144 C83.425239,78.1839592 83.7229614,77.4645094 84.2532108,76.9340218 C84.7834608,76.4035336 85.5027768,76.105489 86.2528314,76.105489 Z" id="Path_216" fill="#FFFFFF"></path>
            </g>
        </g>
    </g>
</svg>