<?xml version="1.0" encoding="UTF-8"?>
<svg width="180px" height="181px" viewBox="0 0 180 181" version="1.1" xmlns="http://www.w3.org/2000/svg" xmlns:xlink="http://www.w3.org/1999/xlink">
    <title>near</title>
    <g id="Page-1" stroke="none" stroke-width="1" fill="none" fill-rule="evenodd">
        <g id="near" transform="translate(0.000000, 0.000000)" fill-rule="nonzero">
            <path d="M89.9646158,0 L89.9646158,0 C139.693062,0 180.000023,40.3069605 180.000023,90.0354075 L180.000023,90.0354075 C180.000023,139.763854 139.693062,180.035396 90.000035,180.035396 L90.000035,180.035396 C40.271588,180.035396 0,139.728435 0,90.0354075 L0,90.0354075 C-0.0353725022,40.3069605 40.271588,0 89.9646158,0 Z" id="Oval" fill="#FFFFFF"></path>
            <path d="M120.263889,45.0763893 L99.3611111,76.1111115 C98.7454698,77.035362 98.9066465,78.2722094 99.7385888,79.0078215 C100.570531,79.7434337 101.817807,79.7519548 102.659722,79.0277781 L123.236111,61.1805559 C123.482512,60.9601172 123.835929,60.9061904 124.136859,61.0431136 C124.437789,61.1800368 124.629316,61.4819126 124.625,61.8125004 L124.625,117.6875 C124.624867,118.037922 124.405526,118.350824 124.076156,118.470454 C123.746786,118.590083 123.377765,118.49088 123.152778,118.222223 L60.9583333,43.7708337 C58.9335628,41.3799046 55.9594764,40 52.8263889,40 L50.6527778,40 C44.7694111,40 40,44.7694114 40,50.6527781 L40,129.347223 C40,135.230589 44.7694111,140 50.6527778,140 L50.6527778,140 C54.3568983,140 57.7959725,138.078983 59.7361111,134.923611 L80.6388889,103.888889 C81.2545302,102.964639 81.0933535,101.727791 80.2614112,100.992179 C79.4294689,100.256567 78.1821931,100.248046 77.3402778,100.972223 L56.7638889,118.819445 C56.5174876,119.039884 56.1640709,119.09381 55.8631408,118.956887 C55.5622108,118.819964 55.3706843,118.518088 55.375,118.1875 L55.375,62.2986115 C55.3751327,61.9481894 55.5944743,61.6352875 55.9238441,61.515658 C56.2532138,61.3960284 56.6222354,61.4952323 56.8472222,61.7638893 L119.034722,136.229167 C121.059493,138.620096 124.033579,140 127.166667,140 L129.340278,140 C132.166773,140.001843 134.878133,138.880313 136.877419,136.88233 C138.876704,134.884347 140,132.173719 140,129.347223 L140,50.6527781 C140,44.7694114 135.230589,40 129.347222,40 L129.347222,40 C125.643102,40 122.204028,41.9210174 120.263889,45.0763893 Z" id="Path" fill="#000000"></path>
        </g>
    </g>
</svg>