<?xml version="1.0" encoding="UTF-8"?>
<svg width="180px" height="180px" viewBox="0 0 180 180" version="1.1" xmlns="http://www.w3.org/2000/svg" xmlns:xlink="http://www.w3.org/1999/xlink">
    <title>optimism</title>
    <g id="Page-1" stroke="none" stroke-width="1" fill="none" fill-rule="evenodd">
        <g id="optimism" fill-rule="nonzero">
            <circle id="Oval" fill="#FF0420" cx="90" cy="90" r="90"></circle>
            <path d="M63.756,113.904 C58.392,113.904 54,112.644 50.58,110.124 C47.196,107.568 45.504,103.896 45.504,99.18 C45.504,98.172 45.612,96.984 45.828,95.544 C46.404,92.304 47.232,88.416 48.312,83.844 C51.372,71.46 59.292,65.268 72.036,65.268 C75.492,65.268 78.624,65.844 81.36,67.032 C84.096,68.148 86.256,69.876 87.84,72.18 C89.424,74.448 90.216,77.148 90.216,80.28 C90.216,81.216 90.108,82.404 89.892,83.844 C89.208,87.84 88.416,91.764 87.444,95.544 C85.86,101.7 83.16,106.344 79.272,109.404 C75.42,112.428 70.236,113.904 63.756,113.904 Z M64.728,104.184 C67.248,104.184 69.372,103.428 71.136,101.952 C72.936,100.476 74.232,98.208 74.988,95.112 C76.032,90.864 76.824,87.192 77.364,84.024 C77.544,83.088 77.652,82.116 77.652,81.108 C77.652,77.004 75.528,74.952 71.244,74.952 C68.724,74.952 66.564,75.708 64.764,77.184 C63,78.66 61.74,80.928 60.984,84.024 C60.156,87.048 59.364,90.72 58.536,95.112 C58.356,96.012 58.248,96.948 58.248,97.956 C58.212,102.132 60.408,104.184 64.728,104.184 Z" id="Shape" fill="#FFFFFF"></path>
            <path d="M93.348,113.256 C92.844,113.256 92.484,113.112 92.196,112.788 C91.98,112.428 91.908,112.032 91.98,111.564 L101.304,67.644 C101.376,67.14 101.628,66.744 102.06,66.42 C102.456,66.096 102.888,65.952 103.356,65.952 L121.32,65.952 C126.324,65.952 130.32,66.996 133.344,69.048 C136.404,71.136 137.952,74.124 137.952,78.048 C137.952,79.164 137.808,80.352 137.556,81.576 C136.44,86.76 134.172,90.576 130.716,93.06 C127.332,95.544 122.688,96.768 116.784,96.768 L107.676,96.768 L104.58,111.564 C104.472,112.068 104.256,112.464 103.824,112.788 C103.428,113.112 102.996,113.256 102.528,113.256 L93.348,113.256 Z M117.252,87.444 C119.16,87.444 120.78,86.94 122.184,85.896 C123.624,84.852 124.56,83.376 125.028,81.432 C125.172,80.676 125.244,79.992 125.244,79.416 C125.244,78.12 124.848,77.112 124.092,76.428 C123.336,75.708 122.004,75.348 120.168,75.348 L112.068,75.348 L109.512,87.444 L117.252,87.444 L117.252,87.444 Z" id="Shape" fill="#FFFFFF"></path>
        </g>
    </g>
</svg>