<?xml version="1.0" encoding="UTF-8"?>
<svg width="31px" height="30px" viewBox="0 0 31 30" version="1.1" xmlns="http://www.w3.org/2000/svg" xmlns:xlink="http://www.w3.org/1999/xlink">
    <title>osmosis</title>
    <defs>
        <radialGradient cx="94.8810752%" cy="41.1205428%" fx="94.8810752%" fy="41.1205428%" r="117.060418%" gradientTransform="translate(0.948811,0.411205),scale(0.956438,1.000000),translate(-0.948811,-0.411205)" id="radialGradient-1">
            <stop stop-color="#FFEAFF" stop-opacity="0.6" offset="0%"></stop>
            <stop stop-color="#A087C9" offset="68.07%"></stop>
            <stop stop-color="#10002F" offset="100%"></stop>
        </radialGradient>
        <radialGradient cx="83.1042527%" cy="15.5291233%" fx="83.1042527%" fy="15.5291233%" r="97.8094318%" gradientTransform="translate(0.831043,0.155291),scale(1.000000,0.983075),translate(-0.831043,-0.155291)" id="radialGradient-2">
            <stop stop-color="#FFEAFF" stop-opacity="0.6" offset="0%"></stop>
            <stop stop-color="#A087C9" offset="68.07%"></stop>
            <stop stop-color="#10002F" offset="100%"></stop>
        </radialGradient>
        <linearGradient x1="42.2488775%" y1="99.2907939%" x2="58.2273255%" y2="0.714043314%" id="linearGradient-3">
            <stop stop-color="#81FFFF" offset="0%"></stop>
            <stop stop-color="#FFFFFF" stop-opacity="0" offset="62.02%"></stop>
        </linearGradient>
        <linearGradient x1="83.1152026%" y1="25.2233305%" x2="34.6427145%" y2="65.2843413%" id="linearGradient-4">
            <stop stop-color="#FFFFFF" offset="28.88%"></stop>
            <stop stop-color="#FFFFFF" stop-opacity="0" offset="77.96%"></stop>
        </linearGradient>
        <linearGradient x1="0.0423170556%" y1="49.9413858%" x2="99.9757418%" y2="49.9413858%" id="linearGradient-5">
            <stop stop-color="#0002E9" offset="0%"></stop>
            <stop stop-color="#FF00C7" offset="99.52%"></stop>
        </linearGradient>
        <linearGradient x1="109.063163%" y1="10.5265086%" x2="2.63107355%" y2="107.284648%" id="linearGradient-6">
            <stop stop-color="#FFFFFF" offset="28.88%"></stop>
            <stop stop-color="#FFFFFF" stop-opacity="0" offset="77.96%"></stop>
        </linearGradient>
        <linearGradient x1="0.0791954149%" y1="49.9413858%" x2="100.135692%" y2="49.9413858%" id="linearGradient-7">
            <stop stop-color="#000292" offset="0%"></stop>
            <stop stop-color="#7D00C7" offset="99.52%"></stop>
        </linearGradient>
        <linearGradient x1="0.109507424%" y1="50.1054142%" x2="100.002698%" y2="50.1054142%" id="linearGradient-8">
            <stop stop-color="#000292" offset="0%"></stop>
            <stop stop-color="#BE00C7" offset="99.52%"></stop>
        </linearGradient>
        <linearGradient x1="68.3425483%" y1="-0.895909002%" x2="23.9045049%" y2="110.791308%" id="linearGradient-9">
            <stop stop-color="#FFFFFF" offset="28.88%"></stop>
            <stop stop-color="#FFFFFF" stop-opacity="0" offset="77.96%"></stop>
        </linearGradient>
        <linearGradient x1="-0.0661185047%" y1="51.1836338%" x2="100.067814%" y2="51.1836338%" id="linearGradient-10">
            <stop stop-color="#FFFFFF" offset="28.88%"></stop>
            <stop stop-color="#FFFFFF" stop-opacity="0" offset="77.96%"></stop>
        </linearGradient>
        <linearGradient x1="-0.310248368%" y1="50.8325129%" x2="99.8304654%" y2="50.8325129%" id="linearGradient-11">
            <stop stop-color="#FFFFFF" offset="28.88%"></stop>
            <stop stop-color="#FFFFFF" stop-opacity="0" offset="77.96%"></stop>
        </linearGradient>
        <linearGradient x1="-0.411891117%" y1="49.2110648%" x2="98.8538682%" y2="49.2110648%" id="linearGradient-12">
            <stop stop-color="#FFFFFF" offset="28.88%"></stop>
            <stop stop-color="#FFFFFF" stop-opacity="0" offset="77.96%"></stop>
        </linearGradient>
        <linearGradient x1="-1.76396848%" y1="49.1151768%" x2="97.5017908%" y2="49.1151768%" id="linearGradient-13">
            <stop stop-color="#FFFFFF" offset="28.88%"></stop>
            <stop stop-color="#FFFFFF" stop-opacity="0" offset="77.96%"></stop>
        </linearGradient>
        <linearGradient x1="-0.661678313%" y1="49.8503876%" x2="98.7549729%" y2="49.8503876%" id="linearGradient-14">
            <stop stop-color="#FFFFFF" offset="28.88%"></stop>
            <stop stop-color="#FFFFFF" stop-opacity="0" offset="77.96%"></stop>
        </linearGradient>
        <linearGradient x1="-0.110276309%" y1="49.8122417%" x2="99.3074236%" y2="49.8122417%" id="linearGradient-15">
            <stop stop-color="#FFFFFF" offset="28.88%"></stop>
            <stop stop-color="#FFFFFF" stop-opacity="0" offset="77.96%"></stop>
        </linearGradient>
    </defs>
    <g id="Page-1" stroke="none" stroke-width="1" fill="none" fill-rule="evenodd">
        <g id="osmosis" transform="translate(0.781035, 0.000000)" fill-rule="nonzero">
            <circle  fill-opacity="0.2" fill="#5E12A0" cx="15" cy="15" r="15"></circle>
            <g id="Group-2" transform="translate(6.000000, 5.000000)">
                <path d="M17.9475717,3.47122559 C17.7476897,2.70145485 17.1051709,1.93168412 15.9486289,1.07477285 C15.0205644,0.392146738 14.0353907,0 13.250099,0 C13.093008,0 12.9502351,0.014523273 12.8074622,0.0435710871 C12.4504892,0.116190929 12.1363889,0.377621952 11.9365069,0.769770736 C11.6937521,1.23453527 11.6366429,1.85906632 11.793734,2.23669032 C11.8508431,2.35288043 11.9222296,2.49812012 12.0078933,2.62883297 C11.2511562,3.09360159 10.8227967,3.22431854 10.7656876,3.23884128 C12.7360758,3.90694055 14.3780456,5.30125052 15.406092,7.11671589 L15.4203693,6.942443 C15.4632011,6.46315163 15.605974,5.91124656 15.805856,5.34481875 C16.005738,5.40290971 16.2056609,5.43195519 16.405543,5.43195519 C16.9338435,5.43195519 17.3907166,5.21411407 17.6763033,4.82195915 C17.961849,4.42980423 18.0760673,3.90694464 17.9475717,3.47122559 Z" id="Path" fill="#5E12A0"></path>
                <path d="M15.8915606,4.92357743 C17.1908755,5.28664596 17.7191351,4.26997226 17.5478077,3.58735434 C17.362203,2.90472823 16.762516,2.20757938 15.7059559,1.42328591 C14.6493549,0.638992429 13.5785175,0.319465533 12.8931669,0.464703171 C12.2078162,0.609942856 12.0078933,1.67019296 12.1792616,2.07686244 C12.2506481,2.23662487 12.4076982,2.46900918 12.6218575,2.73043897 C12.3505891,2.91925097 12.093557,3.06449066 11.8793977,3.1952076 C13.1929899,3.79068908 14.3352546,4.72021815 15.1919327,5.88211926 C15.2918737,5.49000525 15.4346466,5.14141855 15.5631421,4.83640008 C15.6630832,4.85092282 15.7773424,4.8799683 15.8915606,4.92357743 Z" id="Path" fill="url(#radialGradient-1)"></path>
                <path d="M8.45264444,19.1569274 C12.860685,19.1569274 16.4340975,15.5219876 16.4340975,11.0380606 C16.4340975,6.55413354 12.860685,2.91916915 8.45264444,2.91916915 C4.0445875,2.91916915 0.471162723,6.55413354 0.471162723,11.0380606 C0.471162723,15.5219876 4.0445875,19.1569274 8.45264444,19.1569274 Z" id="Path" fill="url(#radialGradient-2)"></path>
                <path d="M16.8910116,2.91922234 C15.8058969,1.75730486 14.8921097,1.45230275 13.7926768,1.2053957 C12.9359987,1.00206096 13.1644353,0.508246849 14.206759,0.609914219 C13.7070131,0.435624962 13.2358217,0.392053875 12.8931669,0.464674535 C12.2078162,0.609914219 12.0078933,1.67016023 12.1792616,2.0768338 C12.2506481,2.23659623 12.4076982,2.46898054 12.6218575,2.73041034 C12.2363708,2.99184013 11.9079523,3.18065213 11.6366839,3.32589182 C11.7651794,3.38398687 11.9222296,3.45660876 12.1078752,3.55827613 C12.5933029,3.81970592 13.1216035,4.25540861 13.1216035,4.25540861 C12.3220345,3.55827613 12.4933619,3.23874719 13.5927948,2.45445371 C13.9354497,2.20754666 14.5636912,2.23659623 15.1491008,2.54159834 C15.7345105,2.84660045 16.4198611,3.61637118 16.4198611,3.61637118 L15.7630651,4.89449104 C15.8058969,4.90901378 15.8487288,4.92353652 15.8915606,4.93805927 C16.3056429,5.05424119 16.6340204,5.02519571 16.8910116,4.92353652 C17.1908755,4.73469998 17.9761672,4.09565846 16.8910116,2.91922234 Z" id="Path" fill="#A98698" opacity="0.6"></path>
                <path d="M13.7783995,1.90262227 C14.0639862,2.01881648 14.4351956,2.22215121 14.8921097,2.52715332 C15.4346875,2.89025458 15.9058379,3.29692406 16.2057019,3.61644891 C15.7059559,4.28453591 15.3775374,5.19955042 15.1776554,5.83863285 C15.2775964,5.98386027 15.3918147,6.12908768 15.4917966,6.27431509 C15.5917376,5.91124656 15.7630651,5.37386423 15.9915016,4.83644099 C16.0486108,4.85100464 16.1199972,4.85100464 16.1914246,4.85100464 C16.362752,4.85100464 16.562634,4.82191825 16.7196842,4.69121358 C16.8339025,4.60407713 16.9624389,4.44432698 16.9481617,4.15383124 C16.9481617,3.8778828 16.7339614,3.52930837 16.2913656,3.10811206 C15.9772244,2.80310995 15.5489058,2.46905827 15.1205463,2.16405616 C13.8926178,1.33619037 13.0359397,1.10380606 12.650453,1.49595279 C12.3934209,1.75738259 12.4219755,2.07691153 12.5076392,2.30929584 C12.0507661,2.61429795 11.6652384,2.83215543 11.4082473,2.97739512 C11.5795747,3.03549017 11.7366249,3.10811206 11.9079932,3.18073395 C12.3648664,2.9338269 13.0216624,2.51263058 13.7783995,1.90262227 Z M16.4769703,3.97955017 C16.5198022,4.05216796 16.5340794,4.12478576 16.5340794,4.16835398 C16.5340794,4.29905865 16.4912476,4.34266779 16.462693,4.37171327 C16.4055839,4.41528149 16.2913656,4.44432698 16.1914246,4.44432698 C16.2770883,4.27001317 16.3770293,4.12478576 16.4769703,3.97955017 Z M12.950276,1.81548174 C12.9931079,1.77190942 13.1073262,1.74285985 13.2929718,1.77190942 C13.150158,1.88809953 13.0073852,1.9897669 12.8646123,2.09143427 C12.850335,1.9897669 12.8646123,1.88809953 12.950276,1.81548174 Z" id="Shape" fill="#5E12A0"></path>
                <path d="M8.45264444,2.43996779 C3.78369771,2.43996779 0,6.28879692 0,11.0381424 C0,15.7874878 3.78369771,19.6363415 8.45264444,19.6363415 C13.1216035,19.6363415 16.9052889,15.7874878 16.9052889,11.0381424 C16.9052889,6.28879692 13.1073262,2.43996779 8.45264444,2.43996779 Z M8.45264444,19.1570501 C4.04070523,19.1570501 0.471179087,15.5260376 0.471179087,11.0381424 C0.471179087,6.55024717 4.04070523,2.91925506 8.45264444,2.91925506 C12.8645714,2.91925506 16.4340975,6.55024717 16.4340975,11.0381424 C16.4340975,15.5260376 12.8502941,19.1570501 8.45264444,19.1570501 Z" id="Shape" fill="#5E12A0"></path>
                <path d="M8.45264444,19.1571319 C12.860685,19.1571319 16.4340975,15.5221921 16.4340975,11.0382651 C16.4340975,6.55433808 12.860685,2.91936961 8.45264444,2.91936961 C4.0445875,2.91936961 0.471162723,6.55433808 0.471162723,11.0382651 C0.471162723,15.5221921 4.0445875,19.1571319 8.45264444,19.1571319 Z" id="Path" fill="url(#linearGradient-3)" opacity="0.6"></path>
                <path d="M8.3955353,18.1695037 C4.04069295,17.4578485 1.08512286,13.2894945 1.79902808,8.85969029 C2.11314884,6.89895659 3.08405749,5.22867773 4.4547588,4.02319612 C2.45582007,5.19963224 0.970900473,7.24750238 0.57111191,9.74561841 C-0.128516032,14.1754226 2.82705407,18.3438175 7.16760685,19.0554728 C9.59486826,19.4621504 11.9365069,18.6924042 13.6641403,17.1818755 C12.1363889,18.0823673 10.2802189,18.4745222 8.3955353,18.1695037 Z" id="Path" fill="#A98698" opacity="0.6"></path>
                <path d="M9.72340475,3.03555563 C7.71018464,2.70150395 5.75411459,3.16627257 4.15493579,4.19748128 C4.12638122,4.22652677 4.09782664,4.25557225 4.09782664,4.25557225 C4.71179087,3.87794416 5.61130082,3.54389657 5.61130082,3.54389657 C3.29826588,4.90913651 2.58436065,6.46319254 2.58436065,6.46319254 C3.48388288,4.69129539 6.12532404,3.44222511 8.19565329,3.35508457 C10.2659825,3.26793994 11.6224066,3.89247099 13.2786536,5.24320047 C14.9349415,6.60846086 15.9343925,9.39703171 15.8344515,11.6046929 C15.7487878,13.8123132 14.6065231,15.598774 14.6065231,15.598774 C15.3918147,14.5675776 15.8630061,13.8123132 16.1628291,13.042567 C16.2199382,12.8101622 16.2770883,12.5777984 16.3056429,12.3308709 C17.0195481,7.91558938 14.0782225,3.74723131 9.72340475,3.03555563 Z" id="Path" fill="url(#linearGradient-4)" opacity="0.6"></path>
                <path d="M16.0343335,10.9655696 C16.0343335,15.2211009 12.6361348,18.6777997 8.45264444,18.6777997 C4.26915408,18.6777997 0.856686273,15.2211009 0.856686273,10.9655696 L16.0343335,10.9655696 Z" id="Path" fill="url(#linearGradient-5)"></path>
                <g id="Group" opacity="0.6" transform="translate(8.152821, 10.965570)" fill="url(#linearGradient-6)">
                    <path d="M7.28182514,0 C7.28182514,4.15383124 4.05499479,7.55243904 0,7.7122301 C0.0999410046,7.7122301 0.199882009,7.7122301 0.299823014,7.7122301 C4.48331338,7.7122301 7.88151208,4.25553134 7.88151208,0 L7.28182514,0 Z" id="Path"></path>
                </g>
                <g id="Group" opacity="0.7" transform="translate(0.856686, 10.965570)" fill="url(#linearGradient-7)">
                    <path d="M1.07085784,0 L0,0 C0,4.25553134 3.39819052,7.7122301 7.58168088,7.7122301 C7.76728561,7.7122301 7.93861304,7.7122301 8.10998139,7.69770736 C4.18348218,7.40721163 1.07085784,4.0666948 1.07085784,0 Z" id="Path"></path>
                </g>
                <path d="M16.0200562,11.0381833 C16.0200562,10.1522552 14.5065411,9.64391831 12.4933619,9.46960451 C11.0369969,9.35342258 9.56631369,9.49864999 7.88151208,10.0215096 C6.42514705,10.4572327 5.11155489,10.384619 4.15493579,10.2684371 C2.02748921,10.0215096 0.856686273,9.9924641 0.856686273,11.0381833 C0.856686273,12.5486711 3.8836428,14.4367911 8.42408987,13.7832268 C10.7228557,13.4491629 11.9079523,12.7665531 13.2643763,12.3017845 C14.7350186,11.8079704 16.0200562,11.8224931 16.0200562,11.0381833 Z" id="Path" fill="url(#linearGradient-8)"></path>
                <path d="M10.9370559,7.37820705 C11.6467475,7.37820705 12.2220935,6.79296104 12.2220935,6.07103762 C12.2220935,5.3491142 11.6467475,4.76386819 10.9370559,4.76386819 C10.2273643,4.76386819 9.65201832,5.3491142 9.65201832,6.07103762 C9.65201832,6.79296104 10.2273643,7.37820705 10.9370559,7.37820705 Z" id="Path" fill="#FFFFFF"></path>
                <path d="M13.0359397,8.3511898 C13.3355991,8.3511898 13.5785175,8.10409866 13.5785175,7.79928473 C13.5785175,7.4944708 13.3355991,7.24737965 13.0359397,7.24737965 C12.7362804,7.24737965 12.4933619,7.4944708 12.4933619,7.79928473 C12.4933619,8.10409866 12.7362804,8.3511898 13.0359397,8.3511898 Z" id="Path" fill="#FFFFFF"></path>
                <g id="Group" opacity="0.6" transform="translate(14.818455, 3.429335)" fill="url(#linearGradient-9)">
                    <path d="M0.161577485,1.59598298 C0.147094033,1.59598298 0.13261058,1.59598298 0.13261058,1.59598298 C0.0456683627,1.58146024 -0.0122654487,1.4943238 0.00221800417,1.3926237 C0.13261058,0.724536696 0.682981788,0.0854788129 0.711948694,0.0564333306 C0.769924005,-0.016188557 0.885791628,-0.016188557 0.943725439,0.0419105894 C1.0161427,0.100005645 1.0161427,0.216195756 0.958208892,0.274290812 C0.943725439,0.288813553 0.436763089,0.884286849 0.320895467,1.4652374 C0.306412014,1.55241476 0.23399475,1.59598298 0.161577485,1.59598298 Z" id="Path"></path>
                </g>
                <path d="M7.92528485,17.0946982 C8.14607142,17.0946982 8.32504887,16.9126116 8.32504887,16.6880205 C8.32504887,16.4634294 8.14607142,16.2813428 7.92528485,16.2813428 C7.70449827,16.2813428 7.52547992,16.4634294 7.52547992,16.6880205 C7.52547992,16.9126116 7.70449827,17.0946982 7.92528485,17.0946982 Z" id="Path" fill="#FFFFFF" opacity="0.2"></path>
                <g id="Group" opacity="0.4" transform="translate(7.521011, 16.296316)" fill="url(#linearGradient-10)">
                    <path d="M0.289921166,0.82677274 C0.0295837925,0.624646288 0.0295837925,0.29397859 0.289921166,0.091903886 C0.337255234,0.0551630307 0.384589302,0.036792603 0.43192337,0 C0.337255234,0.0184221754 0.266254132,0.0551630307 0.19525303,0.110274314 C-0.0650843435,0.312349018 -0.0650843435,0.643016716 0.19525303,0.845143168 C0.408256336,1.01047702 0.739594812,1.04721787 1,0.936995306 C0.763261846,1.01047702 0.479257438,0.973736162 0.289921166,0.82677274 Z" id="Path" opacity="0.6"></path>
                </g>
                <path d="M8.06715771,16.5718795 C8.11444867,16.5718795 8.15282143,16.5328931 8.15282143,16.484743 C8.15282143,16.4366339 8.11444867,16.3976066 8.06715771,16.3976066 C8.01982585,16.3976066 7.98149399,16.4366339 7.98149399,16.484743 C7.98149399,16.5328931 8.01982585,16.5718795 8.06715771,16.5718795 Z" id="Path" fill="#FFFFFF" opacity="0.3"></path>
                <path d="M10.0098914,16.8913389 C10.230678,16.8913389 10.4096554,16.7092932 10.4096554,16.4846612 C10.4096554,16.2600701 10.230678,16.0780245 10.0098914,16.0780245 C9.78910481,16.0780245 9.61008646,16.2600701 9.61008646,16.4846612 C9.61008646,16.7092932 9.78910481,16.8913389 10.0098914,16.8913389 Z" id="Path" fill="#FFFFFF" opacity="0.2"></path>
                <g id="Group" opacity="0.4" transform="translate(9.605617, 16.092793)" fill="url(#linearGradient-11)">
                    <path d="M0.289921166,0.826733408 C0.0295837925,0.624655669 0.0295837925,0.293931257 0.289921166,0.0918535177 C0.337255234,0.0551121106 0.384589302,0.0367414071 0.43192337,3.67694928e-15 C0.337255234,0.0183707035 0.266254132,0.0551121106 0.19525303,0.110224221 C-0.0650843435,0.31230196 -0.0650843435,0.643026372 0.19525303,0.845104111 C0.408256336,1.01049219 0.739594812,1.0472336 1,0.936957629 C0.763261846,1.01049219 0.479257438,0.973699036 0.289921166,0.826733408 Z" id="Path" opacity="0.6"></path>
                </g>
                <path d="M10.1517642,16.3685611 C10.1990552,16.3685611 10.237428,16.3295338 10.237428,16.2814247 C10.237428,16.2332746 10.1990552,16.1942473 10.1517642,16.1942473 C10.1044324,16.1942473 10.0661005,16.2332746 10.0661005,16.2814247 C10.0661005,16.3295338 10.1044324,16.3685611 10.1517642,16.3685611 Z" id="Path" fill="#FFFFFF" opacity="0.3"></path>
                <path d="M8.98094495,17.8353989 C9.14654511,17.8353989 9.28076796,17.6988442 9.28076796,17.5303804 C9.28076796,17.3619166 9.14654511,17.2253619 8.98094495,17.2253619 C8.81534479,17.2253619 8.68112193,17.3619166 8.68112193,17.5303804 C8.68112193,17.6988442 8.81534479,17.8353989 8.98094495,17.8353989 Z" id="Path" fill="#FFFFFF" opacity="0.2"></path>
                <g id="Group" opacity="0.4" transform="translate(8.681122, 17.240376)" fill="url(#linearGradient-12)">
                    <path d="M0.28125,0.802445143 C0.03125,0.607861099 0.03125,0.267458884 0.28125,0.0729433319 C0.3125,0.048628888 0.375,0.024314444 0.40625,0 C0.3125,0.024314444 0.25,0.0729433319 0.1875,0.12157222 C-0.0625,0.316087772 -0.0625,0.656489987 0.1875,0.851074031 C0.40625,1.02127514 0.71875,1.04558958 1,0.924017363 C0.75,0.996960695 0.46875,0.948331807 0.28125,0.802445143 Z" id="Path" opacity="0.6"></path>
                </g>
                <path d="M9.08088595,17.4286803 C9.11242689,17.4286803 9.1379951,17.4026621 9.1379951,17.3705484 C9.1379951,17.3384757 9.11242689,17.3124575 9.08088595,17.3124575 C9.04934501,17.3124575 9.02377681,17.3384757 9.02377681,17.3705484 C9.02377681,17.4026621 9.04934501,17.4286803 9.08088595,17.4286803 Z" id="Path" fill="#FFFFFF" opacity="0.3"></path>
                <path d="M10.8227967,17.6174759 C10.9883969,17.6174759 11.1226606,17.4809213 11.1226606,17.3124575 C11.1226606,17.1439937 10.9883969,17.007439 10.8227967,17.007439 C10.6571966,17.007439 10.5229737,17.1439937 10.5229737,17.3124575 C10.5229737,17.4809213 10.6571966,17.6174759 10.8227967,17.6174759 Z" id="Path" fill="#FFFFFF" opacity="0.2"></path>
                <g id="Group" opacity="0.4" transform="translate(10.522974, 17.022453)" fill="url(#linearGradient-13)">
                    <path d="M0.28125,0.802376651 C0.03125,0.607861099 0.03125,0.267458884 0.28125,0.0729433319 C0.3125,0.048628888 0.375,0.024314444 0.40625,0 C0.3125,0.024314444 0.25,0.0729433319 0.1875,0.12157222 C-0.0625,0.316087772 -0.0625,0.656489987 0.1875,0.851074031 C0.40625,1.02127514 0.71875,1.04558958 1,0.924017363 C0.75,0.996960695 0.46875,0.948331807 0.28125,0.802376651 Z" id="Path" opacity="0.6"></path>
                </g>
                <path d="M10.9227377,17.2107165 C10.9542787,17.2107165 10.9798469,17.1847392 10.9798469,17.1526255 C10.9798469,17.1205527 10.9542787,17.0945345 10.9227377,17.0945345 C10.8911968,17.0945345 10.8656286,17.1205527 10.8656286,17.1526255 C10.8656286,17.1847392 10.8911968,17.2107165 10.9227377,17.2107165 Z" id="Path" fill="#FFFFFF" opacity="0.3"></path>
                <path d="M6.22526504,16.9493889 C6.58796539,16.9493889 6.88202021,16.6502614 6.88202021,16.2813019 C6.88202021,15.9123016 6.58796539,15.613174 6.22526504,15.613174 C5.86252379,15.613174 5.56846896,15.9123016 5.56846896,16.2813019 C5.56846896,16.6502614 5.86252379,16.9493889 6.22526504,16.9493889 Z" id="Path" fill="#FFFFFF" opacity="0.2"></path>
                <g id="Group" opacity="0.4" transform="translate(5.575976, 15.656742)" fill="url(#linearGradient-14)">
                    <path d="M0.280563973,1.04571918 C0.021581844,0.784268931 0.021581844,0.363068529 0.280563973,0.101659188 C0.323727661,0.0580909646 0.366891349,0.0290454823 0.424442933,-2.90676852e-15 C0.338115557,0.0290454823 0.266176077,0.0871364469 0.194236596,0.145227412 C-0.0647455321,0.406677661 -0.0647455321,0.827837155 0.194236596,1.0892874 C0.410055037,1.30712852 0.741017871,1.35069675 1,1.19094659 C0.755405768,1.29260578 0.467606621,1.24903756 0.280563973,1.04571918 Z" id="Path" opacity="0.6"></path>
                </g>
                <path d="M6.45374253,16.0780654 C6.53257443,16.0780654 6.5965154,16.0130199 6.5965154,15.932797 C6.5965154,15.8525742 6.53257443,15.7875696 6.45374253,15.7875696 C6.37486973,15.7875696 6.31096967,15.8525742 6.31096967,15.932797 C6.31096967,16.0130199 6.37486973,16.0780654 6.45374253,16.0780654 Z" id="Path" fill="#FFFFFF" opacity="0.3"></path>
                <path d="M12.0939252,15.3082374 C12.4566665,15.3082374 12.7507213,15.0091098 12.7507213,14.6401094 C12.7507213,14.27115 12.4566665,13.9720224 12.0939252,13.9720224 C11.7312248,13.9720224 11.43717,14.27115 11.43717,14.6401094 C11.43717,15.0091098 11.7312248,15.3082374 12.0939252,15.3082374 Z" id="Path" fill="#FFFFFF" opacity="0.2"></path>
                <g id="Group" opacity="0.4" transform="translate(11.429633, 14.015591)" fill="url(#linearGradient-15)">
                    <path d="M0.280586216,1.04571918 C0.0215708706,0.784268931 0.0215708706,0.363068529 0.280586216,0.101659188 C0.32374857,0.0580909646 0.366910924,0.0290454823 0.424460728,0 C0.338136021,0.0290454823 0.266198765,0.0871364469 0.194261509,0.145227412 C-0.0647538365,0.406636752 -0.0647538365,0.827837155 0.194261509,1.0892874 C0.410073277,1.30712852 0.740984654,1.35069675 1,1.19094659 C0.755372105,1.29260578 0.482010533,1.24903756 0.280586216,1.04571918 Z" id="Path" opacity="0.6"></path>
                </g>
                <path d="M12.3219936,14.4368729 C12.4008664,14.4368729 12.4648074,14.3718683 12.4648074,14.2916455 C12.4648074,14.2114227 12.4008664,14.1464181 12.3219936,14.1464181 C12.2431617,14.1464181 12.1792207,14.2114227 12.1792207,14.2916455 C12.1792207,14.3718683 12.2431617,14.4368729 12.3219936,14.4368729 Z" id="Path" fill="#FFFFFF" opacity="0.3"></path>
            </g>
        </g>
    </g>
</svg>