<?xml version="1.0" encoding="UTF-8"?>
<svg width="180px" height="180px" viewBox="0 0 180 180" version="1.1" xmlns="http://www.w3.org/2000/svg" xmlns:xlink="http://www.w3.org/1999/xlink">
    <title>osmosis</title>
    <defs>
        <radialGradient cx="94.8810763%" cy="41.1205428%" fx="94.8810763%" fy="41.1205428%" r="117.060418%" gradientTransform="translate(0.948811,0.411205),scale(0.956438,1.000000),translate(-0.948811,-0.411205)" id="radialGradient-1">
            <stop stop-color="#FFEAFF" stop-opacity="0.6" offset="0%"></stop>
            <stop stop-color="#A087C9" offset="68.07%"></stop>
            <stop stop-color="#10002F" offset="100%"></stop>
        </radialGradient>
        <radialGradient cx="83.1042527%" cy="15.5291229%" fx="83.1042527%" fy="15.5291229%" r="97.8094318%" gradientTransform="translate(0.831043,0.155291),scale(1.000000,0.983075),translate(-0.831043,-0.155291)" id="radialGradient-2">
            <stop stop-color="#FFEAFF" stop-opacity="0.6" offset="0%"></stop>
            <stop stop-color="#A087C9" offset="68.07%"></stop>
            <stop stop-color="#10002F" offset="100%"></stop>
        </radialGradient>
        <linearGradient x1="42.2488775%" y1="99.2907939%" x2="58.2273255%" y2="0.714043314%" id="linearGradient-3">
            <stop stop-color="#81FFFF" offset="0%"></stop>
            <stop stop-color="#FFFFFF" stop-opacity="0" offset="62.02%"></stop>
        </linearGradient>
        <linearGradient x1="83.1152026%" y1="25.2233305%" x2="34.6427145%" y2="65.2843413%" id="linearGradient-4">
            <stop stop-color="#FFFFFF" offset="28.88%"></stop>
            <stop stop-color="#FFFFFF" stop-opacity="0" offset="77.96%"></stop>
        </linearGradient>
        <linearGradient x1="0.0423170556%" y1="49.9413858%" x2="99.9757418%" y2="49.9413858%" id="linearGradient-5">
            <stop stop-color="#0002E9" offset="0%"></stop>
            <stop stop-color="#FF00C7" offset="99.52%"></stop>
        </linearGradient>
        <linearGradient x1="109.063163%" y1="10.5265086%" x2="2.63107355%" y2="107.284648%" id="linearGradient-6">
            <stop stop-color="#FFFFFF" offset="28.88%"></stop>
            <stop stop-color="#FFFFFF" stop-opacity="0" offset="77.96%"></stop>
        </linearGradient>
        <linearGradient x1="0.0791954149%" y1="49.9413858%" x2="100.135692%" y2="49.9413858%" id="linearGradient-7">
            <stop stop-color="#000292" offset="0%"></stop>
            <stop stop-color="#7D00C7" offset="99.52%"></stop>
        </linearGradient>
        <linearGradient x1="0.109507424%" y1="50.1054142%" x2="100.002698%" y2="50.1054142%" id="linearGradient-8">
            <stop stop-color="#000292" offset="0%"></stop>
            <stop stop-color="#BE00C7" offset="99.52%"></stop>
        </linearGradient>
        <linearGradient x1="68.3425483%" y1="-0.895909002%" x2="23.9045049%" y2="110.791308%" id="linearGradient-9">
            <stop stop-color="#FFFFFF" offset="28.88%"></stop>
            <stop stop-color="#FFFFFF" stop-opacity="0" offset="77.96%"></stop>
        </linearGradient>
        <linearGradient x1="-0.0661185047%" y1="51.1836338%" x2="100.067814%" y2="51.1836338%" id="linearGradient-10">
            <stop stop-color="#FFFFFF" offset="28.88%"></stop>
            <stop stop-color="#FFFFFF" stop-opacity="0" offset="77.96%"></stop>
        </linearGradient>
        <linearGradient x1="-0.310248368%" y1="50.8325129%" x2="99.8304654%" y2="50.8325129%" id="linearGradient-11">
            <stop stop-color="#FFFFFF" offset="28.88%"></stop>
            <stop stop-color="#FFFFFF" stop-opacity="0" offset="77.96%"></stop>
        </linearGradient>
        <linearGradient x1="-0.411891117%" y1="49.2110648%" x2="98.8538682%" y2="49.2110648%" id="linearGradient-12">
            <stop stop-color="#FFFFFF" offset="28.88%"></stop>
            <stop stop-color="#FFFFFF" stop-opacity="0" offset="77.96%"></stop>
        </linearGradient>
        <linearGradient x1="-1.76396848%" y1="49.1151768%" x2="97.5017908%" y2="49.1151768%" id="linearGradient-13">
            <stop stop-color="#FFFFFF" offset="28.88%"></stop>
            <stop stop-color="#FFFFFF" stop-opacity="0" offset="77.96%"></stop>
        </linearGradient>
        <linearGradient x1="-0.661678313%" y1="49.8503876%" x2="98.7549729%" y2="49.8503876%" id="linearGradient-14">
            <stop stop-color="#FFFFFF" offset="28.88%"></stop>
            <stop stop-color="#FFFFFF" stop-opacity="0" offset="77.96%"></stop>
        </linearGradient>
        <linearGradient x1="-0.110276309%" y1="49.8122417%" x2="99.3074236%" y2="49.8122417%" id="linearGradient-15">
            <stop stop-color="#FFFFFF" offset="28.88%"></stop>
            <stop stop-color="#FFFFFF" stop-opacity="0" offset="77.96%"></stop>
        </linearGradient>
    </defs>
    <g id="Page-1" stroke="none" stroke-width="1" fill="none" fill-rule="evenodd">
        <g id="osmosis" fill-rule="nonzero">
            <circle id="Oval" fill="#5E12A0" cx="90" cy="90" r="90"></circle>
            <g id="Group-2" transform="translate(42.000000, 38.000000)">
                <path d="M95.7203823,18.5132031 C94.654345,14.4077592 91.2275781,10.3023153 85.0593541,5.73212186 C80.1096767,2.09144927 74.855417,0 70.6671946,0 C69.829376,0 69.0679205,0.0774574559 68.306465,0.232379131 C66.402609,0.619684954 64.7274074,2.01398374 63.6613701,4.10544392 C62.3666778,6.5841881 62.0620954,9.91502037 62.8999146,11.929015 C63.2044965,12.5486956 63.5852245,13.3233073 64.0420976,14.0204425 C60.0061664,16.4992085 57.7215824,17.1963655 57.4170005,17.2738201 C67.9257376,20.8370163 76.6829098,28.2733361 82.1658239,37.9558181 L82.2419695,37.0263626 C82.4704058,34.470142 83.2318613,31.5266483 84.2978986,28.5057 C85.3639359,28.8155184 86.4301914,28.9704277 87.4962293,28.9704277 C90.3138319,28.9704277 92.7504885,27.8086084 94.2736175,25.7171154 C95.7965279,23.6256225 96.4056922,20.8370381 95.7203823,18.5132031 Z" id="Path" fill="#5E12A0"></path>
                <path d="M84.7549898,26.2590796 C91.6846693,28.1954451 94.5020538,22.7731854 93.5883077,19.1325565 C92.5984159,15.4918839 89.4000853,11.7737567 83.7650981,7.59085818 C78.1298927,3.40795962 72.41876,1.70381617 68.7635568,2.47841691 C65.108353,3.25302856 64.0420976,8.90769578 64.9560618,11.0765997 C65.3367898,11.928666 66.1743904,13.168049 67.3165733,14.5623412 C65.8698085,15.5693385 64.4989706,16.3439502 63.3567877,17.0411072 C70.3626128,20.2170084 76.4546911,25.1744968 81.023641,31.3713027 C81.5566597,29.280028 82.3181151,27.4208989 83.0034245,25.7941337 C83.5364437,25.8715884 84.1458261,26.0264976 84.7549898,26.2590796 Z" id="Path" fill="url(#radialGradient-1)"></path>
                <path d="M45.0807703,102.170279 C68.59032,102.170279 87.6485199,82.7839338 87.6485199,58.8696565 C87.6485199,34.9553789 68.59032,15.5689021 45.0807703,15.5689021 C21.5711333,15.5689021 2.51286785,34.9553789 2.51286785,58.8696565 C2.51286785,82.7839338 21.5711333,102.170279 45.0807703,102.170279 Z" id="Path" fill="url(#radialGradient-2)"></path>
                <path d="M90.0853951,15.5691858 C84.2981167,9.37229258 79.424585,7.74561466 73.5609429,6.42877706 C68.991993,5.34432512 70.2103216,2.71064986 75.7693813,3.25287583 C73.1040698,2.32333313 70.591049,2.090954 68.7635568,2.47826418 C65.108353,3.25287583 64.0420976,8.90752122 64.9560618,11.0764469 C65.3367898,11.9285132 66.1743904,13.1678962 67.3165733,14.5621885 C65.2606442,15.9564807 63.5090789,16.963478 62.0623141,17.7380897 C62.7476234,18.04793 63.5852245,18.4352467 64.5753344,18.9774727 C67.1642821,20.3717649 69.9818853,22.6955126 69.9818853,22.6955126 C65.7175173,18.9774727 66.6312634,17.2733183 72.4949056,13.0904198 C74.3223983,11.7735822 77.6730197,11.9285132 80.7952042,13.5551911 C83.9173893,15.1818691 87.5725925,19.2873129 87.5725925,19.2873129 L84.0696805,26.1039522 C84.2981167,26.1814068 84.5265535,26.2588614 84.7549898,26.3363161 C86.9634287,26.955953 88.7147754,26.8010438 90.0853951,26.2588614 C91.6846693,25.2517332 95.8728917,21.8435118 90.0853951,15.5691858 Z" id="Path" fill="#A98698" opacity="0.6"></path>
                <path d="M73.4847973,10.1473188 C75.0079263,10.7670212 76.9877098,11.8514731 79.424585,13.478151 C82.3183333,15.4146911 84.8311354,17.583595 86.4304101,19.2877275 C83.7650981,22.8508582 82.0135327,27.7309356 80.9474954,31.1393752 C81.4805141,31.9139214 82.0896783,32.6884676 82.6229151,33.4630138 C83.1559338,31.5266483 84.0696805,28.6606092 85.2880085,25.7943519 C85.5925909,25.8720247 85.9733183,25.8720247 86.3542645,25.8720247 C87.2680106,25.8720247 88.3340479,25.7168973 89.171649,25.0198057 C89.7808133,24.555078 90.4663407,23.7030772 90.3901957,22.1537666 C90.3901957,20.6820416 89.2477941,18.822978 86.8872831,16.5765976 C85.2118634,14.9499197 82.9274975,13.1683108 80.6429135,11.5416328 C74.0939615,7.12634864 69.5250117,5.88696565 67.4690826,7.97841487 C66.0982448,9.37270714 66.250536,11.0768615 66.707409,12.3162445 C64.2707525,13.9429224 62.2146048,15.1048289 60.8439856,15.8794406 C61.7577317,16.1892809 62.5953328,16.5765976 63.509297,16.9639144 C65.9459541,15.6470768 69.4488661,13.4006964 73.4847973,10.1473188 Z M87.8771749,21.2242676 C88.1056117,21.6115624 88.1817567,21.9988574 88.1817567,22.2312212 C88.1817567,22.9283128 87.9533205,23.1608949 87.8010293,23.3158041 C87.4964474,23.5481679 86.8872831,23.7030772 86.3542645,23.7030772 C86.8111375,22.7734036 87.3441562,21.9988574 87.8771749,21.2242676 Z M69.0681386,9.68256927 C69.2965754,9.45018357 69.9057397,9.29525253 70.8958496,9.45018357 C70.134176,10.0698642 69.372721,10.6120901 68.6112656,11.1543161 C68.53512,10.6120901 68.6112656,10.0698642 69.0681386,9.68256927 Z" id="Shape" fill="#5E12A0"></path>
                <path d="M45.0807703,13.0131615 C20.1797211,13.0131615 0,33.5402502 0,58.8700928 C0,84.1999349 20.1797211,104.727155 45.0807703,104.727155 C69.9818853,104.727155 90.1615407,84.1999349 90.1615407,58.8700928 C90.1615407,33.5402502 69.9057397,13.0131615 45.0807703,13.0131615 Z M45.0807703,102.170934 C21.5504279,102.170934 2.51295513,82.8055338 2.51295513,58.8700928 C2.51295513,34.9346515 21.5504279,15.5693603 45.0807703,15.5693603 C68.6110474,15.5693603 87.6485199,34.9346515 87.6485199,58.8700928 C87.6485199,82.8055338 68.5349018,102.170934 45.0807703,102.170934 Z" id="Shape" fill="#5E12A0"></path>
                <path d="M45.0807703,102.17137 C68.59032,102.17137 87.6485199,82.7850245 87.6485199,58.8707472 C87.6485199,34.9564697 68.59032,15.5699712 45.0807703,15.5699712 C21.5711333,15.5699712 2.51286785,34.9564697 2.51286785,58.8707472 C2.51286785,82.7850245 21.5711333,102.17137 45.0807703,102.17137 Z" id="Path" fill="url(#linearGradient-3)" opacity="0.6"></path>
                <path d="M44.7761882,96.9040197 C21.5503624,93.1085253 5.78732192,70.877304 9.59481642,47.2516815 C11.2701271,36.7944351 16.4483066,27.8862812 23.7587136,21.457046 C13.097707,27.7313719 5.17813585,38.653346 3.04593018,51.9766315 C-0.685418837,75.6022538 15.0776217,97.8336933 38.2272365,101.629188 C51.1726307,103.798135 63.6613701,99.6928223 72.8754149,91.6366693 C64.7274074,96.4392922 54.8278341,98.530785 44.7761882,96.9040197 Z" id="Path" fill="#A98698" opacity="0.6"></path>
                <path d="M51.8581586,16.18963 C41.1209847,14.4080211 30.6886111,16.886787 22.1596575,22.3865668 C22.0073665,22.5414761 21.8550754,22.6963853 21.8550754,22.6963853 C25.1295513,20.6823688 29.9269377,18.9007817 29.9269377,18.9007817 C17.5907513,26.1820614 13.7832568,34.4703602 13.7832568,34.4703602 C18.5807087,25.0202421 32.6683949,18.3585339 43.7101509,17.8937844 C54.7519066,17.429013 61.9861685,20.7598453 70.8194858,27.9637358 C79.6530213,35.2451246 84.9834266,50.1175024 84.4504079,61.8916954 C83.9935349,73.6656703 77.9014565,83.1934613 77.9014565,83.1934613 C82.0896783,77.6937471 84.6026991,73.6656703 86.2017551,69.5603573 C86.506337,68.320865 86.8111375,67.0815914 86.9634287,65.7646448 C90.7709231,42.2164767 75.0838533,19.9852336 51.8581586,16.18963 Z" id="Path" fill="url(#linearGradient-4)" opacity="0.6"></path>
                <path d="M85.5164453,58.4830378 C85.5164453,81.1792047 67.3927189,99.6149317 45.0807703,99.6149317 C22.7688217,99.6149317 4.56899345,81.1792047 4.56899345,58.4830378 L85.5164453,58.4830378 Z" id="Path" fill="url(#linearGradient-5)"></path>
                <g id="Group" opacity="0.6" transform="translate(43.481712, 58.483040)" fill="url(#linearGradient-6)">
                    <path d="M38.8364007,0 C38.8364007,22.1537666 21.6266389,40.2796749 0,41.1318938 C0.533018691,41.1318938 1.06603738,41.1318938 1.59905607,41.1318938 C23.9110047,41.1318938 42.0347311,22.6961671 42.0347311,0 L38.8364007,0 Z" id="Path"></path>
                </g>
                <g id="Group" opacity="0.7" transform="translate(4.568992, 58.483040)" fill="url(#linearGradient-7)">
                    <path d="M5.71124181,0 L0,0 C0,22.6961671 18.1236828,41.1318938 40.4356313,41.1318938 C41.4255232,41.1318938 42.3392695,41.1318938 43.2532341,41.0544392 C22.3119049,39.5051287 5.71124181,21.6890389 5.71124181,0 Z" id="Path"></path>
                </g>
                <path d="M85.4402997,58.8703109 C85.4402997,54.145361 77.3682191,51.434231 66.6312634,50.5045574 C58.8639834,49.8849204 51.0203396,50.6594666 42.0347311,53.4480512 C34.2674509,55.7719077 27.2616261,55.3846346 22.1596575,54.7649978 C10.8132758,53.4480512 4.56899345,53.2931418 4.56899345,58.8703109 C4.56899345,66.9262458 20.7127616,76.9962191 44.9284793,73.5105429 C57.1885637,71.7288688 63.5090789,68.0882832 70.7433402,65.6095173 C78.5867658,62.9758421 85.4402997,63.0532965 85.4402997,58.8703109 Z" id="Path" fill="url(#linearGradient-8)"></path>
                <path d="M58.3309648,39.3504376 C62.1159866,39.3504376 65.1844986,36.2291255 65.1844986,32.3788673 C65.1844986,28.528609 62.1159866,25.407297 58.3309648,25.407297 C54.5459429,25.407297 51.477431,28.528609 51.477431,32.3788673 C51.477431,36.2291255 54.5459429,39.3504376 58.3309648,39.3504376 Z" id="Path" fill="#FFFFFF"></path>
                <path d="M69.5250117,44.5396789 C71.1231952,44.5396789 72.41876,43.2218595 72.41876,41.5961852 C72.41876,39.9705109 71.1231952,38.6526914 69.5250117,38.6526914 C67.9268288,38.6526914 66.6312634,39.9705109 66.6312634,41.5961852 C66.6312634,43.2218595 67.9268288,44.5396789 69.5250117,44.5396789 Z" id="Path" fill="#FFFFFF"></path>
                <g id="Group" opacity="0.6" transform="translate(79.031760, 18.289787)" fill="url(#linearGradient-9)">
                    <path d="M0.861746593,8.51190922 C0.784501515,8.51190922 0.707256433,8.51190922 0.707256433,8.51190922 C0.243564607,8.43445461 -0.0654157199,7.96972693 0.0118293621,7.42732639 C0.707256433,3.86419571 3.64256954,0.455887002 3.79705971,0.300977763 C4.10626136,-0.0863389708 4.72422202,-0.0863389708 5.03320234,0.223523143 C5.41942774,0.533363439 5.41942774,1.15304403 5.11044743,1.46288433 C5.03320234,1.54033895 2.32940315,4.71619652 1.7114425,7.81459946 C1.63419741,8.27954538 1.24797201,8.51190922 0.861746593,8.51190922 Z" id="Path"></path>
                </g>
                <path d="M42.2681858,91.1717237 C43.4457142,91.1717237 44.4002606,90.2005951 44.4002606,89.0027759 C44.4002606,87.8049567 43.4457142,86.8338282 42.2681858,86.8338282 C41.0906574,86.8338282 40.1358929,87.8049567 40.1358929,89.0027759 C40.1358929,90.2005951 41.0906574,91.1717237 42.2681858,91.1717237 Z" id="Path" fill="#FFFFFF" opacity="0.2"></path>
                <g id="Group" opacity="0.4" transform="translate(40.112059, 86.913685)" fill="url(#linearGradient-10)">
                    <path d="M1.54624622,4.40945461 C0.157780227,3.33144687 0.157780227,1.56788581 1.54624622,0.49015406 C1.79869458,0.294202831 2.05114294,0.196227217 2.30359131,0 C1.79869458,0.0982516032 1.42002204,0.294202831 1.04134949,0.588129675 C-0.347116498,1.66586143 -0.347116498,3.42942248 1.04134949,4.50743023 C2.17736712,5.38921077 3.94450566,5.58516197 5.33333333,4.9973083 C4.07072984,5.38921077 2.55603967,5.19325953 1.54624622,4.40945461 Z" id="Path" opacity="0.6"></path>
                </g>
                <path d="M43.0248411,88.3833573 C43.2770595,88.3833573 43.4817143,88.1754298 43.4817143,87.9186293 C43.4817143,87.6620474 43.2770595,87.4539018 43.0248411,87.4539018 C42.7724045,87.4539018 42.5679679,87.6620474 42.5679679,87.9186293 C42.5679679,88.1754298 42.7724045,88.3833573 43.0248411,88.3833573 Z" id="Path" fill="#FFFFFF" opacity="0.3"></path>
                <path d="M53.3860874,90.0871407 C54.563616,90.0871407 55.5181621,89.1162303 55.5181621,87.918193 C55.5181621,86.7203738 54.563616,85.7494639 53.3860874,85.7494639 C52.208559,85.7494639 51.2537944,86.7203738 51.2537944,87.918193 C51.2537944,89.1162303 52.208559,90.0871407 53.3860874,90.0871407 Z" id="Path" fill="#FFFFFF" opacity="0.2"></path>
                <g id="Group" opacity="0.4" transform="translate(51.229957, 85.828229)" fill="url(#linearGradient-11)">
                    <path d="M1.54624622,4.40924484 C0.157780227,3.3314969 0.157780227,1.56763337 1.54624622,0.489885427 C1.79869458,0.293931256 2.05114294,0.195954171 2.30359131,7.04709265e-17 C1.79869458,0.0979770853 1.42002204,0.293931256 1.04134949,0.587862512 C-0.347116498,1.66561045 -0.347116498,3.42947398 1.04134949,4.50722192 C2.17736712,5.38929168 3.94450566,5.58524586 5.33333333,4.99710735 C4.07072984,5.38929168 2.55603967,5.19306152 1.54624622,4.40924484 Z" id="Path" opacity="0.6"></path>
                </g>
                <path d="M54.1427424,87.2989925 C54.394961,87.2989925 54.599616,87.0908469 54.599616,86.834265 C54.599616,86.5774645 54.394961,86.3693189 54.1427424,86.3693189 C53.8903061,86.3693189 53.6858693,86.5774645 53.6858693,86.834265 C53.6858693,87.0908469 53.8903061,87.2989925 54.1427424,87.2989925 Z" id="Path" fill="#FFFFFF" opacity="0.3"></path>
                <path d="M47.898373,95.1221274 C48.7815739,95.1221274 49.4974291,94.3938357 49.4974291,93.4953621 C49.4974291,92.5968885 48.7815739,91.8685967 47.898373,91.8685967 C47.0151722,91.8685967 46.2993169,92.5968885 46.2993169,93.4953621 C46.2993169,94.3938357 47.0151722,95.1221274 47.898373,95.1221274 Z" id="Path" fill="#FFFFFF" opacity="0.2"></path>
                <g id="Group" opacity="0.4" transform="translate(46.299317, 91.948672)" fill="url(#linearGradient-12)">
                    <path d="M1.5,4.27970743 C0.166666667,3.24192586 0.166666667,1.42644738 1.5,0.389031104 C1.66666667,0.25935407 2,0.129677036 2.16666667,0 C1.66666667,0.129677036 1.33333333,0.389031104 1,0.648385174 C-0.333333333,1.68580145 -0.333333333,3.50127993 1,4.5390615 C2.16666667,5.44680074 3.83333333,5.57647776 5.33333333,4.9280926 C4,5.3171237 2.5,5.05776964 1.5,4.27970743 Z" id="Path" opacity="0.6"></path>
                </g>
                <path d="M48.4313917,92.9529615 C48.59961,92.9529615 48.7359738,92.8141978 48.7359738,92.6429247 C48.7359738,92.4718703 48.59961,92.3331066 48.4313917,92.3331066 C48.2631734,92.3331066 48.1268096,92.4718703 48.1268096,92.6429247 C48.1268096,92.8141978 48.2631734,92.9529615 48.4313917,92.9529615 Z" id="Path" fill="#FFFFFF" opacity="0.3"></path>
                <path d="M57.7215824,93.9598714 C58.6047834,93.9598714 59.3208565,93.2315802 59.3208565,92.3331066 C59.3208565,91.434633 58.6047834,90.7063413 57.7215824,90.7063413 C56.8383818,90.7063413 56.1225264,91.434633 56.1225264,92.3331066 C56.1225264,93.2315802 56.8383818,93.9598714 57.7215824,93.9598714 Z" id="Path" fill="#FFFFFF" opacity="0.2"></path>
                <g id="Group" opacity="0.4" transform="translate(56.122528, 90.786416)" fill="url(#linearGradient-13)">
                    <path d="M1.5,4.27934214 C0.166666667,3.24192586 0.166666667,1.42644738 1.5,0.389031104 C1.66666667,0.25935407 2,0.129677036 2.16666667,0 C1.66666667,0.129677036 1.33333333,0.389031104 1,0.648385174 C-0.333333333,1.68580145 -0.333333333,3.50127993 1,4.5390615 C2.16666667,5.44680074 3.83333333,5.57647776 5.33333333,4.9280926 C4,5.3171237 2.5,5.05776964 1.5,4.27934214 Z" id="Path" opacity="0.6"></path>
                </g>
                <path d="M58.254601,91.7904879 C58.4228197,91.7904879 58.5591834,91.6519423 58.5591834,91.4806693 C58.5591834,91.3096143 58.4228197,91.1708506 58.254601,91.1708506 C58.0863829,91.1708506 57.9500192,91.3096143 57.9500192,91.4806693 C57.9500192,91.6519423 58.0863829,91.7904879 58.254601,91.7904879 Z" id="Path" fill="#FFFFFF" opacity="0.3"></path>
                <path d="M33.2014135,90.3967407 C35.1358154,90.3967407 36.7041078,88.8013941 36.7041078,86.8336101 C36.7041078,84.8656085 35.1358154,83.2702613 33.2014135,83.2702613 C31.2667935,83.2702613 29.6985011,84.8656085 29.6985011,86.8336101 C29.6985011,88.8013941 31.2667935,90.3967407 33.2014135,90.3967407 Z" id="Path" fill="#FFFFFF" opacity="0.2"></path>
                <g id="Group" opacity="0.4" transform="translate(29.738539, 83.502624)" fill="url(#linearGradient-14)">
                    <path d="M1.49634119,5.57716896 C0.115103168,4.18276763 0.115103168,1.93636549 1.49634119,0.542182336 C1.72654752,0.309818478 1.95675386,0.154909239 2.26369564,-1.07672832e-16 C1.80328297,0.154909239 1.41960574,0.464727716 1.03592851,0.774546197 C-0.345309504,2.16894752 -0.345309504,4.41513149 1.03592851,5.8095328 C2.1869602,6.9713521 3.95209531,7.203716 5.33333333,6.35171514 C4.02883076,6.89389749 2.49390198,6.66153365 1.49634119,5.57716896 Z" id="Path" opacity="0.6"></path>
                </g>
                <path d="M34.4199601,85.7496821 C34.8403969,85.7496821 35.1814154,85.4027727 35.1814154,84.9749173 C35.1814154,84.5470623 34.8403969,84.2003711 34.4199601,84.2003711 C33.9993052,84.2003711 33.6585049,84.5470623 33.6585049,84.9749173 C33.6585049,85.4027727 33.9993052,85.7496821 34.4199601,85.7496821 Z" id="Path" fill="#FFFFFF" opacity="0.3"></path>
                <path d="M64.5009344,81.6439327 C66.4355546,81.6439327 68.0038469,80.0485855 68.0038469,78.0805834 C68.0038469,76.1127999 66.4355546,74.5174527 64.5009344,74.5174527 C62.5665322,74.5174527 60.99824,76.1127999 60.99824,78.0805834 C60.99824,80.0485855 62.5665322,81.6439327 64.5009344,81.6439327 Z" id="Path" fill="#FFFFFF" opacity="0.2"></path>
                <g id="Group" opacity="0.4" transform="translate(60.958043, 74.749819)" fill="url(#linearGradient-15)">
                    <path d="M1.49645982,5.57716896 C0.115044644,4.18276763 0.115044644,1.93636549 1.49645982,0.542182336 C1.72665904,0.309818478 1.95685826,0.154909239 2.26379055,0 C1.80339211,0.154909239 1.41972675,0.464727716 1.03606138,0.774546197 C-0.345353794,2.16872934 -0.345353794,4.41513149 1.03606138,5.8095328 C2.18705748,6.9713521 3.95191815,7.203716 5.33333333,6.35171514 C4.02865122,6.89389749 2.57072284,6.66153365 1.49645982,5.57716896 Z" id="Path" opacity="0.6"></path>
                </g>
                <path d="M65.7172992,76.9966554 C66.1379541,76.9966554 66.4789728,76.6499642 66.4789728,76.2221093 C66.4789728,75.7942543 66.1379541,75.4475631 65.7172992,75.4475631 C65.2968624,75.4475631 64.9558437,75.7942543 64.9558437,76.2221093 C64.9558437,76.6499642 65.2968624,76.9966554 65.7172992,76.9966554 Z" id="Path" fill="#FFFFFF" opacity="0.3"></path>
            </g>
        </g>
    </g>
</svg>