<?xml version="1.0" encoding="UTF-8"?>
<svg width="180px" height="180px" viewBox="0 0 180 180" version="1.1" xmlns="http://www.w3.org/2000/svg" xmlns:xlink="http://www.w3.org/1999/xlink">
    <title>polkadot</title>
    <g id="Page-1" stroke="none" stroke-width="1" fill="none" fill-rule="evenodd">
        <g id="polkadot" fill-rule="nonzero">
            <circle id="Oval" fill="#000000" cx="90" cy="90" r="90"></circle>
            <path d="M88.7023669,36 C66.2579607,36.084469 48.0840102,54.3577407 48,76.9248064 C48,81.4449931 48.723746,85.9357025 50.144918,90.2240848 C51.2042973,93.1378984 54.3406351,94.7146373 57.2946436,93.8184843 C60.1612877,92.7231704 61.6833779,89.5723294 60.7673675,86.6296852 C59.5584186,83.2947717 59.0202895,79.7516364 59.184214,76.2059266 C59.654955,60.2518675 72.6505717,47.5622266 88.524895,47.5560578 C104.399219,47.5498891 117.404587,60.2294261 117.887593,76.1831143 C118.370599,92.1368026 106.156359,105.588244 90.3110551,106.552928 C90.3110551,106.552928 84.6168094,106.912369 81.7569191,107.271808 C80.7082234,107.420617 79.6682939,107.626311 78.6416815,107.887991 C78.4891931,108.002983 78.2758142,107.987735 78.1410322,107.852216 C78.0062501,107.716698 77.9910857,107.502153 78.1054522,107.348831 L78.9991678,102.496392 L84.3614621,78.0801491 C85.0031231,75.0528227 83.0824985,72.075678 80.0716267,71.4305101 C77.0607548,70.7853421 74.0997917,72.7164631 73.4581304,75.7437895 C73.4581304,75.7437895 60.6907633,135.359474 60.6907633,135.898633 C60.3354446,137.352359 60.5912879,138.889053 61.3981004,140.147176 C62.204913,141.405298 63.4914638,142.273773 64.9550639,142.548272 C66.4040541,142.897322 67.9320181,142.633386 69.1820669,141.818113 C70.4321156,141.002839 71.2947779,139.707624 71.5685601,138.234993 C71.7473032,137.516113 73.3559916,129.608434 73.3559916,129.608434 C74.5696731,123.64685 79.3491122,119.076959 85.331782,118.157704 C86.5574493,117.977984 91.7410004,117.618544 91.7410004,117.618544 C113.249689,115.619737 129.453761,97.0662846 128.645758,75.3630772 C127.837754,53.6598697 110.299484,36.3764029 88.7023669,36 Z" fill="#FFFFFF"></path>
            <path d="M115.570634,129.835521 C113.613881,129.44103 111.57972,129.83846 109.918484,130.939826 C108.257248,132.041193 107.105979,133.755639 106.719552,135.703611 C106.298915,137.651812 106.688664,139.686376 107.800108,141.344322 C108.911551,143.002268 110.650151,144.142572 112.620274,144.505747 C114.578154,144.948641 116.633028,144.570651 118.30206,143.460592 C119.971092,142.350533 121.107136,140.606271 121.443256,138.637656 C122.130543,134.621671 119.558569,130.766687 115.570634,129.835521 L115.570634,129.835521 Z" fill="#E7137D"></path>
        </g>
    </g>
</svg>