<svg width="30.000000000000004" height="30.000000000000004" xmlns="http://www.w3.org/2000/svg">
    <g>
     <title>Layer 1</title>
     <g  fill="none" fill-rule="evenodd">
      <g id="2" fill="#8247E5">
       <circle  fill-opacity="0.1" cx="15" cy="15" r="15"/>
       <g  fill-rule="nonzero" stroke="null">
        <path stroke="null" id="svg_10" d="m19.06543,12.2897c-0.29459,-0.17676 -0.67757,-0.17676 -1.00163,0l-2.29785,1.35515l-1.56136,0.88379l-2.29785,1.35515c-0.29459,0.17676 -0.67757,0.17676 -1.00163,0l-1.8265,-1.06055c-0.29459,-0.17676 -0.50082,-0.50082 -0.50082,-0.85433l0,-2.09163c0,-0.35352 0.17676,-0.67757 0.50082,-0.85433l1.79704,-1.03109c0.29459,-0.17676 0.67757,-0.17676 1.00163,0l1.79704,1.03109c0.29459,0.17676 0.50082,0.50082 0.50082,0.85433l0,1.35515l1.56136,-0.91325l0,-1.35515c0,-0.35352 -0.17676,-0.67757 -0.50082,-0.85433l-3.32893,-1.94433c-0.29459,-0.17676 -0.67757,-0.17676 -1.00163,0l-3.38785,1.94433c-0.32406,0.17676 -0.50082,0.50082 -0.50082,0.85433l0,3.91813c0,0.35352 0.17676,0.67757 0.50082,0.85433l3.38785,1.94433c0.29459,0.17676 0.67757,0.17676 1.00163,0l2.29785,-1.32568l1.56136,-0.91325l2.29785,-1.32568c0.29459,-0.17676 0.67757,-0.17676 1.00163,0l1.79704,1.03109c0.29459,0.17676 0.50082,0.50082 0.50082,0.85433l0,2.09163c0,0.35352 -0.17676,0.67757 -0.50082,0.85433l-1.79704,1.06055c-0.29459,0.17676 -0.67757,0.17676 -1.00163,0l-1.79704,-1.03109c-0.29459,-0.17676 -0.50082,-0.50082 -0.50082,-0.85433l0,-1.35515l-1.56136,0.91325l0,1.35515c0,0.35352 0.17676,0.67757 0.50082,0.85433l3.38785,1.94433c0.29459,0.17676 0.67757,0.17676 1.00163,0l3.38785,-1.94433c0.29459,-0.17676 0.50082,-0.50082 0.50082,-0.85433l0,-3.91813c0,-0.35352 -0.17676,-0.67757 -0.50082,-0.85433l-3.41732,-1.9738l0.00001,-0.00001z" fill="#8247E5"/>
       </g>
      </g>
     </g>
    </g>
   </svg>