<?xml version="1.0" encoding="UTF-8"?>
<svg width="180px" height="181px" viewBox="0 0 180 181" version="1.1" xmlns="http://www.w3.org/2000/svg" xmlns:xlink="http://www.w3.org/1999/xlink">
    <title>polygon</title>
    <defs>
        <rect id="path-1" x="0" y="0" width="117.981095" height="103.388416"></rect>
    </defs>
    <g id="Page-1" stroke="none" stroke-width="1" fill="none" fill-rule="evenodd">
        <g id="polygon" transform="translate(-0.000000, 0.000000)">
            <path d="M89.9645925,0 L89.9645925,0 C139.693039,0 180,40.3069605 180,90.0354075 L180,90.0354075 C180,139.763854 139.693039,180.035396 90.0000117,180.035396 L90.0000117,180.035396 C40.2715647,180.035396 0,139.728435 0,90.0354075 L0,90.0354075 C-0.0353957966,40.3069605 40.2715647,0 89.9645925,0 Z" id="Oval" fill="#8247E5" fill-rule="nonzero"></path>
            <g id="Clipped" transform="translate(30.354211, 38.925615)">
                <mask id="mask-2" fill="white">
                    <use xlink:href="#path-1"></use>
                </mask>
                <g id="Mask"></g>
                <path d="M89.1145103,31.4875992 C86.9539439,30.24793 84.1912524,30.24793 81.747333,31.4875992 L64.5336398,41.6883063 L52.8453296,48.1700056 L35.9504086,58.3352935 C33.7898421,59.5749628 31.0271506,59.5749628 28.5832312,58.3352935 L15.3718988,50.2951529 C13.2113324,49.0554836 11.6883102,46.5761451 11.6883102,43.8134536 L11.6883102,28.3707165 C11.6883102,25.891378 12.9279794,23.4474586 15.3718988,21.8890172 L28.5832312,14.1676487 C30.7437977,12.9279794 33.5064892,12.9279794 35.9504086,14.1676487 L49.161741,22.2077893 C51.3223074,23.4474586 52.8453296,25.9267971 52.8453296,28.6894886 L52.8453296,38.8901957 L64.5336398,32.0897243 L64.5336398,21.6056643 C64.5336398,19.1263257 63.2939705,16.6824063 60.8500511,15.123965 L36.2691807,0.60212507 C34.1086142,-0.637544191 31.3459227,-0.637544191 28.9020033,0.60212507 L3.71900778,15.4427371 C1.27508838,16.6824063 0.0354191217,19.1617449 0.0354191217,21.6056643 L0.0354191217,50.613925 C0.0354191217,53.0932635 1.27508838,55.5371829 3.71900778,57.0956242 L28.6186504,71.6174642 C30.7792168,72.8571334 33.5419083,72.8571334 35.9858277,71.6174642 L52.8807488,61.7355292 L64.5690589,54.9350578 L81.46398,45.0531229 C83.6245464,43.8134536 86.3872379,43.8134536 88.8311573,45.0531229 L102.04249,52.7744914 C104.203056,54.0141607 105.726078,56.4934992 105.726078,59.2561907 L105.726078,74.6989277 C105.726078,77.1782663 104.486409,79.6221857 102.04249,81.180627 L89.1499294,88.9019956 C86.989363,90.1416648 84.2266715,90.1416648 81.7827521,88.9019956 L68.5360006,81.180627 C66.3754341,79.9409578 64.8524119,77.4616192 64.8524119,74.6989277 L64.8524119,64.8169928 L53.1641017,71.6174642 L53.1641017,81.8181712 C53.1641017,84.2975097 54.403771,86.7414291 56.8476904,88.2998705 L81.747333,102.82171 C83.9078994,104.06138 86.6705909,104.06138 89.1145103,102.82171 L114.014153,88.2998705 C116.174719,87.0602012 117.697742,84.5808627 117.697742,81.8181712 L117.697742,52.4911384 C117.697742,50.0117999 116.458072,47.5678805 114.014153,46.0094391 L89.1145103,31.4875992 Z" id="Path" fill="#FFFFFF" fill-rule="nonzero" mask="url(#mask-2)"></path>
            </g>
        </g>
    </g>
</svg>