<svg width="1502.000000" height="1502.000000" viewBox="0 0 1502 1502" fill="none" xmlns="http://www.w3.org/2000/svg" xmlns:xlink="http://www.w3.org/1999/xlink">
	<desc>
			Created with Pixso.
	</desc>
	<defs>
		<linearGradient id="paint_linear_2_4_0" x1="1039.488892" y1="317.081238" x2="461.162292" y2="1185.117432" gradientUnits="userSpaceOnUse">
			<stop stop-color="#00EAFF"/>
			<stop offset="0.252531" stop-color="#0080FF"/>
			<stop offset="0.497394" stop-color="#8000FF"/>
			<stop offset="0.749912" stop-color="#E619E6"/>
			<stop offset="0.999136" stop-color="#FF0000"/>
		</linearGradient>
	</defs>
	<path id="Path" d="M1502 751C1502 1165.77 1165.77 1502 751 1502C336.234 1502 0 1165.77 0 751C0 336.234 336.234 0 751 0C1165.77 0 1502 336.234 1502 751Z" fill="#FFFFFF" fill-opacity="1.000000" fill-rule="nonzero"/>
	<path id="PulseChain-Logo-Shape" d="M1301 809.859C1301 815.081 1299.79 820.045 1297.5 824.354L1061.6 1232.94C1051.6 1250.27 1033.11 1260.94 1013.1 1260.94L488.902 1260.94C468.893 1260.94 450.404 1250.27 440.4 1232.94L204.479 824.315C202.194 820.014 201 815.073 201 809.859C201 792.947 214.709 779.238 231.621 779.238L490.446 779.238L556.039 890.652L556.442 891.318C565.195 905.372 583.612 909.952 597.962 901.504L598.704 901.053C605.32 896.901 610.11 890.369 612.072 882.785L695.651 559.683L767.417 1079.86L767.526 1080.58C770.177 1096.95 785.426 1108.29 801.936 1106.01L802.686 1105.9C814.639 1103.94 824.351 1095.11 827.396 1083.34L928.14 693.89L969.505 764.152L969.915 764.829C975.498 773.776 985.31 779.238 995.892 779.238L1270.38 779.238C1287.29 779.238 1301 792.947 1301 809.859ZM1013.1 241C1033.11 241 1051.6 251.675 1061.6 269.003L1297.51 677.609C1299.79 681.913 1301 686.875 1301 692.086C1301 708.997 1287.29 722.707 1270.38 722.707L1010.71 722.707L945.113 611.293L944.661 610.55C940.509 603.934 933.977 599.144 926.394 597.182L925.682 597.007C909.54 593.234 893.254 603.024 889.08 619.159L805.498 942.259L733.735 422.085L733.622 421.335C731.672 409.381 722.842 399.67 711.07 396.625C694.697 392.39 677.991 402.229 673.756 418.601L573.01 808.052L531.647 737.793L531.237 737.115C525.654 728.169 515.842 722.707 505.26 722.707L231.621 722.707C214.709 722.707 201 708.997 201 692.086C201 686.915 202.161 682.024 204.405 677.749L440.4 269.003C450.404 251.675 468.893 241 488.902 241L1013.1 241Z" fill="url(#paint_linear_2_4_0)" fill-opacity="1.000000" fill-rule="evenodd"/>
	<path id="PulseChain-Logo-Shape" d="M1297.5 824.354L1061.6 1232.94C1051.6 1250.27 1033.11 1260.94 1013.1 1260.94L488.902 1260.94C468.893 1260.94 450.404 1250.27 440.4 1232.94L204.479 824.315C202.194 820.014 201 815.073 201 809.859C201 792.947 214.709 779.238 231.621 779.238L490.446 779.238L556.039 890.652L556.442 891.318C565.195 905.372 583.612 909.952 597.962 901.504L598.704 901.053C605.32 896.901 610.11 890.369 612.072 882.785L695.651 559.683L767.417 1079.86L767.526 1080.58C770.177 1096.95 785.426 1108.29 801.936 1106.01L802.686 1105.9C814.639 1103.94 824.351 1095.11 827.396 1083.34L928.14 693.89L969.505 764.152L969.915 764.829C975.498 773.776 985.31 779.238 995.892 779.238L1270.38 779.238C1287.29 779.238 1301 792.947 1301 809.859C1301 815.081 1299.79 820.045 1297.5 824.354ZM1061.6 269.003L1297.51 677.609C1299.79 681.913 1301 686.875 1301 692.086C1301 708.997 1287.29 722.707 1270.38 722.707L1010.71 722.707L945.113 611.293L944.661 610.55C940.509 603.934 933.977 599.144 926.394 597.182L925.682 597.007C909.54 593.234 893.254 603.024 889.08 619.159L805.498 942.259L733.735 422.085L733.622 421.335C731.672 409.381 722.842 399.67 711.07 396.625C694.697 392.39 677.991 402.229 673.756 418.601L573.01 808.052L531.647 737.793L531.237 737.115C525.654 728.169 515.842 722.707 505.26 722.707L231.621 722.707C214.709 722.707 201 708.997 201 692.086C201 686.915 202.161 682.024 204.405 677.749L440.4 269.003C450.404 251.675 468.893 241 488.902 241L1013.1 241C1033.11 241 1051.6 251.675 1061.6 269.003Z" stroke="#000000" stroke-opacity="0" stroke-width="1.000000"/>
</svg>
