<svg width="180.000000" height="180.000000" viewBox="0 0 180 180" fill="none" xmlns="http://www.w3.org/2000/svg" xmlns:xlink="http://www.w3.org/1999/xlink">
	<desc>
			Created with Pixso.
	</desc>
	<defs/>
	<circle id="Oval" cx="89.550438" cy="89.299606" r="90.000000" fill="#FF9100" fill-opacity="1.000000"/>
	<path id="path" d="M90.09 56.4C101.02 56.4 109.89 47.58 109.89 36.7C109.89 25.82 101.02 17 90.09 17C79.16 17 70.3 25.82 70.3 36.7C70.3 47.58 79.16 56.4 90.09 56.4Z" fill="#FAF9F5" fill-opacity="1.000000" fill-rule="nonzero"/>
	<path id="path" d="M145.1 97.59C135.64 92.17 123.52 95.38 118.06 104.8C116.2 108.02 115.34 111.59 115.41 115.08C115.63 123.79 107.74 128.29 100.28 123.79C99.99 123.65 99.7 123.44 99.35 123.29C91.82 119.08 91.82 110.16 99.35 106.02C105.51 102.66 109.75 96.17 109.75 88.67C109.53 79.96 117.42 75.03 124.88 79.53C130.83 83.17 138.58 83.46 145.03 79.75C154.5 74.32 157.73 62.26 152.28 52.83C146.82 43.41 134.7 40.2 125.24 45.62C118.78 49.33 115.2 56.19 115.34 63.11C115.55 71.82 107.67 76.32 100.28 71.82C97.27 69.97 93.75 68.9 89.95 68.9C86.15 68.9 82.63 69.97 79.62 71.75C72.16 76.18 64.35 71.68 64.56 63.04C64.7 56.05 61.12 49.26 54.66 45.55C45.2 40.13 33.08 43.41 27.63 52.83C22.17 62.26 25.47 74.32 34.94 79.75C41.4 83.46 49.14 83.1 55.09 79.53C62.55 75.03 70.37 79.53 70.16 88.24C70.16 95.74 74.32 102.66 80.55 106.02C88.09 110.23 88.09 119.15 80.55 123.29C80.27 123.44 79.98 123.65 79.69 123.79C72.24 128.22 64.42 123.72 64.63 115.08C64.7 111.59 63.84 108.02 61.98 104.73C56.53 95.31 44.41 92.1 34.94 97.52C25.47 103.09 22.25 115.16 27.7 124.58C33.15 134 45.27 137.22 54.74 131.79C62.19 127.29 70.37 131.58 70.16 140.28C70.16 140.43 70.16 140.57 70.16 140.78C70.16 151.64 79.05 160.49 89.95 160.49C100.85 160.49 109.75 151.64 109.75 140.78C109.53 132.08 117.42 127.15 124.88 131.65C134.35 137.07 146.9 134.15 152.35 124.72C157.8 115.08 154.57 103.02 145.1 97.59Z" fill="#FAF9F5" fill-opacity="1.000000" fill-rule="nonzero"/>
</svg>
