<svg width="1503.000000" height="1502.000000" viewBox="0 0 1503 1502" fill="none" xmlns="http://www.w3.org/2000/svg" xmlns:xlink="http://www.w3.org/1999/xlink">
	<desc>
			Created with Pixso.
	</desc>
	<defs>
		<clipPath id="clip2_1">
			<rect id="scroll" width="1503.000000" height="1502.000000" fill="white"/>
		</clipPath>
	</defs>
	<g clip-path="url(#clip2_1)">
		<path id="Path" d="M1502 751C1502 1165.77 1165.77 1502 751 1502C336.234 1502 0 1165.77 0 751C0 336.234 336.234 0 751 0C1165.77 0 1502 336.234 1502 751Z" fill-rule="nonzero" fill="#FFEEDA"/>
		<path id="path" d="M1136.96 909.647L1136.96 388.084C1135.99 344.418 1101.54 309.485 1057.87 309.485L513.507 309.485C396.094 311.426 301.485 407.491 301.485 525.388C301.485 565.172 312.159 599.135 328.655 629.216C342.24 653.96 364.073 677.248 385.421 695.199C391.243 700.051 388.332 698.11 406.768 709.755C432.483 725.28 461.593 733.043 461.593 733.043L461.593 1045.01C462.078 1059.57 464.019 1074.12 467.415 1087.22C479.545 1130.89 510.111 1164.85 551.35 1181.34C568.817 1188.14 588.224 1192.99 609.086 1192.99L1043.8 1194.44C1130.65 1194.44 1201 1124.09 1201 1037.25C1201 984.364 1175.77 938.272 1136.96 909.647Z" fill-rule="nonzero" fill="#FFEEDA"/>
		<path id="path" d="M1147.15 1039.67C1145.2 1095.47 1099.6 1140.1 1043.8 1140.1L744.45 1139.13C768.224 1111.48 782.779 1075.58 782.779 1036.76C782.779 975.145 745.906 932.935 745.906 932.935L1043.8 932.935C1101.05 932.935 1147.15 979.512 1147.15 1036.76L1147.15 1039.67Z" fill-rule="nonzero" fill="#EBC28E"/>
		<path id="path" d="M413.076 650.078C378.628 617.571 354.369 575.361 354.369 524.903L354.369 519.566C357.28 434.175 427.631 365.28 513.022 362.369L1057.39 362.369C1071.46 362.854 1083.1 373.043 1083.1 387.598L1083.1 848.029C1095.72 850.455 1101.54 851.911 1113.67 856.277C1122.89 859.674 1136.47 867.436 1136.47 867.436L1136.47 387.598C1135.5 343.933 1101.05 309 1057.39 309L513.022 309C395.609 310.941 301 407.005 301 524.903C301 593.313 332.051 652.019 383.48 693.259C386.876 696.17 390.272 699.566 399.491 699.566C415.501 699.566 426.66 686.951 426.175 672.881C425.69 661.237 420.838 656.87 413.076 650.078Z" fill-rule="nonzero" fill="#190602"/>
		<path id="path" d="M1043.8 879.081L616.849 879.081C588.224 879.081 564.935 902.854 564.935 931.48L564.935 992.612C565.906 1020.75 590.164 1045.5 618.305 1045.5L649.841 1045.5L649.841 992.612L618.305 992.612L618.305 932.45C618.305 932.45 626.067 932.45 635.771 932.45C689.625 932.45 729.41 982.423 729.41 1036.28C729.41 1083.82 686.229 1144.47 613.938 1139.62C549.41 1135.25 514.962 1078 514.962 1036.28L514.962 515.685C514.962 492.396 496.04 472.989 472.267 472.989L429.571 472.989L429.571 526.358L461.108 526.358L461.108 1036.28C459.652 1140.1 534.854 1192.5 613.453 1192.5L1043.8 1193.96C1130.65 1193.96 1201 1123.61 1201 1036.76C1201 949.916 1130.65 879.081 1043.8 879.081ZM1147.15 1039.67C1145.21 1095.47 1099.6 1140.1 1043.8 1140.1L744.45 1139.13C768.224 1111.48 782.779 1075.58 782.779 1036.76C782.779 975.145 745.906 932.935 745.906 932.935L1043.8 932.935C1101.05 932.935 1147.15 979.512 1147.15 1036.76L1147.15 1039.67Z" fill-rule="nonzero" fill="#190602"/>
		<path id="path" d="M932.213 535.577L607.146 535.577L607.146 482.693L932.213 482.693C945.313 482.693 955.501 493.367 955.501 505.981L955.501 512.288C955.501 525.388 944.828 535.577 932.213 535.577Z" fill-rule="nonzero" fill="#190602"/>
		<path id="path" d="M932.213 786.412L607.146 786.412L607.146 733.528L932.213 733.528C945.313 733.528 955.501 744.202 955.501 756.817L955.501 763.124C955.501 775.738 944.828 786.412 932.213 786.412Z" fill-rule="nonzero" fill="#190602"/>
		<path id="path" d="M988.493 661.237L606.66 661.237L606.66 608.353L988.493 608.353C1001.59 608.353 1011.78 619.027 1011.78 631.642L1011.78 637.949C1012.27 650.563 1001.59 661.237 988.493 661.237Z" fill-rule="nonzero" fill="#190602"/>
	</g>
</svg>
