<?xml version="1.0" encoding="UTF-8"?>
<svg width="180px" height="180px" viewBox="0 0 180 180" version="1.1" xmlns="http://www.w3.org/2000/svg" xmlns:xlink="http://www.w3.org/1999/xlink">
    <title>sifchain</title>
    <g id="Page-1" stroke="none" stroke-width="1" fill="none" fill-rule="evenodd">
        <g id="sifchain" fill-rule="nonzero">
            <circle id="Oval" fill="#E5C971" cx="90" cy="90" r="90"></circle>
            <path d="M125.551187,36.6829009 C127.112776,30.9229422 124.569861,23.8488596 118.383239,24.0024585 C106.496391,23.8317931 104.559338,40.4290073 105.890528,54.93557 L93.2783526,65.687493 C88.5850524,61.6768548 82.0144332,60.8832606 76.1179422,62.2741842 C56.3719503,67.1210826 49.0930692,95.2723476 57.3532766,111.425831 C53.3170389,120.897764 53.8887682,132.52008 59.4012619,141.30935 C64.034829,150.567951 78.0976614,153.571663 75.2987478,147.495973 C74.641686,146.668246 74.641686,146.96691 73.63476,146.855977 C60.4423212,146.019717 57.1484781,126.205459 60.7921854,116.71646 C72.4827684,130.472095 98.2532502,125.761729 107.341185,113.50795 C120.789622,95.4856794 116.207255,73.6405026 113.433941,54.0139766 C118.340573,49.1244117 123.818933,43.7057839 125.551187,36.6914342 L125.551187,36.6829009 Z M59.5377943,105.537874 C52.8135758,79.3407282 75.2304816,58.135547 89.6602452,68.8106706 L89.6687784,68.8106706 C77.1200256,78.7633542 66.846345,91.2861306 59.5377943,105.537874 L59.5377943,105.537874 Z M101.675092,108.609852 C93.9098142,122.433752 70.7846472,125.471597 62.1319092,111.545297 C64.6430994,104.139983 68.502492,97.2630894 73.515294,91.2617094 L73.5835602,91.2361098 C79.2397404,84.4925526 85.4230866,78.209337 92.0751612,72.4458444 C95.0618064,81.627645 87.6975924,94.0350228 79.0960542,93.4291608 C79.6080504,101.535769 91.6399638,95.229681 93.9780804,91.9870374 C99.6100404,85.8430818 100.113503,74.5706292 96.094332,68.88747 L106.385458,60.234732 C108.518776,84.844689 109.986499,92.1235698 101.675092,108.618385 L101.675092,108.609852 Z M112.742746,48.4076168 C110.600895,25.367782 119.58643,27.6120326 120.738422,29.5917517 C123.836,35.8978399 115.618459,46.436431 112.742746,48.4076168 Z" id="Shape" fill="#000000"></path>
        </g>
    </g>
</svg>