<?xml version="1.0" encoding="UTF-8"?>
<svg width="31px" height="31px" viewBox="0 0 31 31" version="1.1" xmlns="http://www.w3.org/2000/svg" xmlns:xlink="http://www.w3.org/1999/xlink">
    <title>sifchain</title>
    <g id="Page-1" stroke="none" stroke-width="1" fill="none" fill-rule="evenodd">
        <g id="sifchain" transform="translate(0.781035, 0.281712)" fill-rule="nonzero">
            <circle  fill-opacity="0.5" fill="#E5C971" cx="15" cy="15" r="15"></circle>
            <path d="M20.9251979,6.11381682 C21.1854627,5.1538237 20.7616435,3.97480993 19.7305398,4.00040975 C17.7493985,3.97196551 17.4265563,6.73816789 17.6484214,9.15592833 L15.5463921,10.9479155 C14.7641754,10.2794758 13.6690722,10.1472101 12.6863237,10.3790307 C9.39532505,11.1868471 8.1821782,15.8787246 9.55887944,18.5709719 C8.88617315,20.1496273 8.98146136,22.08668 9.90021032,23.5515584 C10.6724715,25.0946585 13.0162769,25.5952771 12.5497913,24.5826622 C12.440281,24.4447076 12.440281,24.494485 12.27246,24.4759962 C10.0737202,24.3366195 9.52474635,21.0342432 10.1320309,19.4527434 C12.0804614,21.7453492 16.3755417,20.9602881 17.8901975,18.9179917 C20.1316036,15.9142799 19.3678758,12.2734171 18.9056569,9.00232944 C19.7234288,8.18740195 20.6364889,7.28429731 20.9251979,6.11523903 L20.9251979,6.11381682 Z M9.92296571,17.5896456 C8.80226264,13.2234547 12.5384136,9.68925784 14.9433742,11.4684451 L14.9447964,11.4684451 C12.8533376,13.1272257 11.1410575,15.2143551 9.92296571,17.5896456 L9.92296571,17.5896456 Z M16.9458487,18.101642 C15.6516357,20.4056254 11.7974412,20.9119329 10.3553182,18.5908829 C10.7738499,17.3566639 11.417082,16.2105149 12.252549,15.2102849 L12.2639267,15.2060183 C13.2066234,14.0820921 14.2371811,13.0348895 15.3458602,12.0743074 C15.8436344,13.6046075 14.6162654,15.6725038 13.1826757,15.5715268 C13.2680084,16.9226282 15.2733273,15.8716135 15.6630134,15.3311729 C16.6016734,14.3071803 16.6855839,12.4284382 16.015722,11.481245 L17.7309097,10.039122 C18.0864627,14.1407815 18.3310832,15.3539283 16.9458487,18.1030642 L16.9458487,18.101642 Z M18.7904577,8.06793614 C18.4334825,4.22796367 19.9310717,4.60200544 20.1230703,4.93195862 C20.6393333,5.98297331 19.2697431,7.73940516 18.7904577,8.06793614 Z" id="Shape" fill="#000000"></path>
        </g>
    </g>
</svg>