<?xml version="1.0" encoding="UTF-8"?>
<svg width="180px" height="180px" viewBox="0 0 180 180" version="1.1" xmlns="http://www.w3.org/2000/svg" xmlns:xlink="http://www.w3.org/1999/xlink">
    <title>solana</title>
    <defs>
        <linearGradient x1="96.961875%" y1="102.180625%" x2="-6.8228125%" y2="8.776%" id="linearGradient-1">
            <stop stop-color="#953EFF" offset="0%"></stop>
            <stop stop-color="#955FFF" offset="14%"></stop>
            <stop stop-color="#536DEA" offset="42%"></stop>
            <stop stop-color="#1FC5BA" offset="79%"></stop>
            <stop stop-color="#00FFAB" offset="99%"></stop>
            <stop stop-color="#00FFAB" offset="100%"></stop>
        </linearGradient>
    </defs>
    <g id="Page-1" stroke="none" stroke-width="1" fill="none" fill-rule="evenodd">
        <g id="solana" fill-rule="nonzero">
            <path d="M90,180 C40.29435,180 0,139.705875 0,90 C0,40.29435 40.29435,0 90,0 C139.705875,0 180,40.29435 180,90 C180,139.705875 139.705875,180 90,180 Z" id="Path" fill="url(#linearGradient-1)"></path>
            <path d="M60.4578378,110.671875 C60.7455,110.369025 61.0930128,110.125687 61.479675,109.9566 C61.866225,109.787513 62.28405,109.695938 62.7078378,109.6875 L133.401375,109.6875 C133.700625,109.69155 133.992,109.779638 134.240625,109.940962 C134.490375,110.102288 134.686125,110.330213 134.80425,110.597062 C134.9235,110.864025 134.960625,111.15855 134.911125,111.445425 C134.861625,111.7323 134.728875,111.999262 134.5275,112.214025 L119.5425,128.390625 C119.2545,128.69325 118.906875,128.93625 118.519875,129.106125 C118.134,129.274875 117.7155,129.366 117.2925,129.375 L46.5530625,129.375 C46.2540375,129.3705 45.9624375,129.28275 45.7135875,129.121875 C45.4647375,128.959875 45.2691,128.732625 45.1503,128.464875 C45.0313875,128.19825 44.9944875,127.9035 45.0437625,127.616625 C45.0930375,127.32975 45.2264625,127.063125 45.428175,126.84825 L60.4578378,110.671875 Z M134.595,97.2624372 C134.796375,97.4773128 134.929125,97.744275 134.978625,98.03115 C135.028125,98.3179122 134.991,98.61255 134.87175,98.8795122 C134.753625,99.1463628 134.557875,99.374175 134.308125,99.5355 C134.0595,99.6969372 133.768125,99.7849128 133.468875,99.789075 L62.7528378,99.84375 C62.32905,99.8353122 61.911225,99.74385 61.524675,99.57465 C61.1380128,99.4055628 60.7905,99.162225 60.50295,98.859375 L45.405675,82.7375622 C45.2039625,82.5226872 45.0705375,82.255725 45.0212625,81.96885 C44.971875,81.6820872 45.0088875,81.38745 45.1278,81.1204878 C45.2466,80.8536372 45.4422375,80.625825 45.6910875,80.4643872 C45.9399375,80.3030628 46.2315375,80.2150878 46.5305625,80.210925 L117.2475,80.15625 C117.6705,80.1646878 118.089,80.25615 118.474875,80.42535 C118.861875,80.5944372 119.2095,80.837775 119.4975,81.140625 L134.595,97.2624372 Z M60.4578378,51.609375 C60.7455,51.306525 61.0930128,51.0633 61.479675,50.8941 C61.866225,50.7249 62.28405,50.6334375 62.7078378,50.625 L133.4475,50.679675 C133.745625,50.6838375 134.038125,50.7718125 134.28675,50.9331375 C134.535375,51.094575 134.731125,51.3223875 134.84925,51.5892375 C134.9685,51.8562 135.005625,52.1508375 134.956125,52.4376 C134.906625,52.724475 134.773875,52.9914375 134.571375,53.2062 L119.5425,69.328125 C119.2545,69.630975 118.906875,69.8743128 118.519875,70.0434 C118.134,70.2126 117.7155,70.3040622 117.2925,70.3125 L46.5530625,70.3125 C46.2540375,70.30845 45.9624375,70.2203628 45.7135875,70.0590378 C45.4647375,69.8977122 45.2691,69.6697878 45.1503,69.4029378 C45.0313875,69.135975 44.9944875,68.84145 45.0437625,68.554575 C45.0930375,68.2677 45.2264625,68.0007372 45.428175,67.785975 L60.4578378,51.609375 Z" id="Shape" fill="#FFFFFF"></path>
        </g>
    </g>
</svg>