<svg width="180.000000" height="181.139236" viewBox="0 0 180 181.139" fill="none" xmlns="http://www.w3.org/2000/svg" xmlns:xlink="http://www.w3.org/1999/xlink">
	<desc>
			Created with Pixso.
	</desc>
	<g clip-path="url(#clip2_6)">
		<path id="path" d="M0 91.1379C0 140.844 40.2932 181.136 89.9986 181.136C139.704 181.136 180 140.844 180 91.1379C180 41.4325 139.704 1.13924 89.9986 1.13924C40.2932 1.13924 0 41.4325 0 91.1379Z" fill-rule="evenodd" fill="#0C0C4F"/>
		<path id="path" d="M49.8639 69.9252L52.0856 63.0615C52.5371 61.6656 53.6389 60.5792 55.0401 60.1508L61.9374 58.0298C62.892 57.7383 62.8998 56.3913 61.9529 56.0842L55.0865 53.8626C53.6931 53.411 52.6068 52.3092 52.1759 50.9081L50.0574 44.0108C49.7658 43.0586 48.4189 43.0483 48.1118 43.9979L45.8901 50.8616C45.4385 52.255 44.3368 53.3414 42.9356 53.7722L36.0383 55.8907C35.0836 56.1849 35.0733 57.5292 36.0228 57.8362L42.8891 60.058C44.2825 60.5096 45.3689 61.614 45.7998 63.015L47.9183 69.9098C48.2099 70.8645 49.5568 70.8748 49.8639 69.9252Z" fill-rule="evenodd" fill="#FAFAFA"/>
		<path id="path" d="M159.206 65.4357C156.363 62.2561 151.925 60.4659 147.611 59.7316C143.262 59.0266 138.702 59.0921 134.409 59.8547C125.723 61.3241 117.831 64.921 110.948 69.3582C107.374 71.5359 104.326 74.0556 101.168 76.6219C99.6459 77.9197 98.2587 79.3017 96.8139 80.6642L92.8662 84.5919C88.5766 89.0757 84.3487 93.1597 80.2579 96.5447C76.1506 99.9141 72.3106 102.473 68.5262 104.26C64.7443 106.057 60.6976 107.113 55.423 107.282C50.1948 107.467 44.0092 106.523 37.3927 104.965C30.7407 103.415 23.7553 101.205 15.9494 99.3028C18.6731 106.859 22.7746 113.536 28.0405 119.64C33.3681 125.638 40.0207 131.105 48.567 134.701C56.9897 138.376 67.5744 139.694 77.4714 137.704C87.3947 135.795 96.1028 131.202 103.142 125.892C110.199 120.528 115.908 114.416 120.721 108.063C122.05 106.307 122.753 105.325 123.714 103.953L126.372 100.016C128.219 97.5813 129.9 94.8089 131.728 92.3962C135.312 87.3434 138.846 82.2966 142.951 77.6468C145.018 75.2884 147.197 73.0327 149.77 70.8649C151.053 69.8066 152.439 68.7712 153.975 67.8382C155.533 66.8322 157.179 66.0446 159.206 65.4357Z" fill-rule="evenodd" fill="url(#paint_linear_2_9_0)"/>
		<path id="path" d="M159.206 65.8287C156.152 58.1207 150.473 51.6322 142.85 46.8442C135.274 42.109 124.752 39.6923 114.325 41.7524C109.174 42.7486 104.183 44.6666 99.8037 47.2209C95.4441 49.7649 91.5374 52.8274 88.1553 56.1129C86.467 57.7611 84.9345 59.4805 83.412 61.2095L79.4659 66.2406L73.3711 74.3394C65.6011 84.7592 57.234 96.9708 43.5029 100.589C30.0231 104.141 24.1766 100.995 15.9494 99.6958C17.4537 103.58 19.3171 107.351 21.8432 110.669C24.3223 114.055 27.2506 117.234 30.8912 119.959C32.731 121.268 34.6734 122.56 36.8306 123.656C38.9782 124.715 41.2941 125.646 43.766 126.348C48.6829 127.696 54.2186 128.168 59.5784 127.443C64.9407 126.728 70.0661 125.028 74.5463 122.771C79.0595 120.536 82.9911 117.813 86.5016 114.94C93.48 109.144 98.9081 102.741 103.493 96.2684C105.799 93.0321 107.893 89.7349 109.829 86.437L112.108 82.5103C112.805 81.3627 113.509 80.2078 114.224 79.1322C117.112 74.8112 119.936 71.3463 123.367 68.7458C126.749 66.0779 131.46 64.1068 137.754 63.6488C144.022 63.1854 151.259 64.0414 159.206 65.8287Z" fill-rule="evenodd" fill="#FAFAFA"/>
		<path id="path" d="M125.316 129.873C125.316 135.534 129.909 140.127 135.57 140.127C141.232 140.127 145.817 135.534 145.817 129.873C145.817 124.211 141.232 119.62 135.57 119.62C129.909 119.62 125.316 124.211 125.316 129.873Z" fill-rule="evenodd" fill="url(#paint_linear_2_11_0)"/>
	</g>
	<defs>
		<clipPath id="clip2_6">
			<rect id="SN-Symbol-Gradient" width="180.000000" height="181.139236" fill="white"/>
		</clipPath>
		<linearGradient id="paint_linear_2_9_0" x1="158.554901" y1="63.232971" x2="32.468353" y2="133.291138" gradientUnits="userSpaceOnUse">
			<stop stop-color="#EC796B"/>
			<stop offset="1.000000" stop-color="#E175B1"/>
		</linearGradient>
		<linearGradient id="paint_linear_2_11_0" x1="145.902557" y1="122.788475" x2="125.395081" y2="124.957588" gradientUnits="userSpaceOnUse">
			<stop stop-color="#EC796B"/>
			<stop offset="1.000000" stop-color="#E175B1"/>
		</linearGradient>
	</defs>
</svg>
