<?xml version="1.0" encoding="UTF-8"?>
<svg width="30px" height="30px" viewBox="0 0 30 30" version="1.1" xmlns="http://www.w3.org/2000/svg" xmlns:xlink="http://www.w3.org/1999/xlink">
    <title>terra</title>
    <g id="Page-1" stroke="none" stroke-width="1" fill="none" fill-rule="evenodd">
        <g id="terra" fill-rule="nonzero">
            <circle  fill-opacity="0.1" fill="#5493F7" cx="15" cy="15" r="15"></circle>
            <g id="Group" transform="translate(6.000000, 6.000000)">
                <path d="M8.39462788,14.4799879 C8.89878291,16.4031654 10.7082358,17.8707202 11.6216546,17.8105982 C11.6535265,17.8084251 15.0877204,17.1485326 16.9674364,13.9106404 C18.4306449,11.391314 17.9322848,8.95891088 15.942466,8.90603255 C15.2267977,8.95963524 7.43340128,10.8161716 8.39462788,14.4807122" id="Path" fill="#0E3CA5"></path>
                <path d="M10.1229524,0 C8.8270712,0 7.59710679,0.278172662 6.48448881,0.774359718 C6.28981626,0.855953052 6.10018037,0.949077817 5.91659004,1.05323857 C5.79055129,1.12060412 5.66451253,1.1872453 5.54281994,1.25968136 L5.57179437,1.26909805 C5.20309479,1.52479737 4.88582482,1.8225096 4.62577934,2.16730528 C2.05212589,5.57469785 10.6778127,8.05128697 15.2890927,8.0599793 C17.4114695,9.58620722 18.0068939,3.7616231 15.9337737,2.1448501 C14.3163454,0.756833986 12.2543005,-0.00428729873 10.1229524,0 Z" id="Path" fill="#0E3CA5"></path>
                <path d="M6.88143845,1.99780488 C5.71521778,3.71091786 1.82974717,4.91842709 1.19086106,4.73009332 L1.18796362,4.72284971 L1.26764329,4.56856089 C1.93518855,3.31599225 2.88317133,2.23463742 4.03759848,1.40889966 C4.2766375,1.23722618 4.52436884,1.07714248 4.78006816,0.92792418 C5.3226143,0.620070897 5.88037201,0.601237519 6.06363526,0.593993913 C7.79340853,0.625865782 6.89013078,1.98404203 6.88071409,1.99780488" id="Path" fill="#5493F7"></path>
                <path d="M5.90282719,14.835649 C5.98975047,15.3984772 5.90065411,17.6229888 5.78330768,17.8105982 C5.68334591,17.8163931 5.47328132,17.8294316 4.86699144,17.4933283 C3.69057271,16.8305258 2.66624846,15.9283505 1.86017031,14.8450657 C1.27048943,14.0515771 0.808558708,13.1707314 0.491128656,12.2344698 C0.164363808,11.2659799 -0.00153851343,10.2505011 0,9.22837305 C-0.0017972566,8.10475889 0.198920089,6.99001696 0.592539149,5.93760255 L0.593987871,5.93760255 C1.28937411,6.84957262 2.09341445,7.67461942 2.77648656,8.59600619 C3.4276868,9.4724826 4.32299658,10.9016462 4.50481111,11.2073264 C5.63626247,13.1029783 5.81662827,14.2728207 5.90282719,14.835649" id="Path" fill="#5493F7"></path>
                <path d="M19,9.33340535 C19,10.5496069 18.768197,11.7122058 18.3487922,12.7784647 C17.2477639,13.9664162 9.82161839,11.0428965 9.74845797,11.0110247 C8.73290431,10.5648185 5.64133299,9.20591787 5.36245413,7.07195135 C4.96115833,4.00211085 11.170378,1.86234944 13.8990446,1.78122104 C14.2257312,1.78484285 15.2217272,1.79643262 15.8019401,2.27016449 C17.8374607,4.05232168 19.0034361,6.62723893 19,9.33268099" id="Path" fill="#5493F7"></path>
                <path d="M12.506099,16.9268782 C12.9501321,15.3550156 16.8327053,13.7440374 17.6896239,13.6571142 C17.7953806,13.6462488 17.840291,13.7208579 17.7939319,13.8063325 C16.9000708,15.4317978 15.5766639,16.7704163 13.9751025,17.6382004 C13.1652672,18.0308039 12.2743036,17.7446814 12.506099,16.9268782 Z" id="Path" fill="#5493F7"></path>
            </g>
        </g>
    </g>
</svg>