<?xml version="1.0" encoding="UTF-8"?>
<svg width="180px" height="180px" viewBox="0 0 180 180" version="1.1" xmlns="http://www.w3.org/2000/svg" xmlns:xlink="http://www.w3.org/1999/xlink">
    <title>terra</title>
    <g id="Page-1" stroke="none" stroke-width="1" fill="none" fill-rule="evenodd">
        <g id="terra" fill-rule="nonzero">
            <circle id="Oval" fill="#5493F7" cx="90" cy="90" r="90"></circle>
            <g id="Group" transform="translate(35.999928, 35.999892)">
                <path d="M50.3678391,86.8800355 C53.3927692,98.4191005 64.2494866,107.224429 69.7299994,106.863697 C69.9212308,106.850659 90.5263942,102.891304 101.80469,83.4639505 C110.583941,68.3479921 107.593781,53.7535734 95.6548678,53.4363034 C91.360858,53.7579195 44.6004795,64.8971377 50.3678391,86.8843813" id="Path" fill="#0E3CA5"></path>
                <path d="M60.7377862,2.66453526e-15 C52.962499,2.66453526e-15 45.5827125,1.66914406 38.9070046,4.64626639 C37.7389693,5.1358264 36.601154,5.69457499 35.499612,6.3195395 C34.7433795,6.7237328 33.987147,7.12357988 33.2569914,7.55819624 L33.430838,7.61469638 C31.2186405,9.1488923 29.3150207,10.9351657 27.7547478,13.0039398 C12.3128271,33.4482952 64.066948,48.3078299 91.734628,48.3599839 C104.468889,57.5173514 108.041435,22.5698467 95.602714,12.8692087 C85.8981442,4.541112 73.5258748,-0.0256157087 60.7377862,2.66453526e-15 Z" id="Path" fill="#0E3CA5"></path>
                <path d="M41.2887025,11.9869374 C34.2913785,22.2656152 10.9785548,29.5106706 7.14523814,28.380668 L7.1278535,28.3372063 L7.60593152,27.4114734 C11.6112031,19.8960616 17.2990998,13.4079326 24.2256627,8.45350604 C25.6598968,7.42346516 27.1462848,6.46296296 28.6804807,5.56765316 C31.9357576,3.72053347 35.2823038,3.6075332 36.3818833,3.56407156 C46.760523,3.75530278 41.3408565,11.9043603 41.2843563,11.9869374" id="Path" fill="#FFFFFF"></path>
                <path d="M35.4170349,89.0140021 C35.9385746,92.3909713 35.4039964,105.738041 34.6999179,106.863697 C34.1001472,106.898467 32.8397597,106.976698 29.2020204,104.960078 C22.143508,100.983263 15.9975625,95.5702111 11.1610936,89.0705023 C7.62300836,84.3095707 4.85142403,79.0244965 2.94684372,73.4069269 C0.986254629,67.5959875 -0.00915930002,61.5031147 3.40038666e-15,55.3703464 C-0.010711759,48.6286614 1.19359231,41.9402098 3.55530667,35.6257234 L3.56399901,35.6257234 C7.73631644,41.0975438 12.5605585,46.0478246 16.6589911,51.5761452 C20.5661926,56.8350037 25.9380513,65.4099853 27.0289384,67.2440665 C33.8176466,78.6179779 34.8998414,85.6370323 35.4170349,89.0140021" id="Path" fill="#FFFFFF"></path>
                <path d="M114.000117,56.0005402 C114.000117,63.2977495 112.609254,70.2733429 110.092825,76.6708963 C103.486655,83.7986053 58.9297821,66.2574871 58.4908196,66.0662563 C52.3974976,63.3890191 33.8480697,55.2356153 32.1747966,42.4318162 C29.7670218,24.0127732 67.0223398,11.1742047 83.3943394,10.6874343 C85.354459,10.7091652 91.330435,10.7787038 94.8117124,13.621095 C107.024836,24.3140382 114.020688,39.7635417 114.000117,55.996194" id="Path" fill="#FFFFFF"></path>
                <path d="M75.0366658,101.561377 C77.7008644,92.1302017 100.996304,82.4643325 106.137815,81.9427933 C106.772355,81.8776009 107.041818,82.3252555 106.763663,82.8381031 C101.400497,92.5908949 93.4600552,100.622606 83.8506868,105.82931 C78.991675,108.184931 73.6458934,106.468196 75.0366658,101.561377 Z" id="Path" fill="#F0F0F0"></path>
            </g>
        </g>
    </g>
</svg>