<?xml version="1.0" encoding="UTF-8"?>
<svg width="180px" height="180px" viewBox="0 0 180 180" version="1.1" xmlns="http://www.w3.org/2000/svg" xmlns:xlink="http://www.w3.org/1999/xlink">
    <title>tron</title>
    <g id="Page-1" stroke="none" stroke-width="1" fill="none" fill-rule="evenodd">
        <g id="tron" fill-rule="nonzero">
            <circle id="Oval" fill="#FF0420" cx="90" cy="90" r="90"></circle>
            <path d="M139.639798,74.6976512 C134.707808,70.1437806 127.885222,63.1896748 122.328513,58.2576849 L121.999714,58.0275254 C121.452644,57.5882137 120.835824,57.2436834 120.174878,57.0082475 L120.174878,57.0082475 C106.776305,54.5093726 44.419513,42.8534365 43.2029555,43.0013962 C42.8620696,43.0491379 42.5362327,43.1727312 42.2494374,43.3630754 L41.9370781,43.6096749 C41.5524557,44.0002898 41.2603284,44.4721877 41.0821998,44.9906321 L41,45.2043517 L41,46.3715893 L41,46.5524289 C48.0198656,66.0995488 75.7376488,130.133218 81.1957176,145.159347 C81.5245169,146.178625 82.1492356,148.118541 83.3164733,148.217181 L83.5795127,148.217181 C84.2042314,148.217181 86.867506,144.699028 86.867506,144.699028 C86.867506,144.699028 134.477648,86.9618661 139.294559,80.8133187 C139.918069,80.0559459 140.468521,79.2412772 140.938555,78.3802037 C141.182597,77.009767 140.689561,75.6117904 139.639798,74.6976512 Z M99.0824009,81.4215974 L119.402199,64.570632 L131.321175,75.5525295 L99.0824009,81.4215974 Z M91.1912171,80.3201197 L56.2069688,51.6488185 L112.809773,62.0881971 L91.1912171,80.3201197 Z M94.3476906,87.8331843 L130.153937,82.0627561 L89.2184212,131.382655 L94.3476906,87.8331843 Z M51.4558186,54.5093726 L88.2649031,85.7453086 L82.938354,131.415535 L51.4558186,54.5093726 Z" id="Shape" fill="#FFFFFF"></path>
        </g>
    </g>
</svg>