<?xml version="1.0" encoding="UTF-8"?>
<svg width="30px" height="30px" viewBox="0 0 30 30" version="1.1" xmlns="http://www.w3.org/2000/svg" xmlns:xlink="http://www.w3.org/1999/xlink">
    <title>xdai-dark</title>
    <g id="Page-1" stroke="none" stroke-width="1" fill="none" fill-rule="evenodd">
        <g id="xdai-dark" fill="#04795B" fill-rule="nonzero">
            <circle  fill-opacity="0.1" cx="15" cy="15" r="15"></circle>
            <g id="Group-2" transform="translate(5.000000, 5.000000)">
                <path d="M5.8881507,11.3815879 C6.48535135,11.3815879 7.03665625,11.1825884 7.48075315,10.8381682 L3.83608537,7.1948146 C3.49151349,7.63107687 3.29242564,8.18217959 3.29242564,8.78686104 C3.28478047,10.2181713 4.44865199,11.3815879 5.8881507,11.3815879 Z" id="Path"></path>
                <path d="M16.7302109,8.77917805 C16.7302109,8.18217959 16.5311609,7.63107687 16.186589,7.18713161 L12.5419212,10.8304852 C12.9783351,11.1749054 13.52964,11.3739428 14.1345237,11.3739428 C15.5663899,11.3815879 16.7302109,10.2181713 16.7302109,8.77917805 Z" id="Path"></path>
                <path d="M18.5678602,4.82208563 L16.9522594,6.43707995 C17.4882488,7.0800247 17.8098223,7.89138862 17.8098223,8.79454403 C17.8098223,10.8228528 16.1635906,12.4684779 14.1345237,12.4684779 C13.2386974,12.4684779 12.4193978,12.1470056 11.7762003,11.6112183 L10.0074957,13.3793163 L8.23874053,11.6112183 C7.5955936,12.1470056 6.7839264,12.4684779 5.88041717,12.4684779 C3.85135026,12.4684779 2.20516907,10.8228528 2.20516907,8.79454403 C2.20516907,7.89902106 2.52674254,7.0800247 3.06273202,6.43707995 L2.23574939,5.61045114 L1.44713115,4.82208563 C0.528306488,6.33760547 0,8.10570354 0,10.0039069 C0,15.5300979 4.47923231,20.0000803 9.99981271,20.0000803 C15.5204437,20.0000803 19.999676,15.5224655 19.999676,10.0039069 C20.0149914,8.09802055 19.4866849,6.32992249 18.5678602,4.82208563 Z" id="Path"></path>
                <path d="M17.243202,3.09988331 C15.4285511,1.19404747 12.8558117,0 10.0074957,0 C7.15912914,0 4.59407275,1.19404747 2.77173886,3.09988331 C2.52674254,3.36014451 2.28937866,3.6356706 2.06733021,3.91887967 L9.99981271,11.848481 L17.9323457,3.91124723 C17.7332452,3.6356706 17.4958813,3.35246152 17.243202,3.09988331 Z M10.0074957,1.30120493 C12.3505036,1.30120493 14.5250418,2.20436034 16.1559581,3.84998551 L10.0074957,9.9961734 L3.85903324,3.84998551 C5.49758198,2.20436034 7.66448776,1.30120493 10.0074957,1.30120493 Z" id="Shape"></path>
            </g>
        </g>
    </g>
</svg>